<?xml version="1.0" encoding="utf-8"?>
<svg xmlns="http://www.w3.org/2000/svg">
<symbol id="accessory-24" viewBox="0 0 24 24"><path fill-rule="evenodd" clip-rule="evenodd" d="M12.498 2.709a4.75 4.75 0 013.004 0l.748.249v16.54a1.75 1.75 0 01-1.75 1.75H9a1.75 1.75 0 01-1.75-1.75V9.604a3.75 3.75 0 011.67-3.12l2.83-1.887v-1.64l.748-.248zm.752 1.344V5.4L9.752 7.732A2.25 2.25 0 008.75 9.604v9.895c0 .138.112.25.25.25h5.5a.25.25 0 00.25-.25V4.053a3.25 3.25 0 00-1.5 0z"/>
</symbol>
<symbol id="alert-16" viewBox="0 0 16 16">
<path fill-rule="evenodd" clip-rule="evenodd" d="M8.11277 1.79671C8.05049 1.73443 7.94951 1.73443 7.88723 1.79671L1.79671 7.88723C1.73443 7.94951 1.73443 8.05049 1.79671 8.11277L7.88723 14.2033C7.94951 14.2656 8.05049 14.2656 8.11277 14.2033L14.2033 8.11277C14.2656 8.05049 14.2656 7.94951 14.2033 7.88723L8.11277 1.79671ZM6.82657 0.736051C7.47464 0.0879825 8.52536 0.0879835 9.17343 0.736051L15.2639 6.82657C15.912 7.47464 15.912 8.52536 15.2639 9.17343L9.17343 15.2639C8.52536 15.912 7.47464 15.912 6.82657 15.2639L0.736051 9.17343C0.0879827 8.52536 0.0879833 7.47464 0.736051 6.82657L6.82657 0.736051Z"/>
<path fill-rule="evenodd" clip-rule="evenodd" d="M7.25 10V6H8.75V10H7.25Z"/>

</symbol>
<symbol id="alert-24" viewBox="0 0 22 22"><path d="M10.22 12.2V6.3h1.55v5.9h-1.55zM10.22 15.25v-1.5h1.55v1.5h-1.55z"/><path fill-rule="evenodd" clip-rule="evenodd" d="M11 1.75a9.25 9.25 0 100 18.5 9.25 9.25 0 000-18.5zM.25 11a10.75 10.75 0 1121.5 0 10.75 10.75 0 01-21.5 0z"/>
</symbol>
<symbol id="alert-40" viewBox="0 0 40 40"><circle cx="20" cy="20" r="20" fill="red"/><path d="M20 29a2 2 0 110-4 2 2 0 010 4zM18.5 10h3v13h-3V10z" fill="#EBEBEB"/>
</symbol>
<symbol id="all-terrain-vehicle-24" viewBox="0 0 24 24"><path fill-rule="evenodd" clip-rule="evenodd" d="M8 4.75c-.69 0-1.25.56-1.25 1.25v4h-1.5V6A2.75 2.75 0 018 3.25h8A2.75 2.75 0 0118.75 6v4h-1.5V6c0-.69-.56-1.25-1.25-1.25H8zM4.25 16c0-.966.784-1.75 1.75-1.75h1c.966 0 1.75.784 1.75 1.75v4A1.75 1.75 0 017 21.75H6A1.75 1.75 0 014.25 20v-4zM6 15.75a.25.25 0 00-.25.25v4c0 .138.112.25.25.25h1a.25.25 0 00.25-.25v-4a.25.25 0 00-.25-.25H6zM15.25 16c0-.966.784-1.75 1.75-1.75h1c.966 0 1.75.784 1.75 1.75v4A1.75 1.75 0 0118 21.75h-1A1.75 1.75 0 0115.25 20v-4zm1.75-.25a.25.25 0 00-.25.25v4c0 .138.112.25.25.25h1a.25.25 0 00.25-.25v-4a.25.25 0 00-.25-.25h-1z"/><path fill-rule="evenodd" clip-rule="evenodd" d="M10.01 9.75a1.5 1.5 0 01-1.415 1H6.738a.988.988 0 00-.988.988v1.021a3.23 3.23 0 00-1.5.502v-1.523A2.488 2.488 0 016.738 9.25h1.857a1 1 0 011-1h4.655a1 1 0 011 1h1.95a2.55 2.55 0 012.55 2.55v1.46a3.23 3.23 0 00-1.5-.5v-.96c0-.58-.47-1.05-1.05-1.05h-1.95a1.5 1.5 0 01-1.415-1H10.01zm3.74 7.174a8.868 8.868 0 00-3.5 0v1.537a7.37 7.37 0 013.5 0v-1.537z"/><path d="M10 12.5a1 1 0 11-2 0 1 1 0 012 0zM16 12.5a1 1 0 11-2 0 1 1 0 012 0z"/>
</symbol>
<symbol id="arrow-down-16" viewBox="0 0 16 16"><path d="M8 13.06L12.06 9 11 7.94l-2.25 2.25V2.25h-1.5v7.94L5 7.94 3.94 9 8 13.06z"/>
</symbol>
<symbol id="arrow-left-16" viewBox="0 0 16 16">
<path d="M2.93942 7.99762L6.99999 12.0586L8.06057 10.998L5.8106 8.74762L13.75 8.74762L13.75 7.24762L5.81071 7.24762L8.06069 4.99768L7 3.93699L2.93942 7.99762Z"/>

</symbol>
<symbol id="arrow-left-24" viewBox="0 0 24 24">
<path fill-rule="evenodd" clip-rule="evenodd" d="M10.3597 18.5254L3.9486 11.9998L10.3597 5.47416L11.4297 6.52539L6.78824 11.2498L21 11.2498L21 12.7498L6.78824 12.7498L11.4297 17.4742L10.3597 18.5254Z"/>

</symbol>
<symbol id="arrow-right-16" viewBox="0 0 16 16"><path d="M13.06 8L9 3.94 7.94 5l2.25 2.25H2.25v1.5h7.94L7.94 11 9 12.06 13.06 8z"/>
</symbol>
<symbol id="arrow-right-24" viewBox="0 0 24 24">
<path fill-rule="evenodd" clip-rule="evenodd" d="M13.6403 5.47266L20.0514 11.9983L13.6403 18.5239L12.5703 17.4727L17.2118 12.7483H3V11.2483H17.2118L12.5703 6.52389L13.6403 5.47266Z"/>

</symbol>
<symbol id="arrow-up-16" viewBox="0 0 16 16"><path d="M8 2.94L3.94 7 5 8.06l2.25-2.25v7.94h1.5V5.81L11 8.06 12.06 7 8 2.94z"/>
</symbol>
<symbol id="arrow-up-left-24" viewBox="0 0 24 24">
<path fill-rule="evenodd" clip-rule="evenodd" d="M9.35583 5.89026L18.5035 5.97121L18.5845 15.1189L17.0845 15.1321L17.0259 8.50946L6.97667 18.5587L5.91601 17.498L15.9652 7.4488L9.34256 7.3902L9.35583 5.89026Z"/>

</symbol>
<symbol id="attach-16" viewBox="0 0 16 16">
<path fill-rule="evenodd" clip-rule="evenodd" d="M9.15165 1.70923C10.4209 0.440023 12.4786 0.440023 13.7478 1.70923C15.017 2.97843 15.017 5.03622 13.7478 6.30542L7.91421 12.1391C7.13317 12.9201 5.86684 12.9201 5.08579 12.1391C4.30474 11.358 4.30474 10.0917 5.08579 9.31063L8.7981 5.59831L9.85876 6.65897L6.14645 10.3713C5.95118 10.5665 5.95118 10.8831 6.14645 11.0784C6.34171 11.2737 6.65829 11.2737 6.85355 11.0784L12.6872 5.24476C13.3706 4.56134 13.3706 3.4533 12.6872 2.76989C12.0038 2.08647 10.8957 2.08647 10.2123 2.76989L4.37868 8.60352C3.20711 9.77509 3.20711 11.6746 4.37868 12.8462C5.55025 14.0177 7.44975 14.0177 8.62132 12.8462L12.3336 9.13385L13.3943 10.1945L9.68198 13.9068C7.92462 15.6642 5.07538 15.6642 3.31802 13.9068C1.56066 12.1495 1.56066 9.30022 3.31802 7.54286L9.15165 1.70923Z" fill="#565656"/>

</symbol>
<symbol id="ball-32" viewBox="0 0 32 32">
<path fill-rule="evenodd" clip-rule="evenodd" d="M16 28.5C22.9036 28.5 28.5 22.9036 28.5 16C28.5 9.09644 22.9036 3.5 16 3.5C9.09644 3.5 3.5 9.09644 3.5 16C3.5 22.9036 9.09644 28.5 16 28.5ZM16 30C23.732 30 30 23.732 30 16C30 8.26801 23.732 2 16 2C8.26801 2 2 8.26801 2 16C2 23.732 8.26801 30 16 30Z" fill="black"/>
<path fill-rule="evenodd" clip-rule="evenodd" d="M19.7609 10.8223L15.9991 8L12.2373 10.8223L8.39062 13.5279L9.91232 17.9777L11.2968 22.4721L15.9991 22.4L20.7014 22.4721L22.0858 17.9777L23.6075 13.5279L19.7609 10.8223ZM21.8241 14.1073L18.8791 12.036L15.9991 9.87522L13.119 12.036L10.1741 14.1073L11.3391 17.5141L12.399 20.9551L15.9991 20.8998L19.5991 20.9551L20.6591 17.5141L21.8241 14.1073Z" fill="black"/>
<path fill-rule="evenodd" clip-rule="evenodd" d="M29.4342 12.5027L22.9974 14.4337L22.5664 12.9969L29.0031 11.0659L29.4342 12.5027Z" fill="black"/>
<path fill-rule="evenodd" clip-rule="evenodd" d="M16.75 2.25V8.75H15.25V2.25H16.75Z" fill="black"/>
<path fill-rule="evenodd" clip-rule="evenodd" d="M2.99743 11.0659L9.43417 12.9969L9.00315 14.4337L2.56641 12.5027L2.99743 11.0659Z" fill="black"/>
<path fill-rule="evenodd" clip-rule="evenodd" d="M12.5492 22.3502L8.64922 27.5502L7.44922 26.6502L11.3492 21.4502L12.5492 22.3502Z" fill="black"/>
<path fill-rule="evenodd" clip-rule="evenodd" d="M20.6492 21.4502L24.5492 26.6502L23.3492 27.5502L19.4492 22.3502L20.6492 21.4502Z" fill="black"/>

</symbol>
<symbol id="boat-24" viewBox="0 0 24 24"><path fill-rule="evenodd" clip-rule="evenodd" d="M-.145 12.25h19.573l.399 1.164a.25.25 0 00.236.17h3.688v3.132l-2.61.565a20.75 20.75 0 01-4.388.469h-6.235a10.75 10.75 0 01-6.697-2.341L-.145 12.25zm4.291 1.5l.61.485a9.25 9.25 0 005.762 2.015h6.235c1.369 0 2.733-.146 4.07-.435l1.428-.309v-.423h-2.188a1.75 1.75 0 01-1.655-1.183l-.052-.15H4.146z"/><path fill-rule="evenodd" clip-rule="evenodd" d="M11.862 10.376a.25.25 0 00-.243.065l-3.09 3.09-1.06-1.062 3.09-3.09a1.75 1.75 0 011.697-.45l4.375 1.193a1.75 1.75 0 011.238 1.264l.358 1.432-1.456.364-.358-1.432a.25.25 0 00-.176-.18l-4.375-1.194z"/>
</symbol>
<symbol id="bonus-32" viewBox="0 0 32 32">
<path fill-rule="evenodd" clip-rule="evenodd" d="M5.99805 10.625L16.4994 10.625V12.125L5.99805 12.125V10.625Z" fill="black"/>
<path fill-rule="evenodd" clip-rule="evenodd" d="M19.5 10.625H30.0013V12.125H19.5V10.625Z" fill="black"/>
<path fill-rule="evenodd" clip-rule="evenodd" d="M22.502 16.6255H27.7525V18.1255H22.502V16.6255Z" fill="black"/>
<path fill-rule="evenodd" clip-rule="evenodd" d="M16.5 7.625L16.5 22.627L15 22.627L15 7.625L16.5 7.625Z" fill="black"/>
<path fill-rule="evenodd" clip-rule="evenodd" d="M21.0039 7.62549L21.0039 22.6274L19.5039 22.6274L19.5039 7.62549L21.0039 7.62549Z" fill="black"/>
<path fill-rule="evenodd" clip-rule="evenodd" d="M16.5 21.1274V24.5674L18.0003 23.0671L19.5007 24.5674V21.1274H21.0007V28.1888L18.0003 25.1884L15 28.1888V21.1274H16.5Z" fill="black"/>
<path fill-rule="evenodd" clip-rule="evenodd" d="M7.49609 9.12402H28.4996V19.626H20.7661V21.126H28.4996H29.9996V19.626V9.12402V7.62402H28.4996H7.49609H5.99609V9.12402V19.626V21.126H7.49609H15.2268V19.626H7.49609V9.12402Z" fill="black"/>
<path fill-rule="evenodd" clip-rule="evenodd" d="M3.00011 3.56336L5.31094 5.87419L4.25028 6.93485L1.93945 4.62402L3.00011 3.56336Z" fill="black"/>
<path fill-rule="evenodd" clip-rule="evenodd" d="M9.30871 4.62414L6.99788 6.93497L5.93722 5.87431L8.24805 3.56348L9.30871 4.62414Z" fill="black"/>
<path fill-rule="evenodd" clip-rule="evenodd" d="M5.31261 8.62609L3.00178 10.9369L1.94112 9.87626L4.25195 7.56543L5.31261 8.62609Z" fill="black"/>

</symbol>
<symbol id="calculator-16" viewBox="0 0 17 16">
<path fill-rule="evenodd" clip-rule="evenodd" d="M14.0837 0.416016L2.91699 0.416016L2.91699 15.5827H14.0837V0.416016ZM12.5837 4.75H4.41699V14.0827H12.5837V4.75ZM4.41699 3.25L12.5837 3.25V1.91602L4.41699 1.91602V3.25ZM6.75033 6.08398H4.91699V7.58398H6.75033V6.08398ZM9.41699 6.08398H7.58366V7.58398H9.41699V6.08398ZM12.0837 6.08398H10.2503V7.58398H12.0837V6.08398ZM6.75033 8.75H4.91699V10.25H6.75033V8.75ZM9.41699 8.75H7.58366V10.25H9.41699V8.75ZM12.0837 8.75H10.2503V10.25H12.0837V8.75ZM6.75033 11.416H4.91699V12.916H6.75033V11.416ZM9.41699 11.416H7.58366V12.916H9.41699V11.416ZM12.0837 11.416H10.2503V12.916H12.0837V11.416Z"/>

</symbol>
<symbol id="calculator-24" viewBox="0 0 24 24">
<path fill-rule="evenodd" clip-rule="evenodd" d="M18.5 2.5H5.5V21.5H18.5V2.5ZM4 1V23H20V1H4Z"/>
<path fill-rule="evenodd" clip-rule="evenodd" d="M9 11H7V9.5H9V11ZM13 11H11V9.5H13V11ZM17 11H15V9.5H17V11Z"/>
<path fill-rule="evenodd" clip-rule="evenodd" d="M9 15H7V13.5H9V15ZM13 15H11V13.5H13V15ZM17 15H15V13.5H17V15Z"/>
<path fill-rule="evenodd" clip-rule="evenodd" d="M9 19H7V17.5H9V19ZM13 19H11V17.5H13V19ZM17 19H15V17.5H17V19Z"/>
<path fill-rule="evenodd" clip-rule="evenodd" d="M19 6.75H5V5.25H19V6.75Z"/>

</symbol>
<symbol id="calendar-16" viewBox="0 0 16 16"><path fill-rule="evenodd" clip-rule="evenodd" d="M.25 2C.25 1.03 1.03.25 2 .25h12c.97 0 1.75.78 1.75 1.75v12c0 .97-.78 1.75-1.75 1.75H2c-.97 0-1.75-.78-1.75-1.75V2zM2 1.75a.25.25 0 00-.25.25v12c0 .14.11.25.25.25h12c.14 0 .25-.11.25-.25V2a.25.25 0 00-.25-.25h-2.25V3.5h-1.5V1.75h-4.5V3.5h-1.5V1.75H2zm3.75 6.5h-1.5V6.73h1.5v1.52zm1.5 0h1.5V6.73h-1.5v1.52zm3 0h1.5V6.73h-1.5v1.52zm-4.5 3h-1.5V9.75h1.5v1.52zm1.5 0h1.5V9.75h-1.5v1.52zm3 0h1.5V9.75h-1.5v1.52z"/>
</symbol>
<symbol id="canister-64" viewBox="0 0 44 62">
  <path fill-rule="evenodd" сlip-rule="evenodd" d="M19.2757 47.1774C23.861 47.1774 26.8432 42.352 24.7926 38.2508L19.2757 27.2168L13.7587 38.2508C11.7081 42.352 14.6903 47.1774 19.2757 47.1774ZM22.0959 39.5991C23.1441 41.6956 21.6196 44.1624 19.2757 44.1624C16.9317 44.1624 15.4072 41.6956 16.4554 39.5991L19.2757 33.9587L22.0959 39.5991Z"/>
  <path fill-rule="evenodd" сlip-rule="evenodd" d="M3.0974 0.5H13.8896V6.3H15.6233L43.5 35.139V61.5H0.5V6.3H3.0974V0.5ZM3.5 9.3V58.5H40.5V36.3519L14.3507 9.3H10.8896V3.5H6.0974V9.3H3.5Z"/>
  <path fill-rule="evenodd" сlip-rule="evenodd" d="M27.8394 9.67114C24.8214 6.58772 20.21 5.69417 16.2586 7.42714L16.1442 7.47735L17.3552 10.2385L17.4696 10.1883C20.2726 8.95899 23.5438 9.59285 25.6848 11.7801L37.5116 23.8631C40.1255 26.5336 40.5355 30.6608 38.4981 33.7934L38.4299 33.8982L40.9574 35.5421L41.0255 35.4373C43.833 31.1208 43.2681 25.4339 39.6663 21.754L27.8394 9.67114Z"/>

</symbol>
<symbol id="car-64" viewBox="0 0 50 60">
  <path fill-rule="evenodd" сlip-rule="evenodd" d="M3.35107 8.16043C3.35107 3.65355 7.00462 0 11.5115 0H38.0806C42.5875 0 46.2411 3.65355 46.2411 8.16043V21.4723H43.2048V8.16043C43.2048 5.33044 40.9106 3.03629 38.0806 3.03629H11.5115C8.68152 3.03629 6.38736 5.33044 6.38736 8.16043V21.4723H3.35107V8.16043Z"/>
  <path fill-rule="evenodd" сlip-rule="evenodd" d="M0 41.3715C0 38.6988 2.16662 36.5322 4.83929 36.5322H8.16043C10.8331 36.5322 12.9997 38.6988 12.9997 41.3715V54.6561C12.9997 57.3287 10.8331 59.4954 8.16043 59.4954H4.83929C2.16662 59.4954 0 57.3287 0 54.6561V41.3715ZM4.83929 39.5685C3.84352 39.5685 3.03629 40.3757 3.03629 41.3715V54.6561C3.03629 55.6519 3.84352 56.4591 4.83929 56.4591H8.16043C9.1562 56.4591 9.96343 55.6519 9.96343 54.6561V41.3715C9.96343 40.3757 9.1562 39.5685 8.16043 39.5685H4.83929Z"/>
  <path fill-rule="evenodd" сlip-rule="evenodd" d="M36.5325 41.3715C36.5325 38.6988 38.6991 36.5322 41.3718 36.5322H44.6929C47.3656 36.5322 49.5322 38.6988 49.5322 41.3715V54.6561C49.5322 57.3287 47.3656 59.4954 44.6929 59.4954H41.3718C38.6991 59.4954 36.5325 57.3287 36.5325 54.6561V41.3715ZM41.3718 39.5685C40.376 39.5685 39.5688 40.3757 39.5688 41.3715V54.6561C39.5688 55.6519 40.376 56.4591 41.3718 56.4591H44.6929C45.6887 56.4591 46.4959 55.6519 46.4959 54.6561V41.3715C46.4959 40.3757 45.6887 39.5685 44.6929 39.5685H41.3718Z"/>
  <path fill-rule="evenodd" сlip-rule="evenodd" d="M14.4298 18.9529C14.4298 17.6559 15.4812 16.6045 16.7782 16.6045H32.2387C33.5357 16.6045 34.5871 17.6559 34.5871 18.9529V19.9256H42.0361C46.1761 19.9256 49.5323 23.2818 49.5323 27.4218V33.5779C49.029 33.1932 48.5702 32.9112 48.1133 32.7029C47.5801 32.4597 47.0614 32.3223 46.496 32.2329V27.4218C46.496 24.9587 44.4992 22.9619 42.0361 22.9619H35.5599C33.8157 22.9619 32.3295 21.8476 31.7787 20.2893L31.5495 19.6408H17.4674L17.2382 20.2893C16.6874 21.8476 15.2012 22.9619 13.4571 22.9619H7.29006C4.94077 22.9619 3.03629 24.8664 3.03629 27.2157V32.2329C2.47084 32.3223 1.95218 32.4597 1.4189 32.7029C0.962046 32.9112 0.503244 33.1932 0 33.5779V27.2157C0 23.1895 3.26387 19.9256 7.29006 19.9256H14.4298V18.9529ZM17.6435 48.2856V45.1956C19.4335 44.9204 22.9123 44.7787 24.5585 44.7787C26.2081 44.7787 30.0613 44.9207 31.8887 45.1961V48.2866C29.9546 47.9705 26.1751 47.815 24.5585 47.815C22.9411 47.815 19.5255 47.9704 17.6435 48.2856Z"/>
  <path fill-rule="evenodd" сlip-rule="evenodd" d="M17.4239 29.7481C17.4239 31.1957 16.2503 32.3692 14.8027 32.3692C13.3551 32.3692 12.1816 31.1957 12.1816 29.7481C12.1816 28.3005 13.3551 27.127 14.8027 27.127C16.2503 27.127 17.4239 28.3005 17.4239 29.7481Z"/>
  <path fill-rule="evenodd" сlip-rule="evenodd" d="M37.3507 29.7481C37.3507 31.1957 36.1772 32.3692 34.7295 32.3692C33.2819 32.3692 32.1084 31.1957 32.1084 29.7481C32.1084 28.3005 33.2819 27.127 34.7295 27.127C36.1772 27.127 37.3507 28.3005 37.3507 29.7481Z"/>

</symbol>
<symbol id="card-24" viewBox="0 0 24 24">
<path fill-rule="evenodd" clip-rule="evenodd" d="M13.25 14.25H14H18H18.75V15.75H18H14H13.25V14.25Z"/>
<path fill-rule="evenodd" clip-rule="evenodd" d="M21.5 5.5H2.5V18.5H21.5V5.5ZM1 4V20H23V4H1Z"/>
<path fill-rule="evenodd" clip-rule="evenodd" d="M22 9.25H1.5V7.75H22V9.25Z"/>

</symbol>
<symbol id="cart-24" viewBox="0 0 24 24">
<path fill-rule="evenodd" clip-rule="evenodd" d="M0.75 3.71483V2.25H5.15056L5.57036 4.47362H22.8621L18.7647 14.0233L6.36111 15.6659L4.11174 5.33968L3.80499 3.71483H0.75ZM20.5164 5.93845H5.87205L7.63194 14.0176L17.6173 12.6953L20.5164 5.93845Z"/>
<path d="M5.25 20C5.25 19.0335 6.0335 18.25 7 18.25C7.9665 18.25 8.75 19.0335 8.75 20C8.75 20.9665 7.9665 21.75 7 21.75C6.0335 21.75 5.25 20.9665 5.25 20Z"/>
<path d="M14.25 20C14.25 19.0335 15.0335 18.25 16 18.25C16.9665 18.25 17.75 19.0335 17.75 20C17.75 20.9665 16.9665 21.75 16 21.75C15.0335 21.75 14.25 20.9665 14.25 20Z"/>

</symbol>
<symbol id="cart-empty-16" viewBox="0 0 16 16"><path fill-rule="evenodd" clip-rule="evenodd" d="M.25 2.75v-1.5h3.27l.27 1.5h11.33l-2.85 6.93-8.35 1.16-1.5-7.2-.16-.89H.25zm12.63 1.5h-8.8l1.03 4.91 6.1-.84 1.67-4.07zM3.25 14a1.25 1.25 0 112.5 0 1.25 1.25 0 01-2.5 0zm6 0a1.25 1.25 0 112.5 0 1.25 1.25 0 01-2.5 0z"/>
</symbol>
<symbol id="chassis-32" viewBox="0 0 32 32"><path fill-rule="evenodd" clip-rule="evenodd" d="M7.5 1.5h-2v6h2v-6zM4 0v9h5V0H4zM7.5 24.5h-2v6h2v-6zM4 23v9h5v-9H4zM26.5 1.5h-2v6h2v-6zM23 0v9h5V0h-5zM26.5 24.5h-2v6h2v-6zM23 23v9h5v-9h-5z"/><path fill-rule="evenodd" clip-rule="evenodd" d="M23.5 5.25h-15v-1.5h15v1.5zM23.5 28.25h-15v-1.5h15v1.5z"/><path fill-rule="evenodd" clip-rule="evenodd" d="M15.25 27.5V4h1.5v23.5h-1.5z"/>
</symbol>
<symbol id="check-16" viewBox="0 0 16 16">
<path d="M5.74259 11.307L14.571 2.47852L15.6317 3.53932L5.74259 13.4283L0.353516 8.0392L1.41421 6.97851L5.74259 11.307Z"/>

</symbol>
<symbol id="check-24" viewBox="0 0 24 24">
<path fill-rule="evenodd" clip-rule="evenodd" d="M21.0294 7.03039L9.49908 18.5607L3.46875 12.5304L4.52941 11.4697L9.49908 16.4394L19.9688 5.96973L21.0294 7.03039Z"/>

</symbol>
<symbol id="check-circle-16" viewBox="0 0 16 16"><path fill-rule="evenodd" clip-rule="evenodd" d="M12.16 6.58L7 11 4.18 8.58l.98-1.14L7 9.02l4.18-3.58.98 1.14z"/><path fill-rule="evenodd" clip-rule="evenodd" d="M8 14.5a6.5 6.5 0 100-13 6.5 6.5 0 000 13zM8 16A8 8 0 108 0a8 8 0 000 16z"/>
</symbol>
<symbol id="check-mark-40" viewBox="0 0 40 40"><circle cx="20" cy="20" r="20" fill="#5DAD00"/><path fill-rule="evenodd" clip-rule="evenodd" d="M28.34 15.54l-1.77-1.77-8.83 8.83-4.32-4.33-1.77 1.77 6.1 6.1 10.6-10.6z" fill="#fff"/>
</symbol>
<symbol id="chevron-down-16" viewBox="0 0 17 16"><path fill-rule="evenodd" clip-rule="evenodd" d="M0 5.06L1.06 4l6.97 6.97L15 4l1.06 1.06-8.03 8.03L0 5.06z"/>
</symbol>
<symbol id="chevron-down-24" viewBox="0 0 24 24"><path d="M12.05 19.14L.5 7.6l1.1-1.1 10.45 10.46L22.5 6.5l1.1 1.1-11.55 11.54z"/>
</symbol>
<symbol id="chevron-left-16" viewBox="0 0 16 17"><path fill-rule="evenodd" clip-rule="evenodd" d="M10.94 0L12 1.06 5.03 8.03 12 15l-1.06 1.06L2.9 8.03 10.94 0z"/>
</symbol>
<symbol id="chevron-right-16" viewBox="0 0 16 16">
<path fill-rule="evenodd" clip-rule="evenodd" d="M5.06066 16.0605L4 14.9999L10.9697 8.03022L4 1.06055L5.06066 -0.000112521L13.091 8.03022L5.06066 16.0605Z"/>

</symbol>
<symbol id="chevron-up-16" viewBox="0 0 16 16">
<path fill-rule="evenodd" clip-rule="evenodd" d="M16.0605 10.9393L14.9999 12L8.03022 5.03033L1.06055 12L-0.000112441 10.9393L8.03022 2.90901L16.0605 10.9393Z"/>

</symbol>
<symbol id="chevron-up-24" viewBox="0 0 24 24"><path fill-rule="evenodd" clip-rule="evenodd" d="M12.05 4.86L23.6 16.4l-1.1 1.1L12.05 7.04 1.59 17.5.5 16.4 12.06 4.87z"/>
</symbol>
<symbol id="clip-16" viewBox="0 0 16 16">
    <path fill-rule="evenodd" clip-rule="evenodd" d="M9.15165 1.70923C10.4209 0.440023 12.4786 0.440023 13.7478 1.70923C15.017 2.97843 15.017 5.03622 13.7478 6.30542L7.91421 12.1391C7.13317 12.9201 5.86684 12.9201 5.08579 12.1391C4.30474 11.358 4.30474 10.0917 5.08579 9.31063L8.7981 5.59831L9.85876 6.65897L6.14645 10.3713C5.95118 10.5665 5.95118 10.8831 6.14645 11.0784C6.34171 11.2737 6.65829 11.2737 6.85355 11.0784L12.6872 5.24476C13.3706 4.56134 13.3706 3.4533 12.6872 2.76989C12.0038 2.08647 10.8957 2.08647 10.2123 2.76989L4.37868 8.60352C3.20711 9.77509 3.20711 11.6746 4.37868 12.8462C5.55025 14.0177 7.44975 14.0177 8.62132 12.8462L12.3336 9.13385L13.3943 10.1945L9.68198 13.9068C7.92462 15.6642 5.07538 15.6642 3.31802 13.9068C1.56066 12.1495 1.56066 9.30022 3.31802 7.54286L9.15165 1.70923Z"/>

</symbol>
<symbol id="compare-24" viewBox="0 0 24 24">
<path fill-rule="evenodd" clip-rule="evenodd" d="M11.25 22.7498V1.23438H12.75V22.7498H11.25Z"/>
<path fill-rule="evenodd" clip-rule="evenodd" d="M1.25 3C1.25 2.0335 2.0335 1.25 3 1.25H10V2.75H3C2.86193 2.75 2.75 2.86193 2.75 3V15C2.75 15.1381 2.86193 15.25 3 15.25H10V16.75H3C2.0335 16.75 1.25 15.9665 1.25 15V3Z"/>
<path fill-rule="evenodd" clip-rule="evenodd" d="M22.75 21C22.75 21.9665 21.9665 22.75 21 22.75L14 22.75L14 21.25L21 21.25C21.1381 21.25 21.25 21.1381 21.25 21L21.25 9C21.25 8.86193 21.1381 8.75 21 8.75L14 8.75L14 7.25L21 7.25C21.9665 7.25 22.75 8.0335 22.75 9L22.75 21Z"/>

</symbol>
<symbol id="corp-events-32" viewBox="0 0 32 32">
<path fill-rule="evenodd" clip-rule="evenodd" d="M6.13081 20.9123C7.88629 19.8216 9.93585 19.2451 12.0269 19.25C14.1179 19.255 16.1644 19.8413 17.9142 20.9404C19.6644 22.0397 21.0433 23.6055 21.8751 25.4492L20.5078 26.066C19.801 24.4994 18.6241 23.1576 17.1164 22.2106C15.6084 21.2634 13.8378 20.7543 12.0233 20.75C10.2088 20.7457 8.43549 21.2463 6.92243 22.1864C5.40969 23.1263 4.22562 24.4626 3.51056 26.0259L2.14648 25.4019C2.98791 23.5624 4.375 22.0032 6.13081 20.9123Z" fill="black"/>
<path fill-rule="evenodd" clip-rule="evenodd" d="M12 15.5C13.933 15.5 15.5 13.933 15.5 12C15.5 10.067 13.933 8.5 12 8.5C10.067 8.5 8.5 10.067 8.5 12C8.5 13.933 10.067 15.5 12 15.5ZM12 17C14.7614 17 17 14.7614 17 12C17 9.23858 14.7614 7 12 7C9.23858 7 7 9.23858 7 12C7 14.7614 9.23858 17 12 17Z" fill="black"/>
<path fill-rule="evenodd" clip-rule="evenodd" d="M19.3195 18.0924C20.4213 17.4078 21.7063 17.0467 23.0162 17.0498C24.3261 17.0529 25.6093 17.4202 26.7075 18.11C27.8061 18.8 28.6738 19.7843 29.1979 20.9459L27.8306 21.5628C27.4315 20.6782 26.7658 19.918 25.9096 19.3802C25.0532 18.8423 24.046 18.5523 23.0126 18.5498C21.9793 18.5474 20.9705 18.8326 20.1112 19.3665C19.2521 19.9002 18.5823 20.6574 18.1785 21.5401L16.8145 20.9162C17.3446 19.7572 18.2174 18.7771 19.3195 18.0924Z" fill="black"/>
<path fill-rule="evenodd" clip-rule="evenodd" d="M23 14.5C23.8284 14.5 24.5 13.8284 24.5 13C24.5 12.1716 23.8284 11.5 23 11.5C22.1716 11.5 21.5 12.1716 21.5 13C21.5 13.8284 22.1716 14.5 23 14.5ZM23 16C24.6569 16 26 14.6569 26 13C26 11.3431 24.6569 10 23 10C21.3431 10 20 11.3431 20 13C20 14.6569 21.3431 16 23 16Z" fill="black"/>

</symbol>
<symbol id="cross-16" viewBox="0 0 16 16">
<path fill-rule="evenodd" clip-rule="evenodd" d="M7.99769 6.94091L4.00231 2.82031L2.94164 3.88098L6.93713 8.00156L2.93896 11.9993L3.99966 13.0599L7.99985 9.05997L12 13.06L13.0607 11.9993L9.06057 7.99943L13.0608 3.99926L12.0002 2.93857L7.99769 6.94091Z"/>

</symbol>
<symbol id="cross-24" viewBox="0 0 24 24"><path fill-rule="evenodd" clip-rule="evenodd" d="M10.94 12L3.47 4.53l1.06-1.06L12 10.94l7.47-7.47 1.06 1.06L13.06 12l7.47 7.47-1.06 1.06L12 13.06l-7.47 7.47-1.06-1.06L10.94 12z"/>
</symbol>
<symbol id="delivery-24" viewBox="0 0 24 24">
<path fill-rule="evenodd" clip-rule="evenodd" d="M7.5 8.5H0V7H7.5V8.5Z"/>
<path fill-rule="evenodd" clip-rule="evenodd" d="M7.5 12.5L2 12.5L2 11L7.5 11L7.5 12.5Z"/>
<path fill-rule="evenodd" clip-rule="evenodd" d="M7.5 16.5L4 16.5L4 15L7.5 15L7.5 16.5Z"/>
<path fill-rule="evenodd" clip-rule="evenodd" d="M9.25 5.25H23.75V19.75H9.25V5.25ZM10.75 6.75V18.25H22.25V6.75H10.75Z"/>
<path fill-rule="evenodd" clip-rule="evenodd" d="M12.25 6H13.75V9.25H19.25V6H20.75V10.75H12.25V6Z"/>

</symbol>
<symbol id="dopolnitelnie-funktsii-32" viewBox="0 0 32 32">
<path fill-rule="evenodd" clip-rule="evenodd" d="M15.25 15.25V12H16.75V15.25H20V16.75H16.75V20H15.25V16.75H12V15.25H15.25Z"/>
<path fill-rule="evenodd" clip-rule="evenodd" d="M9.73892 5.76071L6.5955 4.29988C4.88528 5.67788 3.48381 7.4236 2.51117 9.41694L4.63042 12.1508C4.37465 12.9065 4.19211 13.696 4.09126 14.5108L1 16.0522C1.00982 18.337 1.53046 20.5012 2.4536 22.4365L5.90056 22.4839C6.34173 23.1697 6.85083 23.8075 7.41836 24.3881L6.69848 27.7551C8.40325 29.1043 10.4081 30.091 12.5965 30.5987L14.7784 27.9386C15.18 27.9792 15.5875 28 15.9998 28C16.4121 28 16.8195 27.9792 17.2211 27.9386L19.403 30.5987C21.5915 30.091 23.5963 29.1044 25.3011 27.7553L24.5812 24.3881C25.1487 23.8075 25.6578 23.1697 26.099 22.4839L29.5462 22.4365C30.4693 20.5012 30.99 18.3371 30.9998 16.0524L27.9083 14.5108C27.8074 13.696 27.6249 12.9065 27.3691 12.1508L29.4885 9.41673C28.5159 7.42344 27.1144 5.67776 25.4042 4.2998L22.2606 5.76072C21.5794 5.34331 20.8534 4.99198 20.0914 4.71562L19.2729 1.34447C18.2194 1.11 17.1241 0.986328 15.9999 0.986328C14.8756 0.986328 13.7802 1.11002 12.7266 1.34453L11.9082 4.71561C11.1462 4.99197 10.4201 5.3433 9.73892 5.76071ZM13.9557 2.63989L13.176 5.85142L12.4196 6.12574C11.7536 6.36727 11.1187 6.67447 10.5226 7.03969L9.8365 7.46013L6.84121 6.06813C5.83774 6.99526 4.97546 8.0724 4.29004 9.26337L6.30954 11.8685L6.05125 12.6316C5.82775 13.292 5.66814 13.9822 5.5799 14.695L5.48101 15.4939L2.53459 16.9631C2.63453 18.3631 2.94762 19.7024 3.44114 20.9499L6.72637 20.9952L7.16204 21.6723C7.54815 22.2725 7.99389 22.831 8.49096 23.3395L9.05344 23.9149L8.36742 27.1235C9.48579 27.8915 10.7249 28.495 12.05 28.8998L14.1289 26.3653L14.9293 26.4462C15.2808 26.4818 15.6379 26.5 15.9998 26.5C16.3616 26.5 16.7187 26.4818 17.0703 26.4462L17.8707 26.3653L19.9496 28.8999C21.2747 28.4951 22.5138 27.8917 23.6321 27.1236L22.9461 23.9148L23.5086 23.3395C24.0056 22.831 24.4514 22.2725 24.8375 21.6724L25.2731 20.9952L28.5587 20.9499C29.0522 19.7024 29.3653 18.3632 29.4652 16.9633L26.5185 15.4939L26.4196 14.695C26.3314 13.9822 26.1718 13.292 25.9483 12.6317L25.69 11.8685L27.7096 9.26318C27.0242 8.07225 26.162 6.99514 25.1585 6.06805L22.163 7.46013L21.4769 7.0397C20.8809 6.67447 20.2459 6.36728 19.58 6.12575L18.8235 5.85142L18.0439 2.63985C17.378 2.53881 16.6955 2.48633 15.9999 2.48633C15.3042 2.48633 14.6216 2.53883 13.9557 2.63989Z"/>

</symbol>
<symbol id="download-16" viewBox="0 0 16 16">
<path d="M7.25003 6.76192V0.25L8.75003 0.25V6.76192L10.8286 4.6877L11.8888 5.7459L8.00003 9.62685L4.11122 5.7459L5.17141 4.6877L7.25003 6.76192Z"/>
<path d="M0.25 15.7501L0.25 10.2501H1.75L1.75 14.2501H14.25V10.2501H15.75V15.7501H0.25Z"/>

</symbol>
<symbol id="dvigatel-32" viewBox="0 0 32 32">
<path fill-rule="evenodd" clip-rule="evenodd" d="M11.7307 6.25H25.3107L27.75 8.68934V19.8107L20.8107 26.75H11.7307L6.79316 22.6786H4.25V10.3214H6.79316L11.7307 6.25ZM12.2693 7.75L7.33184 11.8214H5.75V21.1786H7.33184L12.2693 25.25H20.1893L26.25 19.1893V9.31066L24.6893 7.75H12.2693Z"/>
<path fill-rule="evenodd" clip-rule="evenodd" d="M0.25 21V12H1.75V21H0.25Z"/>
<path fill-rule="evenodd" clip-rule="evenodd" d="M15 2.25L23 2.25L23 3.75L15 3.75L15 2.25Z"/>
<path fill-rule="evenodd" clip-rule="evenodd" d="M31.75 12L31.75 21L30.25 21L30.25 12L31.75 12Z"/>

</symbol>
<symbol id="engine-32" viewBox="0 0 32 32"><path fill-rule="evenodd" clip-rule="evenodd" d="M11.73 6.25h13.58l2.44 2.44V19.8l-6.94 6.94h-9.08L6.8 22.68H4.25V10.32h2.54l4.94-4.07zm.54 1.5l-4.94 4.07H5.75v9.36h1.58l4.94 4.07h7.92l6.06-6.06V9.3l-1.56-1.56H12.27zM.25 21v-9h1.5v9H.25zM15 2.25h8v1.5h-8v-1.5zM31.75 12v9h-1.5v-9h1.5z"/>
</symbol>
<symbol id="events-32" viewBox="0 0 32 32">
<path fill-rule="evenodd" clip-rule="evenodd" d="M28.25 15.2825L28.25 3.75L16.7175 3.75L3.75 3.75L3.75 15.2825L3.75 16.7175L3.75 28.25L15.2825 28.25L16.7175 28.25L28.25 28.25L28.25 15.2825ZM26.8149 15.2825L26.8149 5.18506L16.7175 5.18507L16.7175 8.61364L15.7818 8.61364L15.7818 8.61377L15.5318 8.61377C15.319 8.61377 15.1083 8.65568 14.9118 8.7371C14.7152 8.81852 14.5366 8.93786 14.3862 9.0883C14.2357 9.23874 14.1164 9.41734 14.035 9.61391C13.9535 9.81047 13.9116 10.0211 13.9116 10.2339C13.9116 10.4467 13.9535 10.6573 14.035 10.8539C14.1164 11.0505 14.2357 11.2291 14.3862 11.3795C14.5366 11.53 14.7152 11.6493 14.9118 11.7307C15.1018 11.8094 15.3051 11.8512 15.5107 11.8539L16.7175 11.8539L16.7175 15.2825L18.7123 15.2825C18.7382 14.9667 18.813 14.6563 18.9347 14.3626C19.0882 13.9919 19.3133 13.6551 19.597 13.3714C19.8807 13.0877 20.2175 12.8627 20.5881 12.7091C20.9588 12.5556 21.3561 12.4766 21.7573 12.4766C22.1585 12.4766 22.5558 12.5556 22.9265 12.7091C23.2971 12.8627 23.634 13.0877 23.9177 13.3714C24.2014 13.6551 24.4264 13.9919 24.5799 14.3626C24.7016 14.6563 24.7765 14.9667 24.8023 15.2825L26.8149 15.2825ZM23.3766 15.4804C23.3704 15.2852 23.329 15.0925 23.2541 14.9118C23.1727 14.7152 23.0534 14.5366 22.9029 14.3862C22.7525 14.2357 22.5739 14.1164 22.3773 14.035C22.1807 13.9535 21.9701 13.9116 21.7573 13.9116C21.5445 13.9116 21.3339 13.9535 21.1373 14.035C20.9407 14.1164 20.7621 14.2357 20.6117 14.3862C20.4613 14.5366 20.3419 14.7152 20.2605 14.9118C20.1791 15.1083 20.1372 15.319 20.1372 15.5318L20.1372 15.7818L20.1364 15.7818L20.1364 16.7175L16.7175 16.7175L16.7175 18.7113C17.0333 18.7372 17.3437 18.812 17.6374 18.9337C18.0081 19.0872 18.3449 19.3123 18.6286 19.596C18.9123 19.8797 19.1373 20.2165 19.2909 20.5872C19.4444 20.9578 19.5234 21.3551 19.5234 21.7563L19.5234 21.7612L19.5234 21.7661C19.5234 22.1673 19.4444 22.5646 19.2909 22.9353C19.1373 23.3059 18.9123 23.6427 18.6286 23.9264C18.3449 24.2101 18.0081 24.4352 17.6374 24.5887C17.3437 24.7104 17.0333 24.7852 16.7175 24.8111L16.7175 26.8149L26.8149 26.8149L26.8149 16.7175L23.3766 16.7175L23.3766 15.4804ZM15.2825 23.3864L15.2825 23.3766L16.2182 23.3766L16.2182 23.3765L16.4682 23.3765C16.681 23.3765 16.8917 23.3346 17.0882 23.2531C17.2848 23.1717 17.4634 23.0524 17.6138 22.9019C17.7643 22.7515 17.8836 22.5729 17.965 22.3763C18.0458 22.1813 18.0877 21.9723 18.0884 21.7612C18.0877 21.5501 18.0458 21.3412 17.965 21.1461C17.8836 20.9495 17.7643 20.7709 17.6138 20.6205C17.4634 20.47 17.2848 20.3507 17.0882 20.2693C16.8982 20.1906 16.695 20.1488 16.4895 20.1461L15.2825 20.1461L15.2825 20.1364L15.2825 16.7175L13.2877 16.7175C13.2618 17.0333 13.187 17.3437 13.0653 17.6374C12.9118 18.0081 12.6867 18.3449 12.403 18.6286C12.1193 18.9123 11.7825 19.1373 11.4119 19.2909C11.0412 19.4444 10.6439 19.5234 10.2427 19.5234L10.2388 19.5234L10.2349 19.5234C9.83367 19.5234 9.43638 19.4444 9.06571 19.2909C8.69503 19.1373 8.35823 18.9123 8.07453 18.6286C7.79083 18.3449 7.56579 18.0081 7.41225 17.6374C7.2906 17.3437 7.21573 17.0333 7.18987 16.7175L5.18506 16.7175L5.18506 26.8149L15.2825 26.8149L15.2825 23.3864ZM15.2825 15.2825L15.2825 13.2789C14.9667 13.2531 14.6563 13.1782 14.3626 13.0565C13.9919 12.903 13.6551 12.678 13.3714 12.3943C13.0877 12.1106 12.8627 11.7738 12.7091 11.4031C12.5556 11.0324 12.4766 10.6351 12.4766 10.2339C12.4766 9.83269 12.5556 9.43541 12.7091 9.06473C12.8627 8.69406 13.0877 8.35726 13.3714 8.07356C13.6551 7.78986 13.9919 7.56481 14.3626 7.41127C14.6563 7.28963 14.9667 7.21475 15.2825 7.1889L15.2825 5.18507L5.18506 5.18506L5.18506 15.2825L8.61363 15.2825L8.62337 15.2825L8.62337 16.5195C8.62956 16.7148 8.67102 16.9075 8.74589 17.0882C8.82731 17.2848 8.94664 17.4634 9.09709 17.6138C9.24753 17.7643 9.42613 17.8836 9.6227 17.965C9.81806 18.046 10.0274 18.0879 10.2388 18.0884C10.4502 18.0879 10.6595 18.046 10.8549 17.965C11.0514 17.8836 11.23 17.7643 11.3805 17.6138C11.5309 17.4634 11.6503 17.2848 11.7317 17.0882C11.8054 16.9102 11.8468 16.7206 11.8539 16.5284L11.8539 15.2825L15.2825 15.2825Z" fill="black"/>

</symbol>
<symbol id="eye-16" viewBox="0 0 16 16">
    <path d="M10 8C10 9.10457 9.10457 10 8 10C6.89543 10 6 9.10457 6 8C6 6.89543 6.89543 6 8 6C9.10457 6 10 6.89543 10 8Z"/>
    <path fill-rule="evenodd" clip-rule="evenodd" d="M1.96826 8C2.00245 8.03918 2.03894 8.08042 2.07767 8.12349C2.3949 8.47625 2.85831 8.9469 3.44014 9.41627C4.61687 10.3656 6.20292 11.25 8.00047 11.25C9.79803 11.25 11.3841 10.3656 12.5608 9.41627C13.1426 8.9469 13.606 8.47625 13.9233 8.12349C13.962 8.08042 13.9985 8.03918 14.0327 8C13.9985 7.96082 13.962 7.91958 13.9233 7.87651C13.606 7.52375 13.1426 7.0531 12.5608 6.58373C11.3841 5.63443 9.79803 4.75 8.00047 4.75C6.20292 4.75 4.61687 5.63443 3.44014 6.58373C2.85831 7.0531 2.3949 7.52375 2.07767 7.87651C2.03894 7.91958 2.00245 7.96082 1.96826 8ZM15.0005 8C15.6065 7.55812 15.6063 7.55791 15.6062 7.55768L15.6048 7.55581L15.602 7.55203L15.5932 7.54021C15.586 7.53045 15.5758 7.51699 15.5629 7.50006C15.5371 7.46621 15.5001 7.41848 15.4522 7.35886C15.3566 7.23968 15.2176 7.07256 15.0386 6.87349C14.6814 6.47625 14.1604 5.9469 13.5026 5.41627C12.2002 4.36557 10.2863 3.25 8.00047 3.25C5.71469 3.25 3.80075 4.36557 2.49831 5.41627C1.84055 5.9469 1.31959 6.47625 0.962343 6.87349C0.783316 7.07256 0.644311 7.23968 0.548719 7.35886C0.500896 7.41848 0.463856 7.46621 0.438024 7.50006C0.425106 7.51699 0.414983 7.53045 0.407708 7.54021L0.398935 7.55203L0.396162 7.55581L0.39518 7.55715C0.395014 7.55737 0.394469 7.55812 1.00047 8L0.394469 7.55812L0.0722656 8L0.394469 8.44188L1.00047 8C0.394469 8.44188 0.394303 8.44165 0.394469 8.44188L0.396162 8.44419L0.398935 8.44797L0.407708 8.45979C0.414983 8.46955 0.425106 8.48301 0.438024 8.49994C0.463856 8.53379 0.500896 8.58152 0.548719 8.64114C0.644311 8.76032 0.783316 8.92744 0.962343 9.12651C1.31959 9.52375 1.84055 10.0531 2.49831 10.5837C3.80075 11.6344 5.71469 12.75 8.00047 12.75C10.2863 12.75 12.2002 11.6344 13.5026 10.5837C14.1604 10.0531 14.6814 9.52375 15.0386 9.12651C15.2176 8.92744 15.3566 8.76032 15.4522 8.64114C15.5001 8.58152 15.5371 8.53379 15.5629 8.49994C15.5758 8.48301 15.586 8.46955 15.5932 8.45979L15.602 8.44797L15.6048 8.44419L15.6058 8.44285C15.6059 8.44262 15.6065 8.44188 15.0005 8ZM15.0005 8L15.6065 8.44188L15.9287 8L15.6062 7.55768L15.0005 8ZM1.60588 7.5573C1.60587 7.55728 1.60585 7.55726 1.60588 7.5573V7.5573Z"/>

</symbol>
<symbol id="fb-32" viewBox="0 0 32 32"><path d="M22.08 18.62l.73-4.7h-4.54v-3.05c0-1.29.63-2.55 2.67-2.55H23v-4S21.13 4 19.34 4c-3.74 0-6.18 2.25-6.18 6.33v3.59H9v4.7h4.16V30h5.1V18.62h3.82z"/>
</symbol>
<symbol id="filter-24" viewBox="0 0 24 24">
<path fill-rule="evenodd" clip-rule="evenodd" d="M21 9.5H3V8H21V9.5Z"/>
<path fill-rule="evenodd" clip-rule="evenodd" d="M18 13.5L6 13.5V12L18 12V13.5Z"/>
<path fill-rule="evenodd" clip-rule="evenodd" d="M14 17.5H10V16H14V17.5Z"/>

</symbol>
<symbol id="frown-48" viewBox="0 0 48 48"><path fill-rule="evenodd" clip-rule="evenodd" d="M24 5C13.507 5 5 13.507 5 24s8.507 19 19 19 19-8.507 19-19S34.493 5 24 5zM3 24C3 12.402 12.402 3 24 3s21 9.402 21 21-9.402 21-21 21S3 35.598 3 24z"/><path fill-rule="evenodd" clip-rule="evenodd" d="M17.536 29.191C19.02 28.111 21.223 27 23.999 27c2.775 0 4.978 1.11 6.463 2.191.744.542 1.32 1.083 1.712 1.492a10.274 10.274 0 01.608.695l.01.014.004.005.002.002-.8.601-.799.6v.001l-.001-.002-.018-.023a8.415 8.415 0 00-.45-.509c-.327-.341-.814-.8-1.444-1.258C28.02 29.889 26.223 29 23.999 29c-2.225 0-4.022.89-5.287 1.809-.63.458-1.117.917-1.444 1.258a8.307 8.307 0 00-.45.509l-.018.023-.002.002-.8-.601-.799-.6v-.001l.002-.002.004-.005.01-.014a3.723 3.723 0 01.156-.193c.105-.124.256-.297.453-.502.391-.409.967-.95 1.712-1.492zm-.738 3.41zM29.75 19c0-.69.56-1.25 1.25-1.25h.02a1.25 1.25 0 110 2.5H31c-.69 0-1.25-.56-1.25-1.25zM15.75 19c0-.69.56-1.25 1.25-1.25h.02a1.25 1.25 0 110 2.5H17c-.69 0-1.25-.56-1.25-1.25z"/>
</symbol>
<symbol id="gabariti-32" viewBox="0 0 32 32">
<path fill-rule="evenodd" clip-rule="evenodd" d="M7.47422 11.4668L12.0677 16.0006L7.47422 20.5344L6.42052 19.4668L9.17247 16.7506H0V15.2506H9.17247L6.42052 12.5344L7.47422 11.4668Z"/>
<path fill-rule="evenodd" clip-rule="evenodd" d="M24.5258 20.5332L19.9323 15.9994L24.5258 11.4656L25.5795 12.5332L22.8275 15.2494L32 15.2494L32 16.7494L22.8275 16.7494L25.5795 19.4656L24.5258 20.5332Z"/>
<path fill-rule="evenodd" clip-rule="evenodd" d="M20.5332 7.47422L15.9994 12.0677L11.4656 7.47422L12.5332 6.42052L15.2494 9.17247L15.2494 6.30085e-08L16.7494 4.51212e-08L16.7494 9.17247L19.4656 6.42052L20.5332 7.47422Z"/>
<path fill-rule="evenodd" clip-rule="evenodd" d="M11.4668 24.5258L16.0006 19.9323L20.5344 24.5258L19.4668 25.5795L16.7506 22.8275L16.7506 32L15.2506 32L15.2506 22.8275L12.5344 25.5795L11.4668 24.5258Z"/>

</symbol>
<symbol id="garage-16" viewBox="0 0 16 16">
<path fill-rule="evenodd" clip-rule="evenodd" d="M8.73501 1C5.03381 1 2.55379 3.10351 1.53232 5.86186C0.524722 8.58273 0.933047 11.9297 2.88109 14.5296L3.23359 15L14.0891 10.8587L14.226 10.615C15.2766 8.74458 15.222 6.35886 14.278 4.44902C13.32 2.5109 11.4113 1 8.73501 1ZM12.9902 9.62956L3.79946 13.1357C3.49968 12.6671 3.25533 12.1756 3.06507 11.6718L6.11451 10.3797C7.25841 9.89507 8.00009 8.78308 8.00009 7.5527V5.6136H3.33998C4.29219 3.81467 6.09932 2.53787 8.73501 2.53787C10.7364 2.53787 12.146 3.63844 12.8804 5.12424C13.5864 6.55255 13.6372 8.28038 12.9902 9.62956ZM2.76108 7.15146C2.52792 8.11135 2.49111 9.14463 2.66109 10.1698L5.50174 8.96622C6.0737 8.72389 6.44454 8.16789 6.44454 7.5527V7.15146H2.76108Z"/>

</symbol>
<symbol id="garage-24" viewBox="0 0 24 24">
<path fill-rule="evenodd" clip-rule="evenodd" d="M2.67201 8.93014C4.14966 4.93996 7.72647 1.89844 13.101 1.89844C16.944 1.89844 19.6783 4.06032 21.0568 6.84922C22.4217 9.61037 22.4923 13.0482 20.9887 15.7251L20.8542 15.9644L4.98806 22.0172L4.64018 21.5529C1.7992 17.7614 1.20801 12.8835 2.67201 8.93014ZM13.101 3.40524C8.99823 3.40524 6.15204 5.40325 4.65487 8.2317L4.34409 8.81883H11.5986V11.3275C11.5986 13.0104 10.584 14.5346 9.01414 15.1997L4.08602 17.2878L4.22183 17.6474C4.51683 18.4286 4.89574 19.1908 5.36066 19.9176L5.53606 20.1918L19.7754 14.7596L19.8444 14.6157C20.873 12.4707 20.7858 9.74949 19.6776 7.50755C18.5171 5.15979 16.2737 3.40524 13.101 3.40524ZM10.0652 10.3256H3.82558L3.75135 10.6312C3.38849 12.1251 3.33197 13.7294 3.59546 15.3186L3.67853 15.8196L8.4071 13.8161C9.41102 13.3907 10.0652 12.4129 10.0652 11.3275V10.3256Z"/>

</symbol>
<symbol id="gear-64" viewBox="0 0 58 57">
  <path fill-rule="evenodd" сlip-rule="evenodd" d="M22.544 0.688637C24.5696 0.237785 26.6754 0 28.8367 0C30.9979 0 33.1035 0.237742 35.129 0.688515L35.1532 0.693904L36.722 7.1559L37.3927 7.42383C38.3782 7.81747 39.3301 8.27708 40.2431 8.7972L40.8709 9.15484L46.8968 6.35445L46.9161 6.37001C50.2039 9.01906 52.8981 12.375 54.768 16.207L54.7789 16.2293L50.7163 21.47L50.926 22.1621C51.2315 23.1706 51.4698 24.2083 51.6358 25.2699L51.7475 25.984L57.6735 28.939L57.6734 28.9638C57.6545 33.356 56.6536 37.5165 54.8789 41.237L54.8682 41.2593L48.2604 41.3503L47.85 41.9456C47.2401 42.8303 46.5701 43.6703 45.8458 44.4597L45.3573 44.9922L46.7373 51.4467L46.7179 51.4621C43.4406 54.0558 39.5863 55.9525 35.3791 56.9285L35.355 56.9341L31.1725 51.835L30.4517 51.8849C29.9181 51.9218 29.3795 51.9405 28.8365 51.9405C28.2935 51.9405 27.7549 51.9218 27.2212 51.8849L26.5005 51.835L22.3181 56.934L22.294 56.9284C18.0867 55.9523 14.2325 54.0555 10.9552 51.4618L10.9357 51.4464L12.3157 44.9923L11.8271 44.4598C11.1029 43.6703 10.4328 42.8303 9.82294 41.9456L9.41255 41.3503L2.80527 41.2593L2.79461 41.237C1.01988 37.5164 0.0189843 33.3558 0.000106335 28.9635L0 28.9387L5.92547 25.984L6.03711 25.2699C6.20308 24.2083 6.44144 23.1706 6.74697 22.1621L6.95664 21.47L2.89441 16.2297L2.90529 16.2075C4.77514 12.3753 7.4694 9.01928 10.7572 6.37016L10.7765 6.3546L16.802 9.15483L17.4298 8.79719C18.3428 8.27706 19.2948 7.81745 20.2802 7.42381L20.951 7.15588L22.5197 0.694026L22.544 0.688637ZM28.8367 2.9594C27.8509 2.9594 26.8787 3.01439 25.923 3.12135L24.9494 3.23031L23.4491 9.41001L21.9768 9.94395C20.7008 10.4067 19.4843 10.9953 18.3423 11.6951L17.0069 12.5134L11.2433 9.83492L10.5512 10.5262C9.17494 11.9005 7.95293 13.4286 6.91315 15.082L6.3918 15.911L10.2778 20.9239L9.77509 22.4093C9.34687 23.6745 9.04105 24.9968 8.87198 26.3627L8.67951 27.9176L3.00998 30.7447L3.11729 31.7156C3.33531 33.688 3.77476 35.592 4.40985 37.4031L4.73356 38.3262L11.0554 38.4132L11.9033 39.7313C12.6431 40.8812 13.4972 41.9513 14.4496 42.9256L15.5444 44.0454L14.2243 50.2196L15.0507 50.7409C16.6876 51.7736 18.4477 52.6273 20.3034 53.2753L21.227 53.5977L25.2275 48.7206L26.7854 48.8781C27.4589 48.9461 28.1432 48.9811 28.8365 48.9811C29.5298 48.9811 30.214 48.9461 30.8876 48.8781L32.4455 48.7206L36.4461 53.5979L37.3696 53.2754C39.2254 52.6275 40.9854 51.7738 42.6223 50.7412L43.4487 50.2199L42.1286 44.0454L43.2234 42.9255C44.1758 41.9513 45.0298 40.8812 45.7696 39.7313L46.6176 38.4132L52.9399 38.3262L53.2636 37.4031C53.8987 35.592 54.3381 33.6881 54.5562 31.7158L54.6635 30.745L48.9934 27.9176L48.8009 26.3627C48.6319 24.9968 48.3261 23.6746 47.8979 22.4093L47.3951 20.924L51.2815 15.9106L50.7601 15.0816C49.7203 13.4283 48.4983 11.9003 47.1222 10.526L46.43 9.83477L40.6661 12.5134L39.3306 11.6951C38.1886 10.9953 36.9721 10.4067 35.6961 9.94397L34.2239 9.41002L32.7236 3.23023L31.7499 3.12129C30.7944 3.01437 29.8224 2.9594 28.8367 2.9594Z"/>
  <path fill-rule="evenodd" сlip-rule="evenodd" d="M20.6376 28.8621C20.6376 24.3339 24.3084 20.6631 28.8366 20.6631C33.3647 20.6631 37.0356 24.3339 37.0356 28.8621C37.0356 33.3903 33.3647 37.0611 28.8366 37.0611C24.3084 37.0611 20.6376 33.3903 20.6376 28.8621ZM28.8366 23.6225C25.9428 23.6225 23.597 25.9683 23.597 28.8621C23.597 31.7558 25.9428 34.1017 28.8366 34.1017C31.7303 34.1017 34.0762 31.7558 34.0762 28.8621C34.0762 25.9683 31.7303 23.6225 28.8366 23.6225Z"/>

</symbol>
<symbol id="generator-24" viewBox="0 0 24 24"><path fill-rule="evenodd" clip-rule="evenodd" d="M3.676 3.392c.572-.273 1.248-.115 1.806.155.396.191 1.054.373 1.82.493.756.119 1.554.167 2.205.124H9.521l.033-.003.128-.007c.111-.005.275-.013.487-.02.425-.015 1.044-.03 1.83-.03a52.517 52.517 0 012.317.05l.128.007.033.002h.01l.003.001c.652.043 1.45-.005 2.206-.124.766-.12 1.424-.302 1.82-.493.559-.27 1.235-.428 1.807-.155.312.149.544.408.659.737.108.312.097.64.029.944-.09.398-.128.66-.125.957.002.308.05.688.172 1.318l.002.009.01.045.034.171c.028.15.068.367.115.648.093.56.213 1.373.32 2.39l-1.491.158a40.042 40.042 0 00-.309-2.303 24.803 24.803 0 00-.139-.764l-.008-.037-.001-.008v-.002l-.002-.007-.002-.008c-.128-.658-.197-1.146-.201-1.596-.005-.455.058-.838.157-1.28a1.614 1.614 0 00-.376.134c-.586.283-1.41.494-2.239.624-.839.131-1.75.19-2.536.139h-.008l-.028-.002a51.045 51.045 0 00-2.358-.055 51.003 51.003 0 00-2.24.048l-.116.007-.028.001h-.008c-.786.053-1.697-.006-2.536-.138-.83-.13-1.653-.34-2.24-.624H4.83a1.6 1.6 0 00-.374-.134c.099.442.162.825.158 1.28-.004.45-.073.938-.201 1.596l-.002.008-.001.007v.002l-.002.008-.008.037-.03.154c-.027.137-.065.343-.11.61a40.184 40.184 0 00-.309 2.303M2.94 7.347c.123-.63.17-1.008.173-1.316.003-.298-.036-.559-.126-.958a1.72 1.72 0 01.03-.945c.115-.329.347-.587.659-.736m-.735 3.955l-.002.01-.01.045c-.008.04-.02.097-.033.171-.03.15-.07.367-.116.647a41.676 41.676 0 00-.322 2.39 40.749 40.749 0 00-.19 5.387l1.5-.044a39.252 39.252 0 01.182-5.184m17.592-.159c.22 2.069.23 4.007.19 5.387l-1.5-.044a39.239 39.239 0 00-.182-5.184l1.492-.159zm-2.916 8.14H5.373v-1.5h13.253v1.5zm1.697-15.358c-.572-.273-1.247-.115-1.805.155-.396.191-1.054.373-1.82.493-.756.119-1.554.167-2.205.124H14.479l-.033-.003-.128-.007a52.476 52.476 0 00-2.316-.05 52.517 52.517 0 00-2.318.05 17.03 17.03 0 00-.128.007l-.033.002h-.01l-.003.001c-.652.043-1.45-.005-2.206-.124-.766-.12-1.424-.302-1.82-.493-.559-.27-1.236-.428-1.808-.155a1.266 1.266 0 00-.658.737c-.108.312-.097.64-.029.944.09.398.128.66.126.957-.003.308-.052.688-.174 1.317l-.002.01-.01.045c-.008.04-.02.097-.033.171-.03.15-.068.367-.115.648a41.497 41.497 0 00-.32 2.39l1.491.158c.105-.984.22-1.767.309-2.303.044-.267.082-.473.109-.61l.029-.154.008-.037.001-.008v-.002l.002-.007.002-.008c.128-.658.198-1.146.202-1.596.005-.455-.058-.838-.157-1.28.093.019.22.059.376.134.586.283 1.41.494 2.239.624.839.131 1.75.19 2.536.139h.008l.028-.002.116-.007.464-.02c.409-.014 1.01-.028 1.777-.028a51.003 51.003 0 012.24.048l.117.007.028.001h.008c.786.053 1.697-.006 2.536-.138.83-.13 1.653-.34 2.24-.624h.001a1.6 1.6 0 01.374-.134c-.099.442-.162.825-.158 1.28.004.45.072.938.2 1.596l.002.008.001.007v.002l.002.008.008.037.031.154c.027.137.065.343.11.61.088.536.204 1.32.309 2.303m1.008-3.421c-.122-.63-.168-1.01-.171-1.317-.003-.298.036-.559.126-.958a1.72 1.72 0 00-.03-.945 1.27 1.27 0 00-.66-.736m.735 3.956l.002.009.01.045.034.171c.028.15.07.367.116.647.093.562.213 1.374.322 2.39.22 2.069.23 4.007.19 5.387l-1.5-.044a39.239 39.239 0 00-.182-5.184m-17.592-.16a40.749 40.749 0 00-.19 5.388l1.5-.044a39.249 39.249 0 01.182-5.184l-1.492-.16zm2.915 8.141h13.253v-1.5H5.373v1.5z"/><path fill-rule="evenodd" clip-rule="evenodd" d="M18.518 3.547c.558-.27 1.234-.428 1.806-.155l-.274 7.377a40.162 40.162 0 00-.31-2.303 24.725 24.725 0 00-.14-.764l-.007-.037-.002-.008v-.002l-.002-.007-.001-.008c-.128-.658-.197-1.147-.201-1.596-.004-.455.059-.838.158-1.28a1.6 1.6 0 00-.374.134h-.001c-.587.283-1.41.494-2.24.624-.839.131-1.75.19-2.537.139h-.007l-.028-.002a50.978 50.978 0 00-2.356-.055 51.051 51.051 0 00-2.242.048l-.116.007-.029.001h-.007c-.787.053-1.698-.006-2.537-.138-.829-.13-1.652-.34-2.239-.624a1.614 1.614 0 00-.375-.134c.099.442.161.825.157 1.28-.004.45-.074.938-.201 1.596l-.002.008-.002.007v.002l-.002.008-.007.037c-.007.034-.018.086-.03.154-.027.137-.065.343-.11.61a40.002 40.002 0 00-.308 2.303L2.46 10.61c.108-1.016.228-1.828.321-2.39a26.218 26.218 0 01.149-.818l.01-.045.001-.01c.123-.63.17-1.009.173-1.317.003-.298-.036-.559-.125-.957a1.718 1.718 0 01.03-.944c.114-.33.345-.588.658-.737.572-.273 1.248-.114 1.807.155.396.191 1.054.373 1.82.493.756.119 1.554.167 2.205.124h.014l.033-.003.128-.007c.111-.005.275-.013.487-.02.425-.015 1.044-.03 1.83-.03a52.476 52.476 0 012.317.05l.127.007.034.002h.01l.003.001c.652.043 1.45-.005 2.206-.124.765-.12 1.424-.302 1.82-.493zm2.541 3.8l-1.01 3.422c.112 1.048.168 2.065.19 2.988.534.03 1.042.158 1.506.367a38.504 38.504 0 00-.204-3.514 41.662 41.662 0 00-.322-2.39 26.179 26.179 0 00-.149-.818l-.01-.045-.001-.01zm-5.243 9.903a4.276 4.276 0 000 1.5H8.184a4.275 4.275 0 000-1.5h7.632zM3.76 13.757c.022-.923.077-1.94.189-2.988l-1.492-.159a38.49 38.49 0 00-.204 3.514c.464-.21.972-.338 1.507-.367zm17.298-6.41l-.06-.318.06.318zm-.06-.318l-.675-3.637c.312.149.543.407.658.736.11.312.099.641.03.945-.09.4-.128.66-.125.958.002.252.034.552.113.998zM20 16.75a1.25 1.25 0 100 2.5 1.25 1.25 0 000-2.5zM17.25 18a2.75 2.75 0 115.5 0 2.75 2.75 0 01-5.5 0zM4 16.75a1.25 1.25 0 100 2.5 1.25 1.25 0 000-2.5zM1.25 18a2.75 2.75 0 115.5 0 2.75 2.75 0 01-5.5 0z"/><path fill-rule="evenodd" clip-rule="evenodd" d="M14 9.5h-4A2.5 2.5 0 007.5 12v.5h9V12A2.5 2.5 0 0014 9.5zM10 8a4 4 0 00-4 4v1a1 1 0 001 1h10a1 1 0 001-1v-1a4 4 0 00-4-4h-4z"/>
</symbol>
<symbol id="health-32" viewBox="0 0 32 32">
<path fill-rule="evenodd" clip-rule="evenodd" d="M16 28.5C22.9036 28.5 28.5 22.9036 28.5 16C28.5 9.09644 22.9036 3.5 16 3.5C9.09644 3.5 3.5 9.09644 3.5 16C3.5 22.9036 9.09644 28.5 16 28.5ZM16 30C23.732 30 30 23.732 30 16C30 8.26801 23.732 2 16 2C8.26801 2 2 8.26801 2 16C2 23.732 8.26801 30 16 30Z" fill="black"/>
<path fill-rule="evenodd" clip-rule="evenodd" d="M12.5833 7.25H19.4167V12.5833H24.75V19.4167H19.4167V24.75H12.5833V19.4167H7.25V12.5833H12.5833V7.25ZM14.0833 8.75V14.0833H8.75V17.9167H14.0833V23.25H17.9167V17.9167H23.25V14.0833H17.9167V8.75H14.0833Z" fill="black"/>

</symbol>
<symbol id="heart-24" viewBox="0 0 24 24">
<path fill-rule="evenodd" clip-rule="evenodd" d="M6.79496 2.02102C8.56962 1.86723 10.378 2.55355 11.8058 4.20387L11.9995 4.42775L12.1933 4.20388C13.6213 2.55354 15.4299 1.86724 17.2046 2.02102C19.3116 2.20358 21.2339 3.56245 22.2453 5.58865C23.267 7.63525 23.3492 10.3265 21.8822 13.1855C20.4224 16.0304 17.444 19.0224 12.3686 21.7981L11.9995 22L11.6304 21.7981C6.5554 19.0224 3.57723 16.0304 2.11763 13.1855C0.650774 10.3265 0.733093 7.63524 1.75462 5.58867C2.76598 3.56248 4.68818 2.20359 6.79496 2.02102ZM17.0717 3.54545C15.5799 3.41619 13.9062 4.10479 12.6568 6.17173L11.9994 7.25927L11.3421 6.17169C10.093 4.10475 8.41947 3.41619 6.92787 3.54545C5.39784 3.67804 3.92224 4.68069 3.12877 6.27037C2.3457 7.83919 2.21613 10.0173 3.48413 12.4887C4.71577 14.8892 7.27949 17.5823 11.8733 20.181L11.9995 20.2525L12.1258 20.181C16.72 17.5823 19.284 14.8892 20.5157 12.4886C21.7839 10.0172 21.6543 7.83919 20.8712 6.27038C20.0777 4.68073 18.602 3.67804 17.0717 3.54545Z"/>

</symbol>
<symbol id="heart-filled-24" viewBox="0 0 24 24">
<path d="M6.79496 2.02102C8.56962 1.86723 10.378 2.55355 11.8058 4.20387L11.9995 4.42775L12.1933 4.20388C13.6213 2.55354 15.4299 1.86724 17.2046 2.02102C19.3116 2.20358 21.2339 3.56245 22.2453 5.58865C23.267 7.63525 23.3492 10.3265 21.8822 13.1855C20.4224 16.0304 17.444 19.0224 12.3686 21.7981L11.9995 22L11.6304 21.7981C6.5554 19.0224 3.57723 16.0304 2.11763 13.1855C0.650774 10.3265 0.733093 7.63524 1.75462 5.58867C2.76598 3.56248 4.68818 2.20359 6.79496 2.02102Z" fill="#FF0000"/>

</symbol>
<symbol id="hydrocycle-24" viewBox="0 0 24 24"><path fill-rule="evenodd" clip-rule="evenodd" d="M9.337 7.25h2.254v1.5h-1.246l-.329.804 3.88.634.028-.036c.174-.214.428-.508.68-.722.778-.665 1.952-.935 2.8-1.059a12.097 12.097 0 011.592-.121H19.036l-.008.75.008-.75.742.008v2.807l3.75 2.143-1.835 3.496-.4.042-.077-.746.077.746-.03.003-.083.008a88.641 88.641 0 01-1.49.13c-.992.08-2.37.174-3.912.237-3.066.126-6.86.13-9.578-.387-1.181-.225-2.481-.913-3.436-1.495a22.222 22.222 0 01-1.657-1.12l-.026-.02-.007-.005-.003-.003.457-.594-.612-.433.001-.002.004-.005.01-.016.043-.058.154-.21c.131-.175.317-.418.535-.688.427-.53 1.013-1.204 1.576-1.667.75-.616 1.812-1.15 2.64-1.517a23.254 23.254 0 011.494-.6l.024-.009.007-.002.002-.001.247.708-.246-.709.655-.227.488 1.114.787-1.928zM7.252 9.954c-.22.087-.482.195-.764.32-.807.36-1.713.826-2.296 1.305-.439.361-.946.936-1.362 1.451a20.66 20.66 0 00-.244.308c.26.18.589.397.959.623.931.568 2.037 1.131 2.936 1.302 2.533.483 6.176.488 9.235.363a102.117 102.117 0 005.007-.332l.017-.001.788-1.5-3.25-1.858V9.782a10.3 10.3 0 00-.658.074c-.82.119-1.614.348-2.042.714a4.518 4.518 0 00-.491.53 9.305 9.305 0 00-.247.317l-.014.018-.003.005-.271.375-6.985-1.14-.315-.722zM1.528 13.5l-.612-.433-.416.588.57.44.458-.595z"/>
</symbol>
<symbol id="ig-32" viewBox="0 0 32 32"><path fill-rule="evenodd" clip-rule="evenodd" d="M4 15.7c0-4.87 0-7.31 1.24-9.02a6.5 6.5 0 011.44-1.44C8.38 4 10.83 4 15.7 4h.6c4.88 0 7.31 0 9.02 1.24.55.4 1.04.89 1.44 1.44C28 8.38 28 10.83 28 15.7v.6c0 4.88 0 7.31-1.24 9.02a6.5 6.5 0 01-1.44 1.44C23.62 28 21.18 28 16.3 28h-.6c-4.87 0-7.31 0-9.02-1.24a6.5 6.5 0 01-1.44-1.44C4 23.62 4 21.18 4 16.3v-.6zm12-6.05a6.35 6.35 0 100 12.7 6.35 6.35 0 000-12.7zm0 10.32a3.98 3.98 0 11.01-7.95 3.98 3.98 0 01-.01 7.95zm7.68-10.8a.85.85 0 11-1.7 0 .85.85 0 011.7 0z"/>
</symbol>
<symbol id="insta-bookmarks-26" viewBox="0 0 26 26">
<path fill-rule="evenodd" clip-rule="evenodd" d="M13.7524 15.1567L21.2931 22.9613C21.3144 22.9753 21.3285 22.9776 21.3367 22.9787C21.3551 22.981 21.3843 22.9788 21.4175 22.9639C21.4507 22.9489 21.4716 22.9284 21.482 22.9131C21.4884 22.9037 21.5 22.8847 21.5 22.8361V3.5H5.5V22.947C5.5 22.9942 5.51127 23.0134 5.51783 23.0232C5.52823 23.0387 5.54875 23.059 5.58102 23.074C5.61329 23.0891 5.64202 23.0917 5.6606 23.0896C5.66923 23.0887 5.68339 23.0864 5.7047 23.0732L13.7524 15.1567ZM6.69617 24.202C5.62933 25.0996 4 24.3412 4 22.947V3.09345C4 2.48955 4.48955 2 5.09345 2H21.9066C22.5104 2 23 2.48955 23 3.09345V22.8361C23 24.2485 21.3337 25.0004 20.2747 24.066L13.7253 17.2874L6.69617 24.202Z"/>

</symbol>
<symbol id="insta-comment-26" viewBox="0 0 26 26">
<path fill-rule="evenodd" clip-rule="evenodd" d="M2 13.25C2 7.0368 7.0368 2 13.25 2C19.4632 2 24.5 7.0368 24.5 13.25C24.5 15.3336 23.9329 17.2868 22.9444 18.9613L24.4615 23.5128C24.5513 23.7823 24.4812 24.0794 24.2803 24.2803C24.0795 24.4812 23.7823 24.5513 23.5128 24.4615L18.9614 22.9443C17.2868 23.9329 15.3336 24.5 13.25 24.5C7.0368 24.5 2 19.4632 2 13.25ZM13.25 3.5C7.86522 3.5 3.5 7.86522 3.5 13.25C3.5 18.6348 7.86522 23 13.25 23C15.1698 23 16.9579 22.4459 18.4658 21.4892C18.6562 21.3684 18.8908 21.3397 19.1047 21.411L22.5642 22.5641L21.411 19.1047C21.3397 18.8908 21.3684 18.6561 21.4892 18.4657C22.4459 16.9579 23 15.1698 23 13.25C23 7.86522 18.6348 3.5 13.25 3.5Z"/>

</symbol>
<symbol id="insta-like-26" viewBox="0 0 26 26">
<path fill-rule="evenodd" clip-rule="evenodd" d="M8.075 3.5C4.93802 3.5 2.5 5.93141 2.5 9.04428C2.5 10.9567 3.35872 12.7539 5.02488 14.7824C6.6993 16.821 9.1088 18.9998 12.085 21.6883C12.0851 21.6884 12.0852 21.6885 12.0853 21.6886L13.25 22.7397L14.4147 21.6886C14.4148 21.6885 14.4149 21.6884 14.415 21.6883C17.3912 18.9998 19.8007 16.821 21.4751 14.7824C23.1413 12.7539 24 10.9567 24 9.04428C24 5.93141 21.562 3.5 18.425 3.5C16.6495 3.5 14.9345 4.32625 13.8189 5.62483C13.6764 5.79068 13.4687 5.8861 13.25 5.8861C13.0313 5.8861 12.8236 5.79068 12.6811 5.62483C11.5655 4.32625 9.85045 3.5 8.075 3.5ZM1 9.04428C1 5.09611 4.11648 2 8.075 2C10.0166 2 11.8818 2.78152 13.25 4.0556C14.6182 2.78152 16.4834 2 18.425 2C22.3835 2 25.5 5.09611 25.5 9.04428C25.5 11.452 24.4037 13.5802 22.6343 15.7345C20.8822 17.8675 18.3924 20.1167 15.466 22.7603L15.4203 22.8016L15.42 22.8019L13.7525 24.3068C13.467 24.5644 13.033 24.5644 12.7475 24.3068L11.08 22.8019L11.0797 22.8016L11.034 22.7603C8.10761 20.1168 5.61777 17.8675 3.86575 15.7345C2.09628 13.5802 1 11.452 1 9.04428Z"/>

</symbol>
<symbol id="insta-share-26" viewBox="0 0 26 26">
<path fill-rule="evenodd" clip-rule="evenodd" d="M1.0408 3.75614C1.14551 3.45159 1.43296 3.24789 1.75501 3.25002L24.7661 3.40228C25.0994 3.40449 25.3905 3.62622 25.4821 3.94539C25.7127 4.18424 25.7592 4.54724 25.5944 4.83697L14.2207 24.8413C14.0616 25.1213 13.7414 25.2684 13.4253 25.2068C13.1092 25.1452 12.8677 24.8886 12.8253 24.5694L11.1818 12.2016L1.29276 4.59446C1.03749 4.3981 0.936085 4.0607 1.0408 3.75614ZM11.7886 10.7759L3.97424 4.76473L21.9938 4.88397L11.7886 10.7759ZM12.7199 12.389L22.9251 6.49702L14.0186 22.162L12.7199 12.389Z"/>

</symbol>
<symbol id="komplektuyushchie-32" viewBox="0 0 32 32">
<path fill-rule="evenodd" clip-rule="evenodd" d="M12 29.5C17.2467 29.5 21.5 25.2467 21.5 20C21.5 14.7533 17.2467 10.5 12 10.5C6.75329 10.5 2.5 14.7533 2.5 20C2.5 25.2467 6.75329 29.5 12 29.5ZM12 31C18.0751 31 23 26.0751 23 20C23 13.9249 18.0751 9 12 9C5.92487 9 1 13.9249 1 20C1 26.0751 5.92487 31 12 31Z"/>
<path fill-rule="evenodd" clip-rule="evenodd" d="M20 21.5C25.2467 21.5 29.5 17.2467 29.5 12C29.5 6.75329 25.2467 2.5 20 2.5C14.7533 2.5 10.5 6.75329 10.5 12C10.5 17.2467 14.7533 21.5 20 21.5ZM20 23C26.0751 23 31 18.0751 31 12C31 5.92487 26.0751 1 20 1C13.9249 1 9 5.92487 9 12C9 18.0751 13.9249 23 20 23Z"/>

</symbol>
<symbol id="learn-32" viewBox="0 0 32 32">
<path fill-rule="evenodd" clip-rule="evenodd" d="M5.25 3.25H27.75V29.75H5.25V3.25ZM6.75 4.75V28.25H26.25V4.75H6.75Z" fill="black"/>
<path fill-rule="evenodd" clip-rule="evenodd" d="M5.25 3.25H10.75V29.75H5.25V3.25ZM6.75 4.75V28.25H9.25V4.75H6.75Z" fill="black"/>
<path fill-rule="evenodd" clip-rule="evenodd" d="M24.75 7.25L24.75 12.75L12.25 12.75L12.25 7.25L24.75 7.25ZM23.25 8.75L13.75 8.75L13.75 11.25L23.25 11.25L23.25 8.75Z" fill="black"/>
<path fill-rule="evenodd" clip-rule="evenodd" d="M12.25 15.25H24.75V16.75H12.25V15.25Z" fill="black"/>

</symbol>
<symbol id="like-16" viewBox="0 0 16 16">
    <path fill-rule="evenodd" clip-rule="evenodd" d="M7.99969 2.49735C6.95349 1.38178 5.62889 0.906476 4.31877 1.01511C2.73681 1.14629 1.30754 2.12006 0.558569 3.55591C-0.20124 5.01253 -0.250732 6.90859 0.815019 8.89627C1.87318 10.8698 4.01445 12.9143 7.61053 14.7964L7.99963 15L8.38873 14.7964C11.9851 12.9143 14.1266 10.8698 15.1849 8.8963C16.2507 6.90861 16.2013 5.01254 15.4414 3.5559C14.6924 2.12003 13.263 1.14629 11.6809 1.01511C10.3707 0.906479 9.04603 1.38177 7.99969 2.49735ZM8.69254 4.19538C9.52391 2.87927 10.6069 2.47537 11.5409 2.5528C12.5151 2.63358 13.4736 3.2481 13.9929 4.24356C14.5014 5.21828 14.6006 6.59667 13.7444 8.19337C12.914 9.74199 11.1708 11.5115 7.99966 13.2356C4.82885 11.5115 3.08582 9.74201 2.25549 8.1934C1.39938 6.5967 1.49866 5.21829 2.00711 4.24354C2.52637 3.24806 3.48481 2.63358 4.45888 2.5528C5.39262 2.47538 6.47548 2.87923 7.30671 4.19534L7.99959 5.29238L8.69254 4.19538Z"/>

</symbol>
<symbol id="like-24" viewBox="0 0 24 24">
<path fill-rule="evenodd" clip-rule="evenodd" d="M6.79496 2.02102C8.56962 1.86723 10.378 2.55355 11.8058 4.20387L11.9995 4.42775L12.1933 4.20388C13.6213 2.55354 15.4299 1.86724 17.2046 2.02102C19.3116 2.20358 21.2339 3.56245 22.2453 5.58865C23.267 7.63525 23.3492 10.3265 21.8822 13.1855C20.4224 16.0304 17.444 19.0224 12.3686 21.7981L11.9995 22L11.6304 21.7981C6.5554 19.0224 3.57723 16.0304 2.11763 13.1855C0.650774 10.3265 0.733093 7.63524 1.75462 5.58867C2.76598 3.56248 4.68818 2.20359 6.79496 2.02102ZM17.0717 3.54545C15.5799 3.41619 13.9062 4.10479 12.6568 6.17173L11.9994 7.25927L11.3421 6.17169C10.093 4.10475 8.41947 3.41619 6.92787 3.54545C5.39784 3.67804 3.92224 4.68069 3.12877 6.27037C2.3457 7.83919 2.21613 10.0173 3.48413 12.4887C4.71577 14.8892 7.27949 17.5823 11.8733 20.181L11.9995 20.2525L12.1258 20.181C16.72 17.5823 19.284 14.8892 20.5157 12.4886C21.7839 10.0172 21.6543 7.83919 20.8712 6.27038C20.0777 4.68073 18.602 3.67804 17.0717 3.54545Z"/>

</symbol>
<symbol id="like-filled-16" viewBox="0 0 16 16">
    <path d="M4.33878 1.01519C5.64128 0.907305 6.9562 1.37256 7.9997 2.4606C9.04333 1.37255 10.3584 0.907308 11.6609 1.01519C13.2525 1.14701 14.6879 2.12505 15.4395 3.56425C16.2026 5.02547 16.2501 6.92387 15.1844 8.90897C14.1268 10.8791 11.9901 12.914 8.41189 14.7845L7.99963 15L7.58737 14.7845C4.00949 12.914 1.87295 10.8791 0.815441 8.90894C-0.250109 6.92385 -0.202608 5.02547 0.560441 3.56427C1.312 2.12508 2.74727 1.14701 4.33878 1.01519Z"/>

</symbol>
<symbol id="like-filled-24" viewBox="0 0 24 24">
<path d="M6.79496 2.02102C8.56962 1.86723 10.378 2.55355 11.8058 4.20387L11.9995 4.42775L12.1933 4.20388C13.6213 2.55354 15.4299 1.86724 17.2046 2.02102C19.3116 2.20358 21.2339 3.56245 22.2453 5.58865C23.267 7.63525 23.3492 10.3265 21.8822 13.1855C20.4224 16.0304 17.444 19.0224 12.3686 21.7981L11.9995 22L11.6304 21.7981C6.5554 19.0224 3.57723 16.0304 2.11763 13.1855C0.650774 10.3265 0.733093 7.63524 1.75462 5.58867C2.76598 3.56248 4.68818 2.20359 6.79496 2.02102Z"/>

</symbol>
<symbol id="mail-16" viewBox="0 0 16 16">
<path fill-rule="evenodd" clip-rule="evenodd" d="M0.25 2.25L15.75 2.25V13.75H0.25L0.25 2.25ZM1.75 3.75L1.75 12.25H14.25V3.75L1.75 3.75Z"/>
<path fill-rule="evenodd" clip-rule="evenodd" d="M0.564453 3.61025L1.43631 2.38965L8.00038 7.07827L14.5645 2.38965L15.4363 3.61025L8.00038 8.92163L0.564453 3.61025Z"/>

</symbol>
<symbol id="mail-24" viewBox="0 0 24 24"><path fill-rule="evenodd" clip-rule="evenodd" d="M4.05 17.95V6.05h15.9v11.9H4.05zM12 11.09l5.02-3.57H6.98L12 11.09zm0 1.85L5.5 8.3v8.17h13V8.31L12 12.94z"/>
</symbol>
<symbol id="map-marker-16" viewBox="0 0 16 16">
    <path fill-rule="evenodd" clip-rule="evenodd" d="M8 15C8 15 13.5 11.1111 13.5 6.44444C13.5 3.43756 11.0376 1 8 1C4.96243 1 2.5 3.43756 2.5 6.44444C2.5 11.1111 8 15 8 15ZM8 9C9.38071 9 10.5 7.88071 10.5 6.5C10.5 5.11929 9.38071 4 8 4C6.61929 4 5.5 5.11929 5.5 6.5C5.5 7.88071 6.61929 9 8 9Z" fill="#AAAAAA"/>

</symbol>
<symbol id="marine-engine-24" viewBox="0 0 24 24"><path fill-rule="evenodd" clip-rule="evenodd" d="M14.273 3.25a3.25 3.25 0 00-3.043 2.109l-.392 1.045.913 1.369v3.192a.25.25 0 00.111.208l.61.406c.486.325.779.871.779 1.456v5.654l2 2v-4.633a7.75 7.75 0 011.23-4.191l2.222-3.455a3.25 3.25 0 00.236-3.078l-.068-.152a3.25 3.25 0 00-2.97-1.93h-1.628zM9.825 4.832a4.75 4.75 0 014.448-3.082H15.9a4.75 4.75 0 014.34 2.82l.069.153a4.75 4.75 0 01-.345 4.498l-2.222 3.455a6.25 6.25 0 00-.992 3.38v6.194H14.69l-2.94-2.94v-6.275a.25.25 0 00-.11-.208l-.61-.406a1.75 1.75 0 01-.78-1.456V8.634L2.032 7.239l.251-1.478 7.13 1.209-.248-.374.661-1.764z"/>
</symbol>
<symbol id="minus-16" viewBox="0 0 16 16"><path d="M2 8.75v-1.5h12v1.5H2z"/>
</symbol>
<symbol id="motorcycle-24" viewBox="0 0 24 24"><path fill-rule="evenodd" clip-rule="evenodd" d="M7.555 5l.988 1.129-1.88 1.645 2.684 2.54c.287 0 .561.001.826.003 1.634.012 2.917.022 4.672-.474a15.306 15.306 0 003.886-1.697c.442-.274.776-.517.996-.688a7.05 7.05 0 00.301-.246l.012-.01.509.55.509.551-.002.001-.002.003-.007.006-.023.02-.08.07a8.53 8.53 0 01-.297.24c-.258.2-.635.473-1.126.778a16.804 16.804 0 01-4.268 1.865c-1.276.36-2.359.483-3.411.52 1.352.655 2.874 1.249 4.268 1.738a65.95 65.95 0 004.052 1.274l.06.017.016.004h.003l.001.002-.276 1.469-3.667-.408v1.912H7.05c.165-.56.307-1.087.343-1.671.03-.482.023-1.012-.073-1.397-.427-1.71-1.46-2.412-2.384-2.72a4.685 4.685 0 00-1.775-.22l-.02.003H1.55l3.447-4.57L7.555 5zm1.331 11.314h5.913v-1.647c-2.14-.788-4.553-1.826-6.186-2.992l-.042-.03-2.929-2.772-1.137 1.507c.283.046.59.117.906.223 1.325.442 2.793 1.49 3.366 3.78.153.615.147 1.335.114 1.853l-.005.078z"/><path fill-rule="evenodd" clip-rule="evenodd" d="M3.05 13.016a3.05 3.05 0 100 6.1 3.05 3.05 0 000-6.1zm-1.565 3.05a1.565 1.565 0 113.13 0 1.565 1.565 0 01-3.13 0z"/><path d="M17.65 17.188a3.25 3.25 0 10.55-3.956l1.748.659a1.75 1.75 0 11-.358 3.188L17.55 17c.032.063.065.125.1.187z"/>
</symbol>
<symbol id="osobenosti-komplektatsii-32" viewBox="0 0 32 32">
<path fill-rule="evenodd" clip-rule="evenodd" d="M16 0.173828L30.75 6.94679V25.0514L16 31.8244L1.25 25.0514V6.94679L16 0.173828ZM2.75 8.59737L15.25 14.3372V29.8294L2.75 24.0896V8.59737ZM16.75 29.8294L29.25 24.0896V8.59737L16.75 14.3372V29.8294ZM16 13.031L28.2027 7.42769L16 1.82441L3.7973 7.42769L16 13.031Z"/>

</symbol>
<symbol id="pause-40" viewBox="0 0 40 40"><path fill-rule="evenodd" clip-rule="evenodd" d="M20 38.5a18.5 18.5 0 100-37 18.5 18.5 0 000 37zm0 1.5a20 20 0 100-40 20 20 0 000 40z"/><path fill-rule="evenodd" clip-rule="evenodd" d="M16.25 27V13h1.5v14h-1.5zM22.25 27V13h1.5v14h-1.5z"/>
</symbol>
<symbol id="pdf-40" viewBox="0 0 40 40">
<path fill-rule="evenodd" clip-rule="evenodd" d="M19.1893 1.75H33.25V38.25H6.75V14.1893L19.1893 1.75ZM31.75 3.25H20.25V15.25H8.25V36.75H31.75V3.25ZM9.31066 13.75H18.75V4.31066L9.31066 13.75Z"/>
<path d="M13 26.8182H13.8778V24.7727H15.071C16.4205 24.7727 17.0881 23.9574 17.0881 22.8835C17.0881 21.8125 16.4261 21 15.0739 21H13V26.8182ZM13.8778 24.0284V21.7528H14.9801C15.8494 21.7528 16.2045 22.2244 16.2045 22.8835C16.2045 23.5426 15.8494 24.0284 14.9915 24.0284H13.8778Z"/>
<path d="M20.0007 26.8182C21.7734 26.8182 22.799 25.7187 22.799 23.9006C22.799 22.0909 21.7734 21 20.0604 21H18.1172V26.8182H20.0007ZM18.995 26.0511V21.767H20.0064C21.2791 21.767 21.9354 22.5284 21.9354 23.9006C21.9354 25.2784 21.2791 26.0511 19.9524 26.0511H18.995Z"/>
<path d="M23.8906 26.8182H24.7685V24.2812H27.2401V23.5284H24.7685V21.7557H27.4986V21H23.8906V26.8182Z"/>

</symbol>
<symbol id="pdf-48" viewBox="0 0 48 48">
<path fill-rule="evenodd" clip-rule="evenodd" d="M39 44V4H18.3284L9 13.3284V44H39ZM7 12.5L17.5 2H41V46H7V12.5Z"/>
<path fill-rule="evenodd" clip-rule="evenodd" d="M13.5 30.4277V38.3005H15.1973V35.7436H16.3888C17.2936 35.7436 18.0073 35.4688 18.4949 34.9776C18.9813 34.4876 19.2101 33.8151 19.2101 33.0821C19.2101 32.3514 18.9833 31.6805 18.498 31.1915C18.0115 30.7014 17.2985 30.4277 16.3923 30.4277H13.5ZM23.6255 30.4277H20.8965V38.3005H23.5509C24.7221 38.3005 25.6822 37.9356 26.3481 37.2361C27.012 36.5386 27.3488 35.5449 27.3488 34.3534C27.3488 33.1669 27.0119 32.1795 26.3584 31.4865C25.7027 30.7913 24.7616 30.4277 23.6255 30.4277ZM29.1133 30.4277V38.3005H30.8106V35.1293H33.9001V33.5882H30.8106V31.9723H34.2232V30.4277H29.1133ZM15.1973 34.2132V31.9688H16.2751C16.7656 31.9688 17.0606 32.1009 17.2343 32.2771C17.4091 32.4544 17.5057 32.7216 17.5057 33.0821C17.5057 33.4429 17.4089 33.7163 17.2334 33.8987C17.0603 34.0787 16.7692 34.2132 16.2893 34.2132H15.1973ZM22.5938 36.7417V31.9865H23.558C24.2924 31.9865 24.8039 32.2042 25.1364 32.5766C25.4742 32.9548 25.6692 33.539 25.6692 34.3534C25.6692 35.1718 25.474 35.7603 25.1291 36.1424C24.789 36.5191 24.2609 36.7417 23.4905 36.7417H22.5938Z"/>

</symbol>
<symbol id="percent-16" viewBox="0 0 16 16">
<path fill-rule="evenodd" clip-rule="evenodd" d="M7.0961 7.09593C6.15797 8.03406 4.63695 8.03406 3.69882 7.09593C2.76068 6.15779 2.76068 4.63678 3.69882 3.69864C4.63695 2.76051 6.15797 2.76051 7.0961 3.69864C8.03424 4.63678 8.03424 6.15779 7.0961 7.09593ZM4.3965 6.39825C4.94932 6.95106 5.84561 6.95106 6.39842 6.39825C6.95124 5.84543 6.95124 4.94914 6.39842 4.39632C5.84561 3.84351 4.94932 3.84351 4.3965 4.39632C3.84368 4.94914 3.84368 5.84543 4.3965 6.39825Z"/>
<path fill-rule="evenodd" clip-rule="evenodd" d="M12.3012 12.3015C11.363 13.2396 9.84203 13.2396 8.9039 12.3015C7.96576 11.3634 7.96576 9.84234 8.9039 8.90421C9.84203 7.96607 11.363 7.96607 12.3012 8.90421C13.2393 9.84234 13.2393 11.3634 12.3012 12.3015ZM9.60158 11.6038C10.1544 12.1566 11.0507 12.1566 11.6035 11.6038C12.1563 11.051 12.1563 10.1547 11.6035 9.60189C11.0507 9.04908 10.1544 9.04908 9.60158 9.60189C9.04876 10.1547 9.04876 11.051 9.60158 11.6038Z"/>
<path fill-rule="evenodd" clip-rule="evenodd" d="M3.4469 11.8553L11.4546 3.84766L12.1523 4.54534L4.14458 12.553L3.4469 11.8553Z"/>

</symbol>
<symbol id="pin-16" viewBox="0 0 16 16">
<path fill-rule="evenodd" clip-rule="evenodd" d="M8 15C8 15 13.5 11.1111 13.5 6.44444C13.5 3.43756 11.0376 1 8 1C4.96243 1 2.5 3.43756 2.5 6.44444C2.5 11.1111 8 15 8 15ZM8 9C9.38071 9 10.5 7.88071 10.5 6.5C10.5 5.11929 9.38071 4 8 4C6.61929 4 5.5 5.11929 5.5 6.5C5.5 7.88071 6.61929 9 8 9Z"/>

</symbol>
<symbol id="pin-24" viewBox="0 0 24 24">
<path fill-rule="evenodd" clip-rule="evenodd" d="M12 2.75C7.98874 2.75 4.75 5.96692 4.75 9.91919C4.75 13.033 6.59788 15.9682 8.56194 18.1902C9.53234 19.288 10.5049 20.1822 11.2352 20.8019C11.539 21.0596 11.7998 21.269 12 21.425C12.2002 21.269 12.461 21.0596 12.7648 20.8019C13.4951 20.1822 14.4677 19.288 15.4381 18.1902C17.4021 15.9682 19.25 13.033 19.25 9.91919C19.25 5.96692 16.0113 2.75 12 2.75ZM12 22.3636C11.567 22.976 11.5668 22.9759 11.5666 22.9757L11.566 22.9753L11.5642 22.974L11.5585 22.97L11.5385 22.9556C11.5215 22.9434 11.4971 22.9257 11.4658 22.9027C11.4033 22.8567 11.3132 22.7895 11.1995 22.7022C10.9722 22.5277 10.6501 22.2726 10.2648 21.9456C9.49513 21.2926 8.46766 20.3484 7.43806 19.1836C5.40212 16.8803 3.25 13.5932 3.25 9.91919C3.25 5.12417 7.17471 1.25 12 1.25C16.8253 1.25 20.75 5.12417 20.75 9.91919C20.75 13.5932 18.5979 16.8803 16.5619 19.1836C15.5323 20.3484 14.5049 21.2926 13.7352 21.9456C13.3499 22.2726 13.0278 22.5277 12.8005 22.7022C12.6868 22.7895 12.5967 22.8567 12.5342 22.9027C12.5029 22.9257 12.4785 22.9434 12.4615 22.9556L12.4415 22.97L12.4358 22.974L12.434 22.9753L12.4334 22.9757C12.4332 22.9759 12.433 22.976 12 22.3636ZM12 22.3636L12.433 22.976L12 23.2822L11.567 22.976L12 22.3636ZM12.0001 7.11365C10.406 7.11365 9.11376 8.40592 9.11376 10C9.11376 11.5941 10.406 12.8864 12.0001 12.8864C13.5942 12.8864 14.8865 11.5941 14.8865 10C14.8865 8.40592 13.5942 7.11365 12.0001 7.11365ZM7.61376 10C7.61376 7.57749 9.5776 5.61365 12.0001 5.61365C14.4226 5.61365 16.3865 7.57749 16.3865 10C16.3865 12.4225 14.4226 14.3864 12.0001 14.3864C9.5776 14.3864 7.61376 12.4225 7.61376 10Z"/>

</symbol>
<symbol id="plus-16" viewBox="0 0 16 16">
<path d="M7.2501 7.24997V2H8.7501V7.24997H14V8.74997H8.7501V13.9999H7.2501V8.74997H2V7.24997H7.2501Z"/>

</symbol>
<symbol id="plus-24" viewBox="0 0 24 24"><path fill-rule="evenodd" clip-rule="evenodd" d="M11.25 11.25V1h1.5v10.25H23v1.5H12.75V23h-1.5V12.75H1v-1.5h10.25z"/>
</symbol>
<symbol id="plus-in-circle-16" viewBox="0 0 25 24">
    <g clip-path="url(#clip0_5232:4907)">
        <path d="M11.7501 6V11.25H6.5V12.75H11.7501V17.9999H13.2501V12.75H18.5V11.25H13.2501V6H11.7501Z"/>
        <path fill-rule="evenodd" clip-rule="evenodd" d="M24.5 12C24.5 18.6274 19.1274 24 12.5 24C5.87258 24 0.5 18.6274 0.5 12C0.5 5.37258 5.87258 0 12.5 0C19.1274 0 24.5 5.37258 24.5 12ZM23 12C23 17.799 18.299 22.5 12.5 22.5C6.70101 22.5 2 17.799 2 12C2 6.20101 6.70101 1.5 12.5 1.5C18.299 1.5 23 6.20101 23 12Z"/>
    </g>
    <defs>
        <clipPath id="clip0_5232:4907">
            <rect width="24" height="24" transform="translate(0.5)"/>
        </clipPath>
    </defs>

</symbol>
<symbol id="products-24" viewBox="0 0 24 24">
    <path fill-rule="evenodd" clip-rule="evenodd" d="M12.0019 1.75C10.207 1.75 8.75193 3.20507 8.75193 5V6.25H15.2519V5C15.2519 3.20507 13.7969 1.75 12.0019 1.75ZM16.7519 6.25V5C16.7519 2.37665 14.6253 0.25 12.0019 0.25C9.37858 0.25 7.25193 2.37665 7.25193 5V6.25H4.33984L2.15234 23.75H21.8515L19.664 6.25H16.7519ZM15.2519 7.75V10C15.2519 10.4142 15.5877 10.75 16.0019 10.75C16.4161 10.75 16.7519 10.4142 16.7519 10V7.75H18.3398L20.1523 22.25H3.85152L5.66402 7.75H7.25193V10C7.25193 10.4142 7.58772 10.75 8.00193 10.75C8.41614 10.75 8.75193 10.4142 8.75193 10V7.75H15.2519Z" fill="black"/>

</symbol>
<symbol id="quadricycle-24" viewBox="0 0 24 24"><path fill-rule="evenodd" clip-rule="evenodd" d="M3.5 17.5a2 2 0 100-4 2 2 0 000 4zm0 1.5a3.5 3.5 0 100-7 3.5 3.5 0 000 7z"/><path fill-rule="evenodd" clip-rule="evenodd" d="M1 9.25h3.5c2.9 0 5.25 2.35 5.25 5.25h-1.5a3.75 3.75 0 00-3.75-3.75H1v-1.5zM20.5 17.5a2 2 0 100-4 2 2 0 000 4zm0 1.5a3.5 3.5 0 100-7 3.5 3.5 0 000 7z"/><path fill-rule="evenodd" clip-rule="evenodd" d="M4.914 6.592a6.75 6.75 0 016.309-.527l3.878 1.663 9.02-1.289-4.311 4.31h-.31a3.75 3.75 0 00-3.75 3.75v.75H11.5v-1.5h2.803a5.252 5.252 0 014.876-4.49l.699-.699-4.98.712-4.266-1.828a5.25 5.25 0 00-4.907.41L2 10.247v.502H1L.594 9.369l4.32-2.777z"/><path fill-rule="evenodd" clip-rule="evenodd" d="M7.993 3.25h2.508v1.5H9.009l-.812 2.029-1.392-.558L7.993 3.25z"/>
</symbol>
<symbol id="sales-32" viewBox="0 0 32 32">
<path fill-rule="evenodd" clip-rule="evenodd" d="M22.4035 26.307C24.5593 26.307 26.307 24.5593 26.307 22.4035C26.307 20.2477 24.5593 18.5 22.4035 18.5C20.2477 18.5 18.5 20.2477 18.5 22.4035C18.5 24.5593 20.2477 26.307 22.4035 26.307ZM22.4035 27.807C25.3878 27.807 27.807 25.3878 27.807 22.4035C27.807 19.4192 25.3878 17 22.4035 17C19.4192 17 17 19.4192 17 22.4035C17 25.3878 19.4192 27.807 22.4035 27.807Z" fill="black"/>
<path fill-rule="evenodd" clip-rule="evenodd" d="M10.673 13.307C12.8289 13.307 14.5765 11.5593 14.5765 9.40349C14.5765 7.24765 12.8289 5.5 10.673 5.5C8.51718 5.5 6.76953 7.24765 6.76953 9.40349C6.76953 11.5593 8.51718 13.307 10.673 13.307ZM10.673 14.807C13.6573 14.807 16.0765 12.3878 16.0765 9.40349C16.0765 6.41923 13.6573 4 10.673 4C7.68876 4 5.26953 6.41923 5.26953 9.40349C5.26953 12.3878 7.68876 14.807 10.673 14.807Z" fill="black"/>
<path fill-rule="evenodd" clip-rule="evenodd" d="M25.5294 7.53039L7.52941 25.5304L6.46875 24.4697L24.4688 6.46973L25.5294 7.53039Z" fill="black"/>

</symbol>
<symbol id="scooter" viewBox="0 0 24 24"><path fill-rule="evenodd" clip-rule="evenodd" d="M7.557 5l.987 1.129-1.88 1.645 2.684 2.54c1.703 1.25 2.496 1.493 2.496 1.493 1.351.654 2.874 1.248 4.268 1.737a65.95 65.95 0 004.051 1.274l.061.017.015.004h.004v.002l-.275 1.469-3.667-.408v1.912H7.05c.167-.56.308-1.087.345-1.671.03-.482.023-1.012-.073-1.397-.428-1.71-1.46-2.412-2.385-2.72a4.685 4.685 0 00-1.774-.22l-.021.003H1.55l3.447-4.57L7.558 5zm1.33 11.314h5.914v-1.647c-2.14-.788-4.553-1.826-6.186-2.992l-.042-.03-2.929-2.772-1.137 1.507c.282.046.589.117.906.223 1.325.442 2.793 1.49 3.365 3.78.154.615.147 1.335.115 1.853l-.005.078z"/><path d="M17.65 17.188a3.25 3.25 0 10.55-3.956l1.748.659a1.75 1.75 0 11-.358 3.188L17.55 17c.032.063.065.125.1.187z"/><path fill-rule="evenodd" clip-rule="evenodd" d="M3.05 13.016a3.05 3.05 0 100 6.1 3.05 3.05 0 000-6.1zm-1.565 3.05a1.565 1.565 0 113.13 0 1.565 1.565 0 01-3.13 0zM18.016 10.668c-1.126-.05-2.462-.046-3.455.137-.816.15-1.856.503-2.72.834a32.936 32.936 0 00-1.373.563l-.082.037-.02.009-.006.002-.31-.683-.308-.684.01-.004.023-.01a16.345 16.345 0 01.417-.181c.277-.118.666-.278 1.112-.45.879-.336 2.027-.733 2.987-.909 1.168-.214 2.644-.21 3.79-.16a34.798 34.798 0 012.011.148l.032.003.009.001h.003l-.085.746-.085.745h-.008l-.027-.004-.11-.011a33.252 33.252 0 00-1.806-.13z"/>
</symbol>
<symbol id="search-16" viewBox="0 0 16 16">
<path fill-rule="evenodd" clip-rule="evenodd" d="M14.469 15.53l-4.5-4.5 1.06-1.061 4.5 4.5-1.06 1.06z"/>
<path fill-rule="evenodd" clip-rule="evenodd" d="M6.5 11.5a5 5 0 100-10 5 5 0 000 10zm0 1.5a6.5 6.5 0 100-13 6.5 6.5 0 000 13z"/>

</symbol>
<symbol id="search-24" viewBox="0 0 24 24">
<path fill-rule="evenodd" clip-rule="evenodd" d="M21.4688 22.5304L15.4688 16.5304L16.5294 15.4697L22.5294 21.4697L21.4688 22.5304Z"/>
<path fill-rule="evenodd" clip-rule="evenodd" d="M10.5 17.5C14.366 17.5 17.5 14.366 17.5 10.5C17.5 6.63401 14.366 3.5 10.5 3.5C6.63401 3.5 3.5 6.63401 3.5 10.5C3.5 14.366 6.63401 17.5 10.5 17.5ZM10.5 19C15.1944 19 19 15.1944 19 10.5C19 5.80558 15.1944 2 10.5 2C5.80558 2 2 5.80558 2 10.5C2 15.1944 5.80558 19 10.5 19Z"/>

</symbol>
<symbol id="service-16" viewBox="0 0 16 16">
<path fill-rule="evenodd" clip-rule="evenodd" d="M12.0386 7.38739C12.1668 6.90299 12.2431 6.39608 12.2431 5.87155C12.2431 2.62948 9.61363 0 6.37155 0L4.22591 2.14564L7.17681 5.09654C7.24913 5.16886 7.30263 5.25781 7.33261 5.35559C7.61607 6.27989 6.7893 7.16294 5.84837 6.94088L5.78724 6.92645C5.67084 6.89898 5.5644 6.83964 5.47983 6.75508L2.54815 3.8234L0.5 5.87155C0.5 9.11363 3.1285 11.7431 6.37155 11.7431C6.89608 11.7431 7.40201 11.6678 7.88641 11.5386L11.1451 14.7973C12.292 15.9442 14.1504 15.9442 15.2973 14.7973C16.4432 13.6504 16.4432 11.792 15.2973 10.6461L12.0386 7.38739ZM14.2366 13.7366C14.7972 13.1751 14.7964 12.2665 14.2366 11.7068L10.3677 7.83786L10.5885 7.00363C10.6881 6.62712 10.7431 6.24975 10.7431 5.87155C10.7431 3.65549 9.09264 1.82362 6.95433 1.53854L6.34723 2.14564L8.23747 4.03588C8.48313 4.28154 8.66484 4.58366 8.7667 4.9158C9.38982 6.9477 7.57232 8.88893 5.50383 8.40077L5.4427 8.38635C5.05516 8.29489 4.70074 8.09731 4.41917 7.81574L2.54815 5.94472L2.03852 6.45435C2.32348 8.59277 4.15474 10.2431 6.37155 10.2431C6.75123 10.2431 7.12692 10.1887 7.49992 10.0892L8.33555 9.86639L12.2058 13.7366C12.7669 14.2978 13.6755 14.2978 14.2366 13.7366Z"/>

</symbol>
<symbol id="service-24" viewBox="0 0 24 24"><path fill-rule="evenodd" clip-rule="evenodd" d="M16.97 10.992l-.052.195 5.03 5.03a4.054 4.054 0 01-5.733 5.732l-5.03-5.03-.195.051c-.7.187-1.43.295-2.182.295A8.458 8.458 0 01.352 8.951l2.72-2.72 4.15 4.15c.173.172.391.294.629.35l.092.021c1.674.396 3.145-1.176 2.64-2.82a1.288 1.288 0 00-.32-.534l-4.179-4.18L8.951.353a8.459 8.459 0 018.314 8.456c0 .752-.11 1.482-.295 2.184zm.342 9.86a2.503 2.503 0 103.54-3.539l-5.66-5.661.28-1.057c.156-.59.243-1.186.243-1.787A6.91 6.91 0 009.728 1.96l-.171-.023-1.28 1.28 3.082 3.084c.328.328.57.731.707 1.175.855 2.79-1.64 5.454-4.48 4.784l-.091-.022a2.865 2.865 0 01-1.368-.763L3.073 8.422 1.938 9.557l.023.171a6.909 6.909 0 006.847 5.987c.603 0 1.197-.086 1.782-.243l1.059-.282 5.663 5.663z"/>
</symbol>
<symbol id="small-chevron-down-16" viewBox="0 0 16 16"><path fill-rule="evenodd" clip-rule="evenodd" d="M8 10.81l4.64-4.65-1.06-1.06L8 8.7 4.4 5.1 3.35 6.16 8 10.81z"/>
</symbol>
<symbol id="small-chevron-left-16" viewBox="0 0 16 16"><path fill-rule="evenodd" clip-rule="evenodd" d="M10.812 4.412l-1.06-1.06-4.647 4.646 4.647 4.646 1.06-1.06-3.585-3.586 3.585-3.586z"/>
</symbol>
<symbol id="small-chevron-right-16" viewBox="0 0 16 16">
<path fill-rule="evenodd" clip-rule="evenodd" d="M10.8105 7.99995L6.16445 3.35352L5.10388 4.41409L8.68925 7.99997L5.10352 11.5857L6.16421 12.6464L10.8105 7.99995Z"/>

</symbol>
<symbol id="small-chevron-up-16" viewBox="0 0 16 16"><path fill-rule="evenodd" clip-rule="evenodd" d="M8 5.19L3.35 9.84l1.06 1.06L8 7.3l3.58 3.59 1.06-1.06L8 5.19z"/>
</symbol>
<symbol id="small-service-24" viewBox="0 0 24 24"><path fill-rule="evenodd" clip-rule="evenodd" d="M9.797 2.876l-.053-.001-2.39 2.391 3.389 3.39c.103.103.18.23.222.37a1.635 1.635 0 01-1.938 2.07l-.073-.017a.914.914 0 01-.436-.244L5.15 7.468 2.875 9.744v.053a6.807 6.807 0 006.806 6.69c.607 0 1.194-.087 1.757-.237l.084-.022 3.923 3.923a3.327 3.327 0 104.707-4.705l-3.924-3.923.023-.084c.149-.563.237-1.151.237-1.758a6.808 6.808 0 00-6.69-6.805zm-.359 2.39l.88-.88.074.01a5.335 5.335 0 014.621 5.285c0 .463-.067.923-.188 1.38l-.064.242-.175.663 1.44 1.439 3.083 3.084a1.854 1.854 0 01-2.62 2.62l-4.525-4.525-.906.241c-.454.121-.912.188-1.377.188a5.333 5.333 0 01-5.285-4.621l-.01-.074.765-.764 2.324 2.324a2.39 2.39 0 001.14.636l.073.017c2.337.551 4.391-1.642 3.687-3.938a2.368 2.368 0 00-.59-.98L9.439 5.266z"/>
</symbol>
<symbol id="snowmobile-24" viewBox="0 0 24 24"><path fill-rule="evenodd" clip-rule="evenodd" d="M20.5 8l.614.43v.002l-.002.002-.004.006-.014.02a8.671 8.671 0 01-.232.3c-.16.2-.397.48-.715.818a20.564 20.564 0 01-3.001 2.601l.846.186a3.997 3.997 0 00-.785 1.363l-2.005-.44c-.783.362-1.654.68-2.586.925a5.968 5.968 0 003.363 1.038h1.029c.033.535.17 1.042.394 1.5h-1.423a7.468 7.468 0 01-5.25-2.158c-.722.102-1.467.158-2.229.158-1.395 0-2.63-.417-3.502-.82a9.701 9.701 0 01-1.333-.748 4.926 4.926 0 01-.08-.057l-.023-.017-.008-.005-.002-.002H3.55L4 12.5l-.45.6-.378-.284.093-.463c.561-2.808 2.28-3.964 3.4-4.524l.277-.139.294.098h.002l.005.002.023.008a14.197 14.197 0 00.45.14c.305.09.732.212 1.219.334.99.247 2.166.478 3.065.478 2.172 0 4.235-.363 5.762-.73a27.031 27.031 0 001.817-.501 18.651 18.651 0 00.62-.208l.03-.01.007-.003 2.265-.85-1.387 1.982L20.5 8zM4.852 12.163c.464-1.644 1.439-2.417 2.22-2.852l.214.065c.322.097.771.225 1.286.353 1.01.253 2.335.523 3.428.523 2.324 0 4.507-.386 6.104-.769-.479.436-1.057.917-1.74 1.411-.445.323-.976.64-1.579.933a14.489 14.489 0 01-3.908 1.227 14.53 14.53 0 01-2.377.198c-1.105 0-2.12-.334-2.873-.681a8.276 8.276 0 01-.775-.408z"/><path fill-rule="evenodd" clip-rule="evenodd" d="M5.036 15.25l.792-1.586 1.342.67-.457.915h2.286v1.5H3.605a3.75 3.75 0 01-3.12-1.67l-.11-.164 1.248-.832.11.165a2.25 2.25 0 001.872 1.002h1.43z"/><circle cx="21" cy="15" r="2"/>
</symbol>
<symbol id="sound-40" viewBox="0 0 40 40"><path fill-rule="evenodd" clip-rule="evenodd" d="M20 38.5a18.5 18.5 0 100-37 18.5 18.5 0 000 37zm0 1.5a20 20 0 100-40 20 20 0 000 40z"/><path d="M12 16.67h3.83L20 13.33v13.34l-4.17-3.34H12v-6.66z"/><path fill-rule="evenodd" clip-rule="evenodd" d="M21.97 17.2l.53-.53.53-.53.03.03a3.27 3.27 0 01.22.26 5.85 5.85 0 01-.23 7.4l-.01.02v.01h-.01l-.53-.53-.53-.53.02-.02.11-.14a4.35 4.35 0 00-.14-5.45z"/><path fill-rule="evenodd" clip-rule="evenodd" d="M24.49 13.88l.5-.55.52-.54.02.01a2.54 2.54 0 01.13.13c.08.09.2.21.33.38a10.46 10.46 0 01-.46 13.9h-.01l-.52-.54-.51-.55.01-.02a3.2 3.2 0 00.34-.37 8.96 8.96 0 00-.34-11.83l-.01-.02z"/>
</symbol>
<symbol id="spare-parts-24" viewBox="0 0 24 24">
    <path fill-rule="evenodd" clip-rule="evenodd" d="M16.3411 11.9204C16.3411 14.3008 14.4114 16.2306 12.031 16.2306C9.65052 16.2306 7.7208 14.3008 7.7208 11.9204C7.7208 9.53996 9.65052 7.61024 12.031 7.61024C14.4114 7.61024 16.3411 9.53996 16.3411 11.9204ZM14.831 11.9204C14.831 13.4668 13.5774 14.7205 12.031 14.7205C10.4845 14.7205 9.23088 13.4668 9.23088 11.9204C9.23088 10.374 10.4845 9.12032 12.031 9.12032C13.5774 9.12032 14.831 10.374 14.831 11.9204Z" fill="black"/>
    <path fill-rule="evenodd" clip-rule="evenodd" d="M3.21902 4.34228C3.39643 4.035 3.76387 3.8927 4.10197 4.00035L6.48756 4.7599L6.66403 4.63014C6.94126 4.42628 7.22963 4.23885 7.52609 4.06911C7.80849 3.9067 8.10046 3.75912 8.40092 3.6274L8.60153 3.53945L9.13654 1.09369C9.21237 0.747064 9.51932 0.5 9.87414 0.5H14.1879C14.5428 0.5 14.8497 0.747064 14.9255 1.09369L15.4605 3.53945L15.6612 3.6274C15.98 3.76716 16.2899 3.9252 16.5883 4.09944C16.8665 4.26117 17.1368 4.43819 17.3978 4.63014L17.5743 4.7599L19.9599 4.00035C20.298 3.8927 20.6654 4.035 20.8428 4.34228L22.9997 8.07814C23.1771 8.38542 23.1166 8.77478 22.8544 9.01376L21.0038 10.7L21.0279 10.9177C21.0649 11.2513 21.0831 11.5863 21.0828 11.9195C21.0832 12.2536 21.065 12.5887 21.0279 12.9231L21.0038 13.1408L22.8544 14.8271C23.1166 15.066 23.1771 15.4554 22.9997 15.7627L20.8428 19.4985C20.6654 19.8058 20.298 19.9481 19.9599 19.8405L17.5743 19.0809L17.3978 19.2107C17.1336 19.405 16.8592 19.5844 16.5774 19.7477C16.2822 19.9196 15.9763 20.0752 15.6612 20.2134L15.4605 20.3013L14.9255 22.7471C14.8497 23.0937 14.5428 23.3408 14.1879 23.3408H9.87414C9.51932 23.3408 9.21237 23.0937 9.13654 22.7471L8.60153 20.3013L8.40092 20.2134C8.10395 20.0832 7.81459 19.9371 7.53525 19.7769C7.23531 19.6057 6.94433 19.4168 6.66403 19.2107L6.48756 19.0809L4.10197 19.8405C3.76387 19.9481 3.39643 19.8058 3.21902 19.4985L1.06212 15.7627C0.88471 15.4554 0.945198 15.066 1.20747 14.8271L3.05806 13.1408L3.03392 12.9231C2.99687 12.5891 2.97871 12.2537 2.97903 11.92C2.97872 11.5863 2.99688 11.2517 3.03392 10.9177L3.05806 10.7L1.20747 9.01376C0.945199 8.77478 0.884711 8.38542 1.06212 8.07814L3.21902 4.34228ZM9.91235 4.61362L9.00722 5.01042C8.7572 5.12002 8.51413 5.24289 8.2789 5.37816L8.27574 5.37998C8.02891 5.52132 7.78921 5.67715 7.55862 5.84671L6.76242 6.43218L4.22292 5.62363L2.67375 8.30687L4.64372 10.1019L4.5348 11.0841C4.50397 11.3621 4.48885 11.6406 4.4891 11.9186L4.48911 11.9222L4.64372 13.739L2.67375 15.5339L4.22292 18.2172L6.76242 17.4086L7.55862 17.9941C7.79186 18.1656 8.0341 18.3229 8.28395 18.4655L8.28712 18.4673L9.91235 19.2272L10.4819 21.8307H13.5802L14.1497 19.2272L15.0549 18.8304C15.3171 18.7154 15.5717 18.5858 15.8177 18.4427L15.8208 18.4408L17.2994 17.4086L19.8389 18.2172L21.3881 15.5339L19.4181 13.739L19.527 12.7567C19.5579 12.4784 19.573 12.1994 19.5727 11.9212L19.5727 11.917C19.5729 11.6396 19.5578 11.3615 19.527 11.0841L19.4181 10.1019L21.3881 8.30687L19.8389 5.62363L17.2994 6.43218L16.5032 5.84671C16.286 5.68699 16.061 5.53961 15.8293 5.4049L15.8258 5.40285C15.5773 5.2578 15.32 5.12665 15.0549 5.01042L14.1497 4.61362L13.5802 2.01008H10.4819L9.91235 4.61362Z" fill="black"/>

</symbol>
<symbol id="star-24" viewBox="0 0 24 24">
<path fill-rule="evenodd" clip-rule="evenodd" d="M10.3945 2.31745C11.0038 0.912413 12.9963 0.912411 13.6056 2.31745L15.7119 7.17488C15.7482 7.25842 15.827 7.31566 15.9176 7.32429L21.1882 7.82652C22.7127 7.9718 23.3285 9.86682 22.1805 10.8805L18.2117 14.3847C18.1434 14.445 18.1133 14.5376 18.1331 14.6265L19.2842 19.7943C19.6171 21.2891 18.0051 22.4603 16.6863 21.6818L12.1271 18.9901C12.0487 18.9438 11.9514 18.9438 11.873 18.9901L7.31375 21.6818C5.99498 22.4603 4.38298 21.2891 4.71593 19.7943L5.86698 14.6265C5.88677 14.5376 5.85668 14.445 5.78843 14.3847L1.81963 10.8805C0.671639 9.86682 1.28737 7.9718 2.81192 7.82652L8.0825 7.32429C8.17315 7.31566 8.25193 7.25842 8.28815 7.17488L10.3945 2.31745ZM12.2294 2.91421C12.1424 2.71349 11.8577 2.71349 11.7707 2.91421L9.66434 7.77164C9.41076 8.35641 8.8593 8.75707 8.22479 8.81753L2.95421 9.31976C2.73641 9.34051 2.64845 9.61123 2.81245 9.75603L6.78124 13.2603C7.25903 13.6822 7.46967 14.3305 7.3311 14.9526L6.18005 20.1204C6.13248 20.334 6.36277 20.5013 6.55117 20.3901L11.1104 17.6984C11.6592 17.3744 12.3409 17.3744 12.8897 17.6984L17.4489 20.3901C17.6373 20.5013 17.8676 20.334 17.8201 20.1204L16.669 14.9526C16.5304 14.3305 16.7411 13.6822 17.2189 13.2603L21.1876 9.75603C21.3516 9.61123 21.2637 9.34051 21.0459 9.31976L15.7753 8.81753C15.1408 8.75707 14.5893 8.35641 14.3358 7.77164L12.2294 2.91421Z"/>

</symbol>
<symbol id="star-filled-16" viewBox="0 0 16 16">
    <path d="M7.3883 1.74373C7.6204 1.20847 8.37947 1.20847 8.61157 1.74372L10.0158 4.98201C10.1124 5.20478 10.3225 5.35741 10.5642 5.38045L14.0779 5.71526C14.6587 5.77061 14.8933 6.49252 14.4559 6.87867L11.8101 9.21486C11.6281 9.37557 11.5478 9.62253 11.6006 9.85954L12.368 13.3048C12.4948 13.8742 11.8807 14.3204 11.3783 14.0238L8.33886 12.2293C8.12977 12.1059 7.8701 12.1059 7.66101 12.2293L4.62154 14.0238C4.11915 14.3204 3.50506 13.8742 3.63189 13.3048L4.39926 9.85954C4.45205 9.62253 4.37181 9.37557 4.18979 9.21486L1.54393 6.87867C1.1066 6.49252 1.34116 5.77061 1.92194 5.71526L5.43567 5.38045C5.67739 5.35741 5.88747 5.20478 5.98407 4.98201L7.3883 1.74373Z"/>

</symbol>
<symbol id="star-filled-24" viewBox="0 0 24 24">
<path d="M11.0826 2.61583C11.4307 1.81295 12.5693 1.81295 12.9175 2.61583L15.0238 7.47326C15.1687 7.80741 15.4838 8.03636 15.8464 8.07091L21.117 8.57314C21.9882 8.65615 22.34 9.73902 21.684 10.3182L17.7152 13.8225C17.4422 14.0636 17.3219 14.434 17.401 14.7895L18.5521 19.9574C18.7423 20.8116 17.8212 21.4808 17.0676 21.0359L12.5084 18.3442C12.1948 18.1591 11.8053 18.1591 11.4916 18.3442L6.93244 21.0359C6.17885 21.4808 5.25771 20.8116 5.44796 19.9574L6.59901 14.7895C6.6782 14.434 6.55783 14.0636 6.28481 13.8225L2.31602 10.3182C1.66002 9.73902 2.01187 8.65615 2.88304 8.57314L8.15363 8.07091C8.5162 8.03636 8.83132 7.80742 8.97622 7.47326L11.0826 2.61583Z"/>

</symbol>
<symbol id="user-24" viewBox="0 0 24 24">
<path fill-rule="evenodd" clip-rule="evenodd" d="M6.75057 7.5C6.75057 4.60051 9.10108 2.25 12.0006 2.25C14.9001 2.25 17.2506 4.60051 17.2506 7.5C17.2506 10.3995 14.9001 12.75 12.0006 12.75C9.10108 12.75 6.75057 10.3995 6.75057 7.5ZM12.0006 3.75C9.92951 3.75 8.25057 5.42893 8.25057 7.5C8.25057 9.57107 9.92951 11.25 12.0006 11.25C14.0716 11.25 15.7506 9.57107 15.7506 7.5C15.7506 5.42893 14.0716 3.75 12.0006 3.75Z"/>
<path d="M4.5724 18.0266C6.30746 16.5251 8.78851 15.2499 12.0007 15.2499C15.2129 15.2499 17.6939 16.5251 19.429 18.0266C20.7943 19.2082 21.7308 20.5594 22.2045 21.5903L20.7408 22.0085C20.3452 21.2324 19.5907 20.1503 18.4474 19.1609C16.9321 17.8496 14.7881 16.7499 12.0007 16.7499C9.21323 16.7499 7.06924 17.8496 5.55397 19.1609C4.41068 20.1503 3.65618 21.2324 3.26054 22.0085L1.79688 21.5903C2.27055 20.5594 3.20702 19.2082 4.5724 18.0266Z"/>

</symbol>
<symbol id="vk-32" viewBox="0 0 32 32"><path d="M26.39 19c-.33-.44-.4-.88-.22-1.33.44-1.2 6.85-8.82 4.18-8.82-1.84.02-4.05 0-5.8 0a.88.88 0 00-.68.6c-1.03 2.37-2.29 5.27-4.13 7.13-.25.2-.4.2-.68.12-1.3-1.36.09-6.04-.7-7.88-.15-.37-.5-.53-.84-.62-1.76-.42-5.78-.17-6.43.67-.19.24-.22.38-.08.4.62.1 1.07.33 1.33.7.49 1.09.85 6.84-.6 6.84-1.44 0-3.77-5.65-4.42-7.21-.17-.48-.6-.75-1.06-.83L2 8.81c-.76 0-1.18.37-.91 1.12 2.23 5.53 7.1 16.24 14.58 15.98.75 0 2.04.28 2.62-.37.8-1.06-.17-2.96 1.2-3.69.35-.18.71-.03 1.01.2 1.54 1.17 2.35 3.22 4.24 3.84.33.11.62.14.87.08l4-.06c.74 0 1.47-.33 1.32-1.22-.58-1.9-2.9-3.86-4.54-5.69z"/>
</symbol>
<symbol id="vk-comments-24" viewBox="0 0 24 24">
<g opacity="0.7">
<path d="M7.8408 22.5308C7.61267 22.3458 7.42809 22.1127 7.3002 21.8483C7.1723 21.5839 7.10422 21.2945 7.1008 21.0008V18.9008H5.5008C5.04902 18.9207 4.59804 18.8463 4.17655 18.6825C3.75505 18.5186 3.37226 18.2689 3.05249 17.9491C2.73272 17.6293 2.48298 17.2465 2.31914 16.8251C2.1553 16.4036 2.08094 15.9526 2.1008 15.5008V6.5008C2.08094 6.04902 2.1553 5.59804 2.31914 5.17655C2.48298 4.75505 2.73272 4.37226 3.05249 4.05249C3.37226 3.73272 3.75505 3.48298 4.17655 3.31914C4.59804 3.1553 5.04902 3.08094 5.5008 3.1008H18.5008C18.9526 3.08094 19.4036 3.1553 19.8251 3.31914C20.2465 3.48298 20.6293 3.73272 20.9491 4.05249C21.2689 4.37226 21.5186 4.75505 21.6825 5.17655C21.8463 5.59804 21.9207 6.04902 21.9008 6.5008V15.5008C21.9207 15.9526 21.8463 16.4036 21.6825 16.8251C21.5186 17.2465 21.2689 17.6293 20.9491 17.9491C20.6293 18.2689 20.2465 18.5186 19.8251 18.6825C19.4036 18.8463 18.9526 18.9207 18.5008 18.9008H13.8408L10.1208 22.1608C9.85866 22.5003 9.47725 22.7274 9.05388 22.7961C8.6305 22.8648 8.19684 22.77 7.8408 22.5308ZM12.7708 17.4408C13.025 17.2166 13.3519 17.0923 13.6908 17.0908H18.5008C18.7159 17.1108 18.9328 17.0832 19.136 17.0099C19.3393 16.9366 19.5238 16.8194 19.6766 16.6666C19.8294 16.5138 19.9466 16.3293 20.0199 16.126C20.0932 15.9228 20.1208 15.7059 20.1008 15.4908V6.4908C20.1208 6.27569 20.0932 6.0588 20.0199 5.85557C19.9466 5.65235 19.8294 5.46779 19.6766 5.31502C19.5238 5.16225 19.3393 5.04503 19.136 4.97171C18.9328 4.89839 18.7159 4.87076 18.5008 4.8908H5.5008C5.28477 4.87053 5.06692 4.89834 4.86291 4.97223C4.65889 5.04612 4.47376 5.16426 4.32081 5.31817C4.16786 5.47208 4.05087 5.65794 3.97826 5.86241C3.90564 6.06688 3.87919 6.2849 3.9008 6.5008V15.5008C3.88076 15.7159 3.90839 15.9328 3.98171 16.136C4.05503 16.3393 4.17225 16.5238 4.32502 16.6766C4.47779 16.8294 4.66235 16.9466 4.86557 17.0199C5.0688 17.0932 5.28569 17.1208 5.5008 17.1008H8.0008C8.7008 17.3008 8.7008 17.3008 8.9008 18.0008V20.8308L12.7708 17.4408Z"/>
</g>

</symbol>
<symbol id="vk-likes-24" viewBox="0 0 24 24">
<g opacity="0.7">
<path d="M17.0016 2.89844C18.7017 2.90637 20.3295 3.58731 21.5289 4.79231C22.7283 5.99731 23.4016 7.62828 23.4016 9.32844C23.4016 12.8984 21.9716 14.6884 15.9516 19.3284L13.1716 21.4884C12.8383 21.7471 12.4284 21.8875 12.0066 21.8875C11.5847 21.8875 11.1748 21.7471 10.8416 21.4884L8.05156 19.3684C2.00156 14.6884 0.601563 12.8984 0.601563 9.32844C0.601544 7.62828 1.27487 5.99731 2.47425 4.79231C3.67362 3.58731 5.30142 2.90637 7.00156 2.89844C7.97229 2.91885 8.92592 3.15781 9.79157 3.59756C10.6572 4.03731 11.4126 4.66653 12.0016 5.43844C12.5905 4.66653 13.3459 4.03731 14.2116 3.59756C15.0772 3.15781 16.0308 2.91885 17.0016 2.89844ZM7.00156 4.69844C5.77882 4.70636 4.60885 5.19766 3.74703 6.06509C2.88522 6.93253 2.40154 8.10567 2.40156 9.32844C2.40156 12.1484 3.55156 13.5884 9.16156 17.9584L11.9416 20.1184C11.9589 20.1314 11.9799 20.1384 12.0016 20.1384C12.0232 20.1384 12.0443 20.1314 12.0616 20.1184L14.8416 17.9984C20.4516 13.6384 21.6016 12.1984 21.6016 9.36844C21.6068 8.75958 21.492 8.15565 21.2635 7.59125C21.0351 7.02684 20.6975 6.51304 20.2703 6.07925C19.843 5.64547 19.3343 5.30022 18.7734 5.06328C18.2126 4.82634 17.6104 4.70236 17.0016 4.69844C15.4416 4.69844 14.0016 5.57844 12.7716 7.42844L12.0016 8.49844L11.2616 7.42844C10.0016 5.57844 8.58156 4.69844 7.00156 4.69844Z"/>
</g>

</symbol>
<symbol id="vk-share-24" viewBox="0 0 24 24">
<g opacity="0.7">
<path d="M12.0985 7.86997V4.39997C12.1004 4.14938 12.1736 3.9045 12.3095 3.69395C12.4454 3.4834 12.6385 3.3159 12.8661 3.21101C13.0937 3.10613 13.3464 3.0682 13.5948 3.10166C13.8431 3.13513 14.0768 3.2386 14.2685 3.39997L23.2085 11C23.475 11.2268 23.6404 11.5501 23.6686 11.8989C23.6967 12.2477 23.5852 12.5934 23.3585 12.86L23.2085 13.01L14.2685 20.61C14.0768 20.7714 13.8431 20.8748 13.5948 20.9083C13.3464 20.9417 13.0937 20.9038 12.8661 20.7989C12.6385 20.6941 12.4454 20.5265 12.3095 20.316C12.1736 20.1055 12.1004 19.8606 12.0985 19.61V16.16C7.41855 16.27 4.09855 17.25 2.20855 19.03C2.0276 19.1975 1.7976 19.3024 1.5525 19.3292C1.30739 19.356 1.06015 19.3034 0.847243 19.179C0.63434 19.0546 0.467052 18.8651 0.370057 18.6384C0.273063 18.4117 0.251499 18.1599 0.308547 17.92C1.83855 11.56 5.81855 8.15997 12.0985 7.86997ZM13.8985 5.44997V9.64997H12.9985C7.69855 9.64997 4.27855 11.9 2.60855 16.51C5.05855 15.06 8.52855 14.35 12.9985 14.35H13.8985V18.55L21.6085 12L13.8985 5.44997Z"/>
</g>

</symbol>
<symbol id="vk-views-16" viewBox="0 0 14 11">
<path d="M7 10.5C2.8 10.5 0 6.5 0 5.5C0 4.5 2.8 0.5 7 0.5C11.2 0.5 14 4.5 14 5.5C14 6.5 11.2 10.5 7 10.5ZM7 9C8.9 9 10.5 7.4 10.5 5.5C10.5 3.6 8.9 2 7 2C5.1 2 3.5 3.6 3.5 5.5C3.5 7.4 5.1 9 7 9ZM7 7.1C6.1 7.1 5.4 6.4 5.4 5.5C5.4 4.6 6.1 3.9 7 3.9C7.9 3.9 8.6 4.6 8.6 5.5C8.6 6.4 7.9 7.1 7 7.1Z"/>

</symbol>
<symbol id="wallet-24" viewBox="0 0 24 24">
<path fill-rule="evenodd" clip-rule="evenodd" d="M1.25 7.25H22.75V20.75H1.25V7.25ZM2.75 8.75V19.25H21.25V8.75H2.75Z"/>
<path fill-rule="evenodd" clip-rule="evenodd" d="M14.75 14C14.75 12.4812 15.9812 11.25 17.5 11.25H22V12.75H17.5C16.8096 12.75 16.25 13.3096 16.25 14C16.25 14.6904 16.8096 15.25 17.5 15.25H22V16.75H17.5C15.9812 16.75 14.75 15.5188 14.75 14Z"/>
<path fill-rule="evenodd" clip-rule="evenodd" d="M21.25 3.07422V7.49855H19.75V4.92289L1.65447 8.73247L1.34546 7.26464L21.25 3.07422Z"/>

</symbol>
<symbol id="yt-32" viewBox="0 0 32 32"><path fill-rule="evenodd" clip-rule="evenodd" d="M21.93 8c3.12 0 4.75.43 5.64 1.48.89 1.06.95 2.68.95 5.03v4.24c0 2.69-.42 4.25-1.42 5.2-.97.93-2.47 1.3-5.17 1.3H10.6c-5.58 0-6.6-2.18-6.6-6.5v-4.24c0-2.23 0-3.84.86-4.93C5.74 8.46 7.4 8 10.6 8h11.33zM14.6 19.9l5.14-2.68a.8.8 0 000-1.41l-5.14-2.67a.79.79 0 00-1.16.7v5.36a.8.8 0 001.16.7z"/>
</symbol></svg>