<svg width="16" height="16" viewBox="0 0 16 16" xmlns="http://www.w3.org/2000/svg">
<path fill-rule="evenodd" clip-rule="evenodd" d="M8.11277 1.79671C8.05049 1.73443 7.94951 1.73443 7.88723 1.79671L1.79671 7.88723C1.73443 7.94951 1.73443 8.05049 1.79671 8.11277L7.88723 14.2033C7.94951 14.2656 8.05049 14.2656 8.11277 14.2033L14.2033 8.11277C14.2656 8.05049 14.2656 7.94951 14.2033 7.88723L8.11277 1.79671ZM6.82657 0.736051C7.47464 0.0879825 8.52536 0.0879835 9.17343 0.736051L15.2639 6.82657C15.912 7.47464 15.912 8.52536 15.2639 9.17343L9.17343 15.2639C8.52536 15.912 7.47464 15.912 6.82657 15.2639L0.736051 9.17343C0.0879827 8.52536 0.0879833 7.47464 0.736051 6.82657L6.82657 0.736051Z" />
<path fill-rule="evenodd" clip-rule="evenodd" d="M7.25 10V6H8.75V10H7.25Z" />
</svg>
