<svg width="24" height="24" viewBox="0 0 24 24" xmlns="http://www.w3.org/2000/svg"><path fill-rule="evenodd" clip-rule="evenodd" d="M8 4.75c-.69 0-1.25.56-1.25 1.25v4h-1.5V6A2.75 2.75 0 018 3.25h8A2.75 2.75 0 0118.75 6v4h-1.5V6c0-.69-.56-1.25-1.25-1.25H8zM4.25 16c0-.966.784-1.75 1.75-1.75h1c.966 0 1.75.784 1.75 1.75v4A1.75 1.75 0 017 21.75H6A1.75 1.75 0 014.25 20v-4zM6 15.75a.25.25 0 00-.25.25v4c0 .138.112.25.25.25h1a.25.25 0 00.25-.25v-4a.25.25 0 00-.25-.25H6zM15.25 16c0-.966.784-1.75 1.75-1.75h1c.966 0 1.75.784 1.75 1.75v4A1.75 1.75 0 0118 21.75h-1A1.75 1.75 0 0115.25 20v-4zm1.75-.25a.25.25 0 00-.25.25v4c0 .138.112.25.25.25h1a.25.25 0 00.25-.25v-4a.25.25 0 00-.25-.25h-1z"/><path fill-rule="evenodd" clip-rule="evenodd" d="M10.01 9.75a1.5 1.5 0 01-1.415 1H6.738a.988.988 0 00-.988.988v1.021a3.23 3.23 0 00-1.5.502v-1.523A2.488 2.488 0 016.738 9.25h1.857a1 1 0 011-1h4.655a1 1 0 011 1h1.95a2.55 2.55 0 012.55 2.55v1.46a3.23 3.23 0 00-1.5-.5v-.96c0-.58-.47-1.05-1.05-1.05h-1.95a1.5 1.5 0 01-1.415-1H10.01zm3.74 7.174a8.868 8.868 0 00-3.5 0v1.537a7.37 7.37 0 013.5 0v-1.537z"/><path d="M10 12.5a1 1 0 11-2 0 1 1 0 012 0zM16 12.5a1 1 0 11-2 0 1 1 0 012 0z"/></svg>