<svg width="32" height="32" viewBox="0 0 32 32" fill="none" xmlns="http://www.w3.org/2000/svg">
<path fill-rule="evenodd" clip-rule="evenodd" d="M16 28.5C22.9036 28.5 28.5 22.9036 28.5 16C28.5 9.09644 22.9036 3.5 16 3.5C9.09644 3.5 3.5 9.09644 3.5 16C3.5 22.9036 9.09644 28.5 16 28.5ZM16 30C23.732 30 30 23.732 30 16C30 8.26801 23.732 2 16 2C8.26801 2 2 8.26801 2 16C2 23.732 8.26801 30 16 30Z" fill="black"/>
<path fill-rule="evenodd" clip-rule="evenodd" d="M19.7609 10.8223L15.9991 8L12.2373 10.8223L8.39062 13.5279L9.91232 17.9777L11.2968 22.4721L15.9991 22.4L20.7014 22.4721L22.0858 17.9777L23.6075 13.5279L19.7609 10.8223ZM21.8241 14.1073L18.8791 12.036L15.9991 9.87522L13.119 12.036L10.1741 14.1073L11.3391 17.5141L12.399 20.9551L15.9991 20.8998L19.5991 20.9551L20.6591 17.5141L21.8241 14.1073Z" fill="black"/>
<path fill-rule="evenodd" clip-rule="evenodd" d="M29.4342 12.5027L22.9974 14.4337L22.5664 12.9969L29.0031 11.0659L29.4342 12.5027Z" fill="black"/>
<path fill-rule="evenodd" clip-rule="evenodd" d="M16.75 2.25V8.75H15.25V2.25H16.75Z" fill="black"/>
<path fill-rule="evenodd" clip-rule="evenodd" d="M2.99743 11.0659L9.43417 12.9969L9.00315 14.4337L2.56641 12.5027L2.99743 11.0659Z" fill="black"/>
<path fill-rule="evenodd" clip-rule="evenodd" d="M12.5492 22.3502L8.64922 27.5502L7.44922 26.6502L11.3492 21.4502L12.5492 22.3502Z" fill="black"/>
<path fill-rule="evenodd" clip-rule="evenodd" d="M20.6492 21.4502L24.5492 26.6502L23.3492 27.5502L19.4492 22.3502L20.6492 21.4502Z" fill="black"/>
</svg>
