<svg width="24" height="24" viewBox="0 0 24 24" xmlns="http://www.w3.org/2000/svg"><path fill-rule="evenodd" clip-rule="evenodd" d="M-.145 12.25h19.573l.399 1.164a.25.25 0 00.236.17h3.688v3.132l-2.61.565a20.75 20.75 0 01-4.388.469h-6.235a10.75 10.75 0 01-6.697-2.341L-.145 12.25zm4.291 1.5l.61.485a9.25 9.25 0 005.762 2.015h6.235c1.369 0 2.733-.146 4.07-.435l1.428-.309v-.423h-2.188a1.75 1.75 0 01-1.655-1.183l-.052-.15H4.146z"/><path fill-rule="evenodd" clip-rule="evenodd" d="M11.862 10.376a.25.25 0 00-.243.065l-3.09 3.09-1.06-1.062 3.09-3.09a1.75 1.75 0 011.697-.45l4.375 1.193a1.75 1.75 0 011.238 1.264l.358 1.432-1.456.364-.358-1.432a.25.25 0 00-.176-.18l-4.375-1.194z"/></svg>