<svg width="32" height="32" viewBox="0 0 32 32" fill="none" xmlns="http://www.w3.org/2000/svg">
<path fill-rule="evenodd" clip-rule="evenodd" d="M5.99805 10.625L16.4994 10.625V12.125L5.99805 12.125V10.625Z" fill="black"/>
<path fill-rule="evenodd" clip-rule="evenodd" d="M19.5 10.625H30.0013V12.125H19.5V10.625Z" fill="black"/>
<path fill-rule="evenodd" clip-rule="evenodd" d="M22.502 16.6255H27.7525V18.1255H22.502V16.6255Z" fill="black"/>
<path fill-rule="evenodd" clip-rule="evenodd" d="M16.5 7.625L16.5 22.627L15 22.627L15 7.625L16.5 7.625Z" fill="black"/>
<path fill-rule="evenodd" clip-rule="evenodd" d="M21.0039 7.62549L21.0039 22.6274L19.5039 22.6274L19.5039 7.62549L21.0039 7.62549Z" fill="black"/>
<path fill-rule="evenodd" clip-rule="evenodd" d="M16.5 21.1274V24.5674L18.0003 23.0671L19.5007 24.5674V21.1274H21.0007V28.1888L18.0003 25.1884L15 28.1888V21.1274H16.5Z" fill="black"/>
<path fill-rule="evenodd" clip-rule="evenodd" d="M7.49609 9.12402H28.4996V19.626H20.7661V21.126H28.4996H29.9996V19.626V9.12402V7.62402H28.4996H7.49609H5.99609V9.12402V19.626V21.126H7.49609H15.2268V19.626H7.49609V9.12402Z" fill="black"/>
<path fill-rule="evenodd" clip-rule="evenodd" d="M3.00011 3.56336L5.31094 5.87419L4.25028 6.93485L1.93945 4.62402L3.00011 3.56336Z" fill="black"/>
<path fill-rule="evenodd" clip-rule="evenodd" d="M9.30871 4.62414L6.99788 6.93497L5.93722 5.87431L8.24805 3.56348L9.30871 4.62414Z" fill="black"/>
<path fill-rule="evenodd" clip-rule="evenodd" d="M5.31261 8.62609L3.00178 10.9369L1.94112 9.87626L4.25195 7.56543L5.31261 8.62609Z" fill="black"/>
</svg>
