<svg width="17" height="16" viewBox="0 0 17 16" xmlns="http://www.w3.org/2000/svg">
<path fill-rule="evenodd" clip-rule="evenodd" d="M14.0837 0.416016L2.91699 0.416016L2.91699 15.5827H14.0837V0.416016ZM12.5837 4.75H4.41699V14.0827H12.5837V4.75ZM4.41699 3.25L12.5837 3.25V1.91602L4.41699 1.91602V3.25ZM6.75033 6.08398H4.91699V7.58398H6.75033V6.08398ZM9.41699 6.08398H7.58366V7.58398H9.41699V6.08398ZM12.0837 6.08398H10.2503V7.58398H12.0837V6.08398ZM6.75033 8.75H4.91699V10.25H6.75033V8.75ZM9.41699 8.75H7.58366V10.25H9.41699V8.75ZM12.0837 8.75H10.2503V10.25H12.0837V8.75ZM6.75033 11.416H4.91699V12.916H6.75033V11.416ZM9.41699 11.416H7.58366V12.916H9.41699V11.416ZM12.0837 11.416H10.2503V12.916H12.0837V11.416Z" />
</svg>
