<svg width="24" height="24" viewBox="0 0 24 24" xmlns="http://www.w3.org/2000/svg">
<path fill-rule="evenodd" clip-rule="evenodd" d="M18.5 2.5H5.5V21.5H18.5V2.5ZM4 1V23H20V1H4Z" />
<path fill-rule="evenodd" clip-rule="evenodd" d="M9 11H7V9.5H9V11ZM13 11H11V9.5H13V11ZM17 11H15V9.5H17V11Z" />
<path fill-rule="evenodd" clip-rule="evenodd" d="M9 15H7V13.5H9V15ZM13 15H11V13.5H13V15ZM17 15H15V13.5H17V15Z" />
<path fill-rule="evenodd" clip-rule="evenodd" d="M9 19H7V17.5H9V19ZM13 19H11V17.5H13V19ZM17 19H15V17.5H17V19Z" />
<path fill-rule="evenodd" clip-rule="evenodd" d="M19 6.75H5V5.25H19V6.75Z" />
</svg>
