<svg xmlns="http://www.w3.org/2000/svg" viewBox="0 0 16 16"><path fill-rule="evenodd" clip-rule="evenodd" d="M.25 2C.25 1.03 1.03.25 2 .25h12c.97 0 1.75.78 1.75 1.75v12c0 .97-.78 1.75-1.75 1.75H2c-.97 0-1.75-.78-1.75-1.75V2zM2 1.75a.25.25 0 00-.25.25v12c0 .14.11.25.25.25h12c.14 0 .25-.11.25-.25V2a.25.25 0 00-.25-.25h-2.25V3.5h-1.5V1.75h-4.5V3.5h-1.5V1.75H2zm3.75 6.5h-1.5V6.73h1.5v1.52zm1.5 0h1.5V6.73h-1.5v1.52zm3 0h1.5V6.73h-1.5v1.52zm-4.5 3h-1.5V9.75h1.5v1.52zm1.5 0h1.5V9.75h-1.5v1.52zm3 0h1.5V9.75h-1.5v1.52z"/></svg>
