<svg
  width="64"
  height="64"
  viewBox="0 0 44 62"
  fill="none"
  xmlns="http://www.w3.org/2000/svg"
>
  <path
    fill-rule="evenodd"
    сlip-rule="evenodd"
    d="M19.2757 47.1774C23.861 47.1774 26.8432 42.352 24.7926 38.2508L19.2757 27.2168L13.7587 38.2508C11.7081 42.352 14.6903 47.1774 19.2757 47.1774ZM22.0959 39.5991C23.1441 41.6956 21.6196 44.1624 19.2757 44.1624C16.9317 44.1624 15.4072 41.6956 16.4554 39.5991L19.2757 33.9587L22.0959 39.5991Z"
  />
  <path
    fill-rule="evenodd"
    сlip-rule="evenodd"
    d="M3.0974 0.5H13.8896V6.3H15.6233L43.5 35.139V61.5H0.5V6.3H3.0974V0.5ZM3.5 9.3V58.5H40.5V36.3519L14.3507 9.3H10.8896V3.5H6.0974V9.3H3.5Z"
  />
  <path
    fill-rule="evenodd"
    сlip-rule="evenodd"
    d="M27.8394 9.67114C24.8214 6.58772 20.21 5.69417 16.2586 7.42714L16.1442 7.47735L17.3552 10.2385L17.4696 10.1883C20.2726 8.95899 23.5438 9.59285 25.6848 11.7801L37.5116 23.8631C40.1255 26.5336 40.5355 30.6608 38.4981 33.7934L38.4299 33.8982L40.9574 35.5421L41.0255 35.4373C43.833 31.1208 43.2681 25.4339 39.6663 21.754L27.8394 9.67114Z"
  />
</svg>
