<svg
  width="64"
  height="64"
  viewBox="0 0 50 60"
  xmlns="http://www.w3.org/2000/svg"
>
  <path
    fill-rule="evenodd"
    сlip-rule="evenodd"
    d="M3.35107 8.16043C3.35107 3.65355 7.00462 0 11.5115 0H38.0806C42.5875 0 46.2411 3.65355 46.2411 8.16043V21.4723H43.2048V8.16043C43.2048 5.33044 40.9106 3.03629 38.0806 3.03629H11.5115C8.68152 3.03629 6.38736 5.33044 6.38736 8.16043V21.4723H3.35107V8.16043Z"
  />
  <path
    fill-rule="evenodd"
    сlip-rule="evenodd"
    d="M0 41.3715C0 38.6988 2.16662 36.5322 4.83929 36.5322H8.16043C10.8331 36.5322 12.9997 38.6988 12.9997 41.3715V54.6561C12.9997 57.3287 10.8331 59.4954 8.16043 59.4954H4.83929C2.16662 59.4954 0 57.3287 0 54.6561V41.3715ZM4.83929 39.5685C3.84352 39.5685 3.03629 40.3757 3.03629 41.3715V54.6561C3.03629 55.6519 3.84352 56.4591 4.83929 56.4591H8.16043C9.1562 56.4591 9.96343 55.6519 9.96343 54.6561V41.3715C9.96343 40.3757 9.1562 39.5685 8.16043 39.5685H4.83929Z"
  />
  <path
    fill-rule="evenodd"
    сlip-rule="evenodd"
    d="M36.5325 41.3715C36.5325 38.6988 38.6991 36.5322 41.3718 36.5322H44.6929C47.3656 36.5322 49.5322 38.6988 49.5322 41.3715V54.6561C49.5322 57.3287 47.3656 59.4954 44.6929 59.4954H41.3718C38.6991 59.4954 36.5325 57.3287 36.5325 54.6561V41.3715ZM41.3718 39.5685C40.376 39.5685 39.5688 40.3757 39.5688 41.3715V54.6561C39.5688 55.6519 40.376 56.4591 41.3718 56.4591H44.6929C45.6887 56.4591 46.4959 55.6519 46.4959 54.6561V41.3715C46.4959 40.3757 45.6887 39.5685 44.6929 39.5685H41.3718Z"
  />
  <path
    fill-rule="evenodd"
    сlip-rule="evenodd"
    d="M14.4298 18.9529C14.4298 17.6559 15.4812 16.6045 16.7782 16.6045H32.2387C33.5357 16.6045 34.5871 17.6559 34.5871 18.9529V19.9256H42.0361C46.1761 19.9256 49.5323 23.2818 49.5323 27.4218V33.5779C49.029 33.1932 48.5702 32.9112 48.1133 32.7029C47.5801 32.4597 47.0614 32.3223 46.496 32.2329V27.4218C46.496 24.9587 44.4992 22.9619 42.0361 22.9619H35.5599C33.8157 22.9619 32.3295 21.8476 31.7787 20.2893L31.5495 19.6408H17.4674L17.2382 20.2893C16.6874 21.8476 15.2012 22.9619 13.4571 22.9619H7.29006C4.94077 22.9619 3.03629 24.8664 3.03629 27.2157V32.2329C2.47084 32.3223 1.95218 32.4597 1.4189 32.7029C0.962046 32.9112 0.503244 33.1932 0 33.5779V27.2157C0 23.1895 3.26387 19.9256 7.29006 19.9256H14.4298V18.9529ZM17.6435 48.2856V45.1956C19.4335 44.9204 22.9123 44.7787 24.5585 44.7787C26.2081 44.7787 30.0613 44.9207 31.8887 45.1961V48.2866C29.9546 47.9705 26.1751 47.815 24.5585 47.815C22.9411 47.815 19.5255 47.9704 17.6435 48.2856Z"
  />
  <path
    fill-rule="evenodd"
    сlip-rule="evenodd"
    d="M17.4239 29.7481C17.4239 31.1957 16.2503 32.3692 14.8027 32.3692C13.3551 32.3692 12.1816 31.1957 12.1816 29.7481C12.1816 28.3005 13.3551 27.127 14.8027 27.127C16.2503 27.127 17.4239 28.3005 17.4239 29.7481Z"
  />
  <path
    fill-rule="evenodd"
    сlip-rule="evenodd"
    d="M37.3507 29.7481C37.3507 31.1957 36.1772 32.3692 34.7295 32.3692C33.2819 32.3692 32.1084 31.1957 32.1084 29.7481C32.1084 28.3005 33.2819 27.127 34.7295 27.127C36.1772 27.127 37.3507 28.3005 37.3507 29.7481Z"
  />
</svg>