<svg width="24" height="24" viewBox="0 0 24 24" xmlns="http://www.w3.org/2000/svg">
<path fill-rule="evenodd" clip-rule="evenodd" d="M0.75 3.71483V2.25H5.15056L5.57036 4.47362H22.8621L18.7647 14.0233L6.36111 15.6659L4.11174 5.33968L3.80499 3.71483H0.75ZM20.5164 5.93845H5.87205L7.63194 14.0176L17.6173 12.6953L20.5164 5.93845Z"/>
<path d="M5.25 20C5.25 19.0335 6.0335 18.25 7 18.25C7.9665 18.25 8.75 19.0335 8.75 20C8.75 20.9665 7.9665 21.75 7 21.75C6.0335 21.75 5.25 20.9665 5.25 20Z"/>
<path d="M14.25 20C14.25 19.0335 15.0335 18.25 16 18.25C16.9665 18.25 17.75 19.0335 17.75 20C17.75 20.9665 16.9665 21.75 16 21.75C15.0335 21.75 14.25 20.9665 14.25 20Z"/>
</svg>
