<svg width="16" height="16" viewBox="0 0 16 16" xmlns="http://www.w3.org/2000/svg">
    <path fill-rule="evenodd" clip-rule="evenodd"
          d="M9.15165 1.70923C10.4209 0.440023 12.4786 0.440023 13.7478 1.70923C15.017 2.97843 15.017 5.03622 13.7478 6.30542L7.91421 12.1391C7.13317 12.9201 5.86684 12.9201 5.08579 12.1391C4.30474 11.358 4.30474 10.0917 5.08579 9.31063L8.7981 5.59831L9.85876 6.65897L6.14645 10.3713C5.95118 10.5665 5.95118 10.8831 6.14645 11.0784C6.34171 11.2737 6.65829 11.2737 6.85355 11.0784L12.6872 5.24476C13.3706 4.56134 13.3706 3.4533 12.6872 2.76989C12.0038 2.08647 10.8957 2.08647 10.2123 2.76989L4.37868 8.60352C3.20711 9.77509 3.20711 11.6746 4.37868 12.8462C5.55025 14.0177 7.44975 14.0177 8.62132 12.8462L12.3336 9.13385L13.3943 10.1945L9.68198 13.9068C7.92462 15.6642 5.07538 15.6642 3.31802 13.9068C1.56066 12.1495 1.56066 9.30022 3.31802 7.54286L9.15165 1.70923Z"/>
</svg>
