<svg width="24" height="24" viewBox="0 0 24 24" xmlns="http://www.w3.org/2000/svg">
<path fill-rule="evenodd" clip-rule="evenodd" d="M11.25 22.7498V1.23438H12.75V22.7498H11.25Z" />
<path fill-rule="evenodd" clip-rule="evenodd" d="M1.25 3C1.25 2.0335 2.0335 1.25 3 1.25H10V2.75H3C2.86193 2.75 2.75 2.86193 2.75 3V15C2.75 15.1381 2.86193 15.25 3 15.25H10V16.75H3C2.0335 16.75 1.25 15.9665 1.25 15V3Z" />
<path fill-rule="evenodd" clip-rule="evenodd" d="M22.75 21C22.75 21.9665 21.9665 22.75 21 22.75L14 22.75L14 21.25L21 21.25C21.1381 21.25 21.25 21.1381 21.25 21L21.25 9C21.25 8.86193 21.1381 8.75 21 8.75L14 8.75L14 7.25L21 7.25C21.9665 7.25 22.75 8.0335 22.75 9L22.75 21Z" />
</svg>
