<svg width="32" height="32" viewBox="0 0 32 32" fill="none" xmlns="http://www.w3.org/2000/svg">
<path fill-rule="evenodd" clip-rule="evenodd" d="M6.13081 20.9123C7.88629 19.8216 9.93585 19.2451 12.0269 19.25C14.1179 19.255 16.1644 19.8413 17.9142 20.9404C19.6644 22.0397 21.0433 23.6055 21.8751 25.4492L20.5078 26.066C19.801 24.4994 18.6241 23.1576 17.1164 22.2106C15.6084 21.2634 13.8378 20.7543 12.0233 20.75C10.2088 20.7457 8.43549 21.2463 6.92243 22.1864C5.40969 23.1263 4.22562 24.4626 3.51056 26.0259L2.14648 25.4019C2.98791 23.5624 4.375 22.0032 6.13081 20.9123Z" fill="black"/>
<path fill-rule="evenodd" clip-rule="evenodd" d="M12 15.5C13.933 15.5 15.5 13.933 15.5 12C15.5 10.067 13.933 8.5 12 8.5C10.067 8.5 8.5 10.067 8.5 12C8.5 13.933 10.067 15.5 12 15.5ZM12 17C14.7614 17 17 14.7614 17 12C17 9.23858 14.7614 7 12 7C9.23858 7 7 9.23858 7 12C7 14.7614 9.23858 17 12 17Z" fill="black"/>
<path fill-rule="evenodd" clip-rule="evenodd" d="M19.3195 18.0924C20.4213 17.4078 21.7063 17.0467 23.0162 17.0498C24.3261 17.0529 25.6093 17.4202 26.7075 18.11C27.8061 18.8 28.6738 19.7843 29.1979 20.9459L27.8306 21.5628C27.4315 20.6782 26.7658 19.918 25.9096 19.3802C25.0532 18.8423 24.046 18.5523 23.0126 18.5498C21.9793 18.5474 20.9705 18.8326 20.1112 19.3665C19.2521 19.9002 18.5823 20.6574 18.1785 21.5401L16.8145 20.9162C17.3446 19.7572 18.2174 18.7771 19.3195 18.0924Z" fill="black"/>
<path fill-rule="evenodd" clip-rule="evenodd" d="M23 14.5C23.8284 14.5 24.5 13.8284 24.5 13C24.5 12.1716 23.8284 11.5 23 11.5C22.1716 11.5 21.5 12.1716 21.5 13C21.5 13.8284 22.1716 14.5 23 14.5ZM23 16C24.6569 16 26 14.6569 26 13C26 11.3431 24.6569 10 23 10C21.3431 10 20 11.3431 20 13C20 14.6569 21.3431 16 23 16Z" fill="black"/>
</svg>
