<svg width="32" height="32" viewBox="0 0 32 32" xmlns="http://www.w3.org/2000/svg">
<path fill-rule="evenodd" clip-rule="evenodd" d="M15.25 15.25V12H16.75V15.25H20V16.75H16.75V20H15.25V16.75H12V15.25H15.25Z" />
<path fill-rule="evenodd" clip-rule="evenodd" d="M9.73892 5.76071L6.5955 4.29988C4.88528 5.67788 3.48381 7.4236 2.51117 9.41694L4.63042 12.1508C4.37465 12.9065 4.19211 13.696 4.09126 14.5108L1 16.0522C1.00982 18.337 1.53046 20.5012 2.4536 22.4365L5.90056 22.4839C6.34173 23.1697 6.85083 23.8075 7.41836 24.3881L6.69848 27.7551C8.40325 29.1043 10.4081 30.091 12.5965 30.5987L14.7784 27.9386C15.18 27.9792 15.5875 28 15.9998 28C16.4121 28 16.8195 27.9792 17.2211 27.9386L19.403 30.5987C21.5915 30.091 23.5963 29.1044 25.3011 27.7553L24.5812 24.3881C25.1487 23.8075 25.6578 23.1697 26.099 22.4839L29.5462 22.4365C30.4693 20.5012 30.99 18.3371 30.9998 16.0524L27.9083 14.5108C27.8074 13.696 27.6249 12.9065 27.3691 12.1508L29.4885 9.41673C28.5159 7.42344 27.1144 5.67776 25.4042 4.2998L22.2606 5.76072C21.5794 5.34331 20.8534 4.99198 20.0914 4.71562L19.2729 1.34447C18.2194 1.11 17.1241 0.986328 15.9999 0.986328C14.8756 0.986328 13.7802 1.11002 12.7266 1.34453L11.9082 4.71561C11.1462 4.99197 10.4201 5.3433 9.73892 5.76071ZM13.9557 2.63989L13.176 5.85142L12.4196 6.12574C11.7536 6.36727 11.1187 6.67447 10.5226 7.03969L9.8365 7.46013L6.84121 6.06813C5.83774 6.99526 4.97546 8.0724 4.29004 9.26337L6.30954 11.8685L6.05125 12.6316C5.82775 13.292 5.66814 13.9822 5.5799 14.695L5.48101 15.4939L2.53459 16.9631C2.63453 18.3631 2.94762 19.7024 3.44114 20.9499L6.72637 20.9952L7.16204 21.6723C7.54815 22.2725 7.99389 22.831 8.49096 23.3395L9.05344 23.9149L8.36742 27.1235C9.48579 27.8915 10.7249 28.495 12.05 28.8998L14.1289 26.3653L14.9293 26.4462C15.2808 26.4818 15.6379 26.5 15.9998 26.5C16.3616 26.5 16.7187 26.4818 17.0703 26.4462L17.8707 26.3653L19.9496 28.8999C21.2747 28.4951 22.5138 27.8917 23.6321 27.1236L22.9461 23.9148L23.5086 23.3395C24.0056 22.831 24.4514 22.2725 24.8375 21.6724L25.2731 20.9952L28.5587 20.9499C29.0522 19.7024 29.3653 18.3632 29.4652 16.9633L26.5185 15.4939L26.4196 14.695C26.3314 13.9822 26.1718 13.292 25.9483 12.6317L25.69 11.8685L27.7096 9.26318C27.0242 8.07225 26.162 6.99514 25.1585 6.06805L22.163 7.46013L21.4769 7.0397C20.8809 6.67447 20.2459 6.36728 19.58 6.12575L18.8235 5.85142L18.0439 2.63985C17.378 2.53881 16.6955 2.48633 15.9999 2.48633C15.3042 2.48633 14.6216 2.53883 13.9557 2.63989Z" />
</svg>
