<svg width="32" height="32" viewBox="0 0 32 32" xmlns="http://www.w3.org/2000/svg">
<path fill-rule="evenodd" clip-rule="evenodd" d="M11.7307 6.25H25.3107L27.75 8.68934V19.8107L20.8107 26.75H11.7307L6.79316 22.6786H4.25V10.3214H6.79316L11.7307 6.25ZM12.2693 7.75L7.33184 11.8214H5.75V21.1786H7.33184L12.2693 25.25H20.1893L26.25 19.1893V9.31066L24.6893 7.75H12.2693Z" />
<path fill-rule="evenodd" clip-rule="evenodd" d="M0.25 21V12H1.75V21H0.25Z" />
<path fill-rule="evenodd" clip-rule="evenodd" d="M15 2.25L23 2.25L23 3.75L15 3.75L15 2.25Z" />
<path fill-rule="evenodd" clip-rule="evenodd" d="M31.75 12L31.75 21L30.25 21L30.25 12L31.75 12Z" />
</svg>
