<svg width="32" height="32" viewBox="0 0 32 32" fill="none" xmlns="http://www.w3.org/2000/svg">
<path fill-rule="evenodd" clip-rule="evenodd" d="M28.25 15.2825L28.25 3.75L16.7175 3.75L3.75 3.75L3.75 15.2825L3.75 16.7175L3.75 28.25L15.2825 28.25L16.7175 28.25L28.25 28.25L28.25 15.2825ZM26.8149 15.2825L26.8149 5.18506L16.7175 5.18507L16.7175 8.61364L15.7818 8.61364L15.7818 8.61377L15.5318 8.61377C15.319 8.61377 15.1083 8.65568 14.9118 8.7371C14.7152 8.81852 14.5366 8.93786 14.3862 9.0883C14.2357 9.23874 14.1164 9.41734 14.035 9.61391C13.9535 9.81047 13.9116 10.0211 13.9116 10.2339C13.9116 10.4467 13.9535 10.6573 14.035 10.8539C14.1164 11.0505 14.2357 11.2291 14.3862 11.3795C14.5366 11.53 14.7152 11.6493 14.9118 11.7307C15.1018 11.8094 15.3051 11.8512 15.5107 11.8539L16.7175 11.8539L16.7175 15.2825L18.7123 15.2825C18.7382 14.9667 18.813 14.6563 18.9347 14.3626C19.0882 13.9919 19.3133 13.6551 19.597 13.3714C19.8807 13.0877 20.2175 12.8627 20.5881 12.7091C20.9588 12.5556 21.3561 12.4766 21.7573 12.4766C22.1585 12.4766 22.5558 12.5556 22.9265 12.7091C23.2971 12.8627 23.634 13.0877 23.9177 13.3714C24.2014 13.6551 24.4264 13.9919 24.5799 14.3626C24.7016 14.6563 24.7765 14.9667 24.8023 15.2825L26.8149 15.2825ZM23.3766 15.4804C23.3704 15.2852 23.329 15.0925 23.2541 14.9118C23.1727 14.7152 23.0534 14.5366 22.9029 14.3862C22.7525 14.2357 22.5739 14.1164 22.3773 14.035C22.1807 13.9535 21.9701 13.9116 21.7573 13.9116C21.5445 13.9116 21.3339 13.9535 21.1373 14.035C20.9407 14.1164 20.7621 14.2357 20.6117 14.3862C20.4613 14.5366 20.3419 14.7152 20.2605 14.9118C20.1791 15.1083 20.1372 15.319 20.1372 15.5318L20.1372 15.7818L20.1364 15.7818L20.1364 16.7175L16.7175 16.7175L16.7175 18.7113C17.0333 18.7372 17.3437 18.812 17.6374 18.9337C18.0081 19.0872 18.3449 19.3123 18.6286 19.596C18.9123 19.8797 19.1373 20.2165 19.2909 20.5872C19.4444 20.9578 19.5234 21.3551 19.5234 21.7563L19.5234 21.7612L19.5234 21.7661C19.5234 22.1673 19.4444 22.5646 19.2909 22.9353C19.1373 23.3059 18.9123 23.6427 18.6286 23.9264C18.3449 24.2101 18.0081 24.4352 17.6374 24.5887C17.3437 24.7104 17.0333 24.7852 16.7175 24.8111L16.7175 26.8149L26.8149 26.8149L26.8149 16.7175L23.3766 16.7175L23.3766 15.4804ZM15.2825 23.3864L15.2825 23.3766L16.2182 23.3766L16.2182 23.3765L16.4682 23.3765C16.681 23.3765 16.8917 23.3346 17.0882 23.2531C17.2848 23.1717 17.4634 23.0524 17.6138 22.9019C17.7643 22.7515 17.8836 22.5729 17.965 22.3763C18.0458 22.1813 18.0877 21.9723 18.0884 21.7612C18.0877 21.5501 18.0458 21.3412 17.965 21.1461C17.8836 20.9495 17.7643 20.7709 17.6138 20.6205C17.4634 20.47 17.2848 20.3507 17.0882 20.2693C16.8982 20.1906 16.695 20.1488 16.4895 20.1461L15.2825 20.1461L15.2825 20.1364L15.2825 16.7175L13.2877 16.7175C13.2618 17.0333 13.187 17.3437 13.0653 17.6374C12.9118 18.0081 12.6867 18.3449 12.403 18.6286C12.1193 18.9123 11.7825 19.1373 11.4119 19.2909C11.0412 19.4444 10.6439 19.5234 10.2427 19.5234L10.2388 19.5234L10.2349 19.5234C9.83367 19.5234 9.43638 19.4444 9.06571 19.2909C8.69503 19.1373 8.35823 18.9123 8.07453 18.6286C7.79083 18.3449 7.56579 18.0081 7.41225 17.6374C7.2906 17.3437 7.21573 17.0333 7.18987 16.7175L5.18506 16.7175L5.18506 26.8149L15.2825 26.8149L15.2825 23.3864ZM15.2825 15.2825L15.2825 13.2789C14.9667 13.2531 14.6563 13.1782 14.3626 13.0565C13.9919 12.903 13.6551 12.678 13.3714 12.3943C13.0877 12.1106 12.8627 11.7738 12.7091 11.4031C12.5556 11.0324 12.4766 10.6351 12.4766 10.2339C12.4766 9.83269 12.5556 9.43541 12.7091 9.06473C12.8627 8.69406 13.0877 8.35726 13.3714 8.07356C13.6551 7.78986 13.9919 7.56481 14.3626 7.41127C14.6563 7.28963 14.9667 7.21475 15.2825 7.1889L15.2825 5.18507L5.18506 5.18506L5.18506 15.2825L8.61363 15.2825L8.62337 15.2825L8.62337 16.5195C8.62956 16.7148 8.67102 16.9075 8.74589 17.0882C8.82731 17.2848 8.94664 17.4634 9.09709 17.6138C9.24753 17.7643 9.42613 17.8836 9.6227 17.965C9.81806 18.046 10.0274 18.0879 10.2388 18.0884C10.4502 18.0879 10.6595 18.046 10.8549 17.965C11.0514 17.8836 11.23 17.7643 11.3805 17.6138C11.5309 17.4634 11.6503 17.2848 11.7317 17.0882C11.8054 16.9102 11.8468 16.7206 11.8539 16.5284L11.8539 15.2825L15.2825 15.2825Z" fill="black"/>
</svg>
