<svg width="16" height="16" viewBox="0 0 16 16" xmlns="http://www.w3.org/2000/svg">
    <path d="M10 8C10 9.10457 9.10457 10 8 10C6.89543 10 6 9.10457 6 8C6 6.89543 6.89543 6 8 6C9.10457 6 10 6.89543 10 8Z"/>
    <path fill-rule="evenodd" clip-rule="evenodd"
          d="M1.96826 8C2.00245 8.03918 2.03894 8.08042 2.07767 8.12349C2.3949 8.47625 2.85831 8.9469 3.44014 9.41627C4.61687 10.3656 6.20292 11.25 8.00047 11.25C9.79803 11.25 11.3841 10.3656 12.5608 9.41627C13.1426 8.9469 13.606 8.47625 13.9233 8.12349C13.962 8.08042 13.9985 8.03918 14.0327 8C13.9985 7.96082 13.962 7.91958 13.9233 7.87651C13.606 7.52375 13.1426 7.0531 12.5608 6.58373C11.3841 5.63443 9.79803 4.75 8.00047 4.75C6.20292 4.75 4.61687 5.63443 3.44014 6.58373C2.85831 7.0531 2.3949 7.52375 2.07767 7.87651C2.03894 7.91958 2.00245 7.96082 1.96826 8ZM15.0005 8C15.6065 7.55812 15.6063 7.55791 15.6062 7.55768L15.6048 7.55581L15.602 7.55203L15.5932 7.54021C15.586 7.53045 15.5758 7.51699 15.5629 7.50006C15.5371 7.46621 15.5001 7.41848 15.4522 7.35886C15.3566 7.23968 15.2176 7.07256 15.0386 6.87349C14.6814 6.47625 14.1604 5.9469 13.5026 5.41627C12.2002 4.36557 10.2863 3.25 8.00047 3.25C5.71469 3.25 3.80075 4.36557 2.49831 5.41627C1.84055 5.9469 1.31959 6.47625 0.962343 6.87349C0.783316 7.07256 0.644311 7.23968 0.548719 7.35886C0.500896 7.41848 0.463856 7.46621 0.438024 7.50006C0.425106 7.51699 0.414983 7.53045 0.407708 7.54021L0.398935 7.55203L0.396162 7.55581L0.39518 7.55715C0.395014 7.55737 0.394469 7.55812 1.00047 8L0.394469 7.55812L0.0722656 8L0.394469 8.44188L1.00047 8C0.394469 8.44188 0.394303 8.44165 0.394469 8.44188L0.396162 8.44419L0.398935 8.44797L0.407708 8.45979C0.414983 8.46955 0.425106 8.48301 0.438024 8.49994C0.463856 8.53379 0.500896 8.58152 0.548719 8.64114C0.644311 8.76032 0.783316 8.92744 0.962343 9.12651C1.31959 9.52375 1.84055 10.0531 2.49831 10.5837C3.80075 11.6344 5.71469 12.75 8.00047 12.75C10.2863 12.75 12.2002 11.6344 13.5026 10.5837C14.1604 10.0531 14.6814 9.52375 15.0386 9.12651C15.2176 8.92744 15.3566 8.76032 15.4522 8.64114C15.5001 8.58152 15.5371 8.53379 15.5629 8.49994C15.5758 8.48301 15.586 8.46955 15.5932 8.45979L15.602 8.44797L15.6048 8.44419L15.6058 8.44285C15.6059 8.44262 15.6065 8.44188 15.0005 8ZM15.0005 8L15.6065 8.44188L15.9287 8L15.6062 7.55768L15.0005 8ZM1.60588 7.5573C1.60587 7.55728 1.60585 7.55726 1.60588 7.5573V7.5573Z"/>
</svg>
