<svg width="48" height="48" viewBox="0 0 48 48" xmlns="http://www.w3.org/2000/svg"><path fill-rule="evenodd" clip-rule="evenodd" d="M24 5C13.507 5 5 13.507 5 24s8.507 19 19 19 19-8.507 19-19S34.493 5 24 5zM3 24C3 12.402 12.402 3 24 3s21 9.402 21 21-9.402 21-21 21S3 35.598 3 24z"/><path fill-rule="evenodd" clip-rule="evenodd" d="M17.536 29.191C19.02 28.111 21.223 27 23.999 27c2.775 0 4.978 1.11 6.463 2.191.744.542 1.32 1.083 1.712 1.492a10.274 10.274 0 01.608.695l.01.014.004.005.002.002-.8.601-.799.6v.001l-.001-.002-.018-.023a8.415 8.415 0 00-.45-.509c-.327-.341-.814-.8-1.444-1.258C28.02 29.889 26.223 29 23.999 29c-2.225 0-4.022.89-5.287 1.809-.63.458-1.117.917-1.444 1.258a8.307 8.307 0 00-.45.509l-.018.023-.002.002-.8-.601-.799-.6v-.001l.002-.002.004-.005.01-.014a3.723 3.723 0 01.156-.193c.105-.124.256-.297.453-.502.391-.409.967-.95 1.712-1.492zm-.738 3.41zM29.75 19c0-.69.56-1.25 1.25-1.25h.02a1.25 1.25 0 110 2.5H31c-.69 0-1.25-.56-1.25-1.25zM15.75 19c0-.69.56-1.25 1.25-1.25h.02a1.25 1.25 0 110 2.5H17c-.69 0-1.25-.56-1.25-1.25z"/></svg>
