<svg width="32" height="32" viewBox="0 0 32 32" xmlns="http://www.w3.org/2000/svg">
<path fill-rule="evenodd" clip-rule="evenodd" d="M7.47422 11.4668L12.0677 16.0006L7.47422 20.5344L6.42052 19.4668L9.17247 16.7506H0V15.2506H9.17247L6.42052 12.5344L7.47422 11.4668Z" />
<path fill-rule="evenodd" clip-rule="evenodd" d="M24.5258 20.5332L19.9323 15.9994L24.5258 11.4656L25.5795 12.5332L22.8275 15.2494L32 15.2494L32 16.7494L22.8275 16.7494L25.5795 19.4656L24.5258 20.5332Z" />
<path fill-rule="evenodd" clip-rule="evenodd" d="M20.5332 7.47422L15.9994 12.0677L11.4656 7.47422L12.5332 6.42052L15.2494 9.17247L15.2494 6.30085e-08L16.7494 4.51212e-08L16.7494 9.17247L19.4656 6.42052L20.5332 7.47422Z" />
<path fill-rule="evenodd" clip-rule="evenodd" d="M11.4668 24.5258L16.0006 19.9323L20.5344 24.5258L19.4668 25.5795L16.7506 22.8275L16.7506 32L15.2506 32L15.2506 22.8275L12.5344 25.5795L11.4668 24.5258Z" />
</svg>
