<svg width="24" height="24" viewBox="0 0 24 24"  xmlns="http://www.w3.org/2000/svg">
<path fill-rule="evenodd" clip-rule="evenodd" d="M2.67201 8.93014C4.14966 4.93996 7.72647 1.89844 13.101 1.89844C16.944 1.89844 19.6783 4.06032 21.0568 6.84922C22.4217 9.61037 22.4923 13.0482 20.9887 15.7251L20.8542 15.9644L4.98806 22.0172L4.64018 21.5529C1.7992 17.7614 1.20801 12.8835 2.67201 8.93014ZM13.101 3.40524C8.99823 3.40524 6.15204 5.40325 4.65487 8.2317L4.34409 8.81883H11.5986V11.3275C11.5986 13.0104 10.584 14.5346 9.01414 15.1997L4.08602 17.2878L4.22183 17.6474C4.51683 18.4286 4.89574 19.1908 5.36066 19.9176L5.53606 20.1918L19.7754 14.7596L19.8444 14.6157C20.873 12.4707 20.7858 9.74949 19.6776 7.50755C18.5171 5.15979 16.2737 3.40524 13.101 3.40524ZM10.0652 10.3256H3.82558L3.75135 10.6312C3.38849 12.1251 3.33197 13.7294 3.59546 15.3186L3.67853 15.8196L8.4071 13.8161C9.41102 13.3907 10.0652 12.4129 10.0652 11.3275V10.3256Z" />
</svg>
