<svg width="16" height="16" viewBox="0 0 16 16" xmlns="http://www.w3.org/2000/svg">
<path fill-rule="evenodd" clip-rule="evenodd" d="M8.73501 1C5.03381 1 2.55379 3.10351 1.53232 5.86186C0.524722 8.58273 0.933047 11.9297 2.88109 14.5296L3.23359 15L14.0891 10.8587L14.226 10.615C15.2766 8.74458 15.222 6.35886 14.278 4.44902C13.32 2.5109 11.4113 1 8.73501 1ZM12.9902 9.62956L3.79946 13.1357C3.49968 12.6671 3.25533 12.1756 3.06507 11.6718L6.11451 10.3797C7.25841 9.89507 8.00009 8.78308 8.00009 7.5527V5.6136H3.33998C4.29219 3.81467 6.09932 2.53787 8.73501 2.53787C10.7364 2.53787 12.146 3.63844 12.8804 5.12424C13.5864 6.55255 13.6372 8.28038 12.9902 9.62956ZM2.76108 7.15146C2.52792 8.11135 2.49111 9.14463 2.66109 10.1698L5.50174 8.96622C6.0737 8.72389 6.44454 8.16789 6.44454 7.5527V7.15146H2.76108Z"/>
</svg>
