<svg
  width="64"
  height="64"
  viewBox="0 0 58 57"
  xmlns="http://www.w3.org/2000/svg"
>
  <path
    fill-rule="evenodd"
    сlip-rule="evenodd"
    d="M22.544 0.688637C24.5696 0.237785 26.6754 0 28.8367 0C30.9979 0 33.1035 0.237742 35.129 0.688515L35.1532 0.693904L36.722 7.1559L37.3927 7.42383C38.3782 7.81747 39.3301 8.27708 40.2431 8.7972L40.8709 9.15484L46.8968 6.35445L46.9161 6.37001C50.2039 9.01906 52.8981 12.375 54.768 16.207L54.7789 16.2293L50.7163 21.47L50.926 22.1621C51.2315 23.1706 51.4698 24.2083 51.6358 25.2699L51.7475 25.984L57.6735 28.939L57.6734 28.9638C57.6545 33.356 56.6536 37.5165 54.8789 41.237L54.8682 41.2593L48.2604 41.3503L47.85 41.9456C47.2401 42.8303 46.5701 43.6703 45.8458 44.4597L45.3573 44.9922L46.7373 51.4467L46.7179 51.4621C43.4406 54.0558 39.5863 55.9525 35.3791 56.9285L35.355 56.9341L31.1725 51.835L30.4517 51.8849C29.9181 51.9218 29.3795 51.9405 28.8365 51.9405C28.2935 51.9405 27.7549 51.9218 27.2212 51.8849L26.5005 51.835L22.3181 56.934L22.294 56.9284C18.0867 55.9523 14.2325 54.0555 10.9552 51.4618L10.9357 51.4464L12.3157 44.9923L11.8271 44.4598C11.1029 43.6703 10.4328 42.8303 9.82294 41.9456L9.41255 41.3503L2.80527 41.2593L2.79461 41.237C1.01988 37.5164 0.0189843 33.3558 0.000106335 28.9635L0 28.9387L5.92547 25.984L6.03711 25.2699C6.20308 24.2083 6.44144 23.1706 6.74697 22.1621L6.95664 21.47L2.89441 16.2297L2.90529 16.2075C4.77514 12.3753 7.4694 9.01928 10.7572 6.37016L10.7765 6.3546L16.802 9.15483L17.4298 8.79719C18.3428 8.27706 19.2948 7.81745 20.2802 7.42381L20.951 7.15588L22.5197 0.694026L22.544 0.688637ZM28.8367 2.9594C27.8509 2.9594 26.8787 3.01439 25.923 3.12135L24.9494 3.23031L23.4491 9.41001L21.9768 9.94395C20.7008 10.4067 19.4843 10.9953 18.3423 11.6951L17.0069 12.5134L11.2433 9.83492L10.5512 10.5262C9.17494 11.9005 7.95293 13.4286 6.91315 15.082L6.3918 15.911L10.2778 20.9239L9.77509 22.4093C9.34687 23.6745 9.04105 24.9968 8.87198 26.3627L8.67951 27.9176L3.00998 30.7447L3.11729 31.7156C3.33531 33.688 3.77476 35.592 4.40985 37.4031L4.73356 38.3262L11.0554 38.4132L11.9033 39.7313C12.6431 40.8812 13.4972 41.9513 14.4496 42.9256L15.5444 44.0454L14.2243 50.2196L15.0507 50.7409C16.6876 51.7736 18.4477 52.6273 20.3034 53.2753L21.227 53.5977L25.2275 48.7206L26.7854 48.8781C27.4589 48.9461 28.1432 48.9811 28.8365 48.9811C29.5298 48.9811 30.214 48.9461 30.8876 48.8781L32.4455 48.7206L36.4461 53.5979L37.3696 53.2754C39.2254 52.6275 40.9854 51.7738 42.6223 50.7412L43.4487 50.2199L42.1286 44.0454L43.2234 42.9255C44.1758 41.9513 45.0298 40.8812 45.7696 39.7313L46.6176 38.4132L52.9399 38.3262L53.2636 37.4031C53.8987 35.592 54.3381 33.6881 54.5562 31.7158L54.6635 30.745L48.9934 27.9176L48.8009 26.3627C48.6319 24.9968 48.3261 23.6746 47.8979 22.4093L47.3951 20.924L51.2815 15.9106L50.7601 15.0816C49.7203 13.4283 48.4983 11.9003 47.1222 10.526L46.43 9.83477L40.6661 12.5134L39.3306 11.6951C38.1886 10.9953 36.9721 10.4067 35.6961 9.94397L34.2239 9.41002L32.7236 3.23023L31.7499 3.12129C30.7944 3.01437 29.8224 2.9594 28.8367 2.9594Z"
  />
  <path
    fill-rule="evenodd"
    сlip-rule="evenodd"
    d="M20.6376 28.8621C20.6376 24.3339 24.3084 20.6631 28.8366 20.6631C33.3647 20.6631 37.0356 24.3339 37.0356 28.8621C37.0356 33.3903 33.3647 37.0611 28.8366 37.0611C24.3084 37.0611 20.6376 33.3903 20.6376 28.8621ZM28.8366 23.6225C25.9428 23.6225 23.597 25.9683 23.597 28.8621C23.597 31.7558 25.9428 34.1017 28.8366 34.1017C31.7303 34.1017 34.0762 31.7558 34.0762 28.8621C34.0762 25.9683 31.7303 23.6225 28.8366 23.6225Z"
  />
</svg>