<svg width="24" height="24" viewBox="0 0 24 24" xmlns="http://www.w3.org/2000/svg"><path fill-rule="evenodd" clip-rule="evenodd" d="M3.676 3.392c.572-.273 1.248-.115 1.806.155.396.191 1.054.373 1.82.493.756.119 1.554.167 2.205.124H9.521l.033-.003.128-.007c.111-.005.275-.013.487-.02.425-.015 1.044-.03 1.83-.03a52.517 52.517 0 012.317.05l.128.007.033.002h.01l.003.001c.652.043 1.45-.005 2.206-.124.766-.12 1.424-.302 1.82-.493.559-.27 1.235-.428 1.807-.155.312.149.544.408.659.737.108.312.097.64.029.944-.09.398-.128.66-.125.957.002.308.05.688.172 1.318l.002.009.01.045.034.171c.028.15.068.367.115.648.093.56.213 1.373.32 2.39l-1.491.158a40.042 40.042 0 00-.309-2.303 24.803 24.803 0 00-.139-.764l-.008-.037-.001-.008v-.002l-.002-.007-.002-.008c-.128-.658-.197-1.146-.201-1.596-.005-.455.058-.838.157-1.28a1.614 1.614 0 00-.376.134c-.586.283-1.41.494-2.239.624-.839.131-1.75.19-2.536.139h-.008l-.028-.002a51.045 51.045 0 00-2.358-.055 51.003 51.003 0 00-2.24.048l-.116.007-.028.001h-.008c-.786.053-1.697-.006-2.536-.138-.83-.13-1.653-.34-2.24-.624H4.83a1.6 1.6 0 00-.374-.134c.099.442.162.825.158 1.28-.004.45-.073.938-.201 1.596l-.002.008-.001.007v.002l-.002.008-.008.037-.03.154c-.027.137-.065.343-.11.61a40.184 40.184 0 00-.309 2.303M2.94 7.347c.123-.63.17-1.008.173-1.316.003-.298-.036-.559-.126-.958a1.72 1.72 0 01.03-.945c.115-.329.347-.587.659-.736m-.735 3.955l-.002.01-.01.045c-.008.04-.02.097-.033.171-.03.15-.07.367-.116.647a41.676 41.676 0 00-.322 2.39 40.749 40.749 0 00-.19 5.387l1.5-.044a39.252 39.252 0 01.182-5.184m17.592-.159c.22 2.069.23 4.007.19 5.387l-1.5-.044a39.239 39.239 0 00-.182-5.184l1.492-.159zm-2.916 8.14H5.373v-1.5h13.253v1.5zm1.697-15.358c-.572-.273-1.247-.115-1.805.155-.396.191-1.054.373-1.82.493-.756.119-1.554.167-2.205.124H14.479l-.033-.003-.128-.007a52.476 52.476 0 00-2.316-.05 52.517 52.517 0 00-2.318.05 17.03 17.03 0 00-.128.007l-.033.002h-.01l-.003.001c-.652.043-1.45-.005-2.206-.124-.766-.12-1.424-.302-1.82-.493-.559-.27-1.236-.428-1.808-.155a1.266 1.266 0 00-.658.737c-.108.312-.097.64-.029.944.09.398.128.66.126.957-.003.308-.052.688-.174 1.317l-.002.01-.01.045c-.008.04-.02.097-.033.171-.03.15-.068.367-.115.648a41.497 41.497 0 00-.32 2.39l1.491.158c.105-.984.22-1.767.309-2.303.044-.267.082-.473.109-.61l.029-.154.008-.037.001-.008v-.002l.002-.007.002-.008c.128-.658.198-1.146.202-1.596.005-.455-.058-.838-.157-1.28.093.019.22.059.376.134.586.283 1.41.494 2.239.624.839.131 1.75.19 2.536.139h.008l.028-.002.116-.007.464-.02c.409-.014 1.01-.028 1.777-.028a51.003 51.003 0 012.24.048l.117.007.028.001h.008c.786.053 1.697-.006 2.536-.138.83-.13 1.653-.34 2.24-.624h.001a1.6 1.6 0 01.374-.134c-.099.442-.162.825-.158 1.28.004.45.072.938.2 1.596l.002.008.001.007v.002l.002.008.008.037.031.154c.027.137.065.343.11.61.088.536.204 1.32.309 2.303m1.008-3.421c-.122-.63-.168-1.01-.171-1.317-.003-.298.036-.559.126-.958a1.72 1.72 0 00-.03-.945 1.27 1.27 0 00-.66-.736m.735 3.956l.002.009.01.045.034.171c.028.15.07.367.116.647.093.562.213 1.374.322 2.39.22 2.069.23 4.007.19 5.387l-1.5-.044a39.239 39.239 0 00-.182-5.184m-17.592-.16a40.749 40.749 0 00-.19 5.388l1.5-.044a39.249 39.249 0 01.182-5.184l-1.492-.16zm2.915 8.141h13.253v-1.5H5.373v1.5z"/><path fill-rule="evenodd" clip-rule="evenodd" d="M18.518 3.547c.558-.27 1.234-.428 1.806-.155l-.274 7.377a40.162 40.162 0 00-.31-2.303 24.725 24.725 0 00-.14-.764l-.007-.037-.002-.008v-.002l-.002-.007-.001-.008c-.128-.658-.197-1.147-.201-1.596-.004-.455.059-.838.158-1.28a1.6 1.6 0 00-.374.134h-.001c-.587.283-1.41.494-2.24.624-.839.131-1.75.19-2.537.139h-.007l-.028-.002a50.978 50.978 0 00-2.356-.055 51.051 51.051 0 00-2.242.048l-.116.007-.029.001h-.007c-.787.053-1.698-.006-2.537-.138-.829-.13-1.652-.34-2.239-.624a1.614 1.614 0 00-.375-.134c.099.442.161.825.157 1.28-.004.45-.074.938-.201 1.596l-.002.008-.002.007v.002l-.002.008-.007.037c-.007.034-.018.086-.03.154-.027.137-.065.343-.11.61a40.002 40.002 0 00-.308 2.303L2.46 10.61c.108-1.016.228-1.828.321-2.39a26.218 26.218 0 01.149-.818l.01-.045.001-.01c.123-.63.17-1.009.173-1.317.003-.298-.036-.559-.125-.957a1.718 1.718 0 01.03-.944c.114-.33.345-.588.658-.737.572-.273 1.248-.114 1.807.155.396.191 1.054.373 1.82.493.756.119 1.554.167 2.205.124h.014l.033-.003.128-.007c.111-.005.275-.013.487-.02.425-.015 1.044-.03 1.83-.03a52.476 52.476 0 012.317.05l.127.007.034.002h.01l.003.001c.652.043 1.45-.005 2.206-.124.765-.12 1.424-.302 1.82-.493zm2.541 3.8l-1.01 3.422c.112 1.048.168 2.065.19 2.988.534.03 1.042.158 1.506.367a38.504 38.504 0 00-.204-3.514 41.662 41.662 0 00-.322-2.39 26.179 26.179 0 00-.149-.818l-.01-.045-.001-.01zm-5.243 9.903a4.276 4.276 0 000 1.5H8.184a4.275 4.275 0 000-1.5h7.632zM3.76 13.757c.022-.923.077-1.94.189-2.988l-1.492-.159a38.49 38.49 0 00-.204 3.514c.464-.21.972-.338 1.507-.367zm17.298-6.41l-.06-.318.06.318zm-.06-.318l-.675-3.637c.312.149.543.407.658.736.11.312.099.641.03.945-.09.4-.128.66-.125.958.002.252.034.552.113.998zM20 16.75a1.25 1.25 0 100 2.5 1.25 1.25 0 000-2.5zM17.25 18a2.75 2.75 0 115.5 0 2.75 2.75 0 01-5.5 0zM4 16.75a1.25 1.25 0 100 2.5 1.25 1.25 0 000-2.5zM1.25 18a2.75 2.75 0 115.5 0 2.75 2.75 0 01-5.5 0z"/><path fill-rule="evenodd" clip-rule="evenodd" d="M14 9.5h-4A2.5 2.5 0 007.5 12v.5h9V12A2.5 2.5 0 0014 9.5zM10 8a4 4 0 00-4 4v1a1 1 0 001 1h10a1 1 0 001-1v-1a4 4 0 00-4-4h-4z"/></svg>