<svg width="32" height="32" viewBox="0 0 32 32" fill="none" xmlns="http://www.w3.org/2000/svg">
<path fill-rule="evenodd" clip-rule="evenodd" d="M16 28.5C22.9036 28.5 28.5 22.9036 28.5 16C28.5 9.09644 22.9036 3.5 16 3.5C9.09644 3.5 3.5 9.09644 3.5 16C3.5 22.9036 9.09644 28.5 16 28.5ZM16 30C23.732 30 30 23.732 30 16C30 8.26801 23.732 2 16 2C8.26801 2 2 8.26801 2 16C2 23.732 8.26801 30 16 30Z" fill="black"/>
<path fill-rule="evenodd" clip-rule="evenodd" d="M12.5833 7.25H19.4167V12.5833H24.75V19.4167H19.4167V24.75H12.5833V19.4167H7.25V12.5833H12.5833V7.25ZM14.0833 8.75V14.0833H8.75V17.9167H14.0833V23.25H17.9167V17.9167H23.25V14.0833H17.9167V8.75H14.0833Z" fill="black"/>
</svg>
