<svg width="24" height="24" viewBox="0 0 24 24" xmlns="http://www.w3.org/2000/svg">
<path fill-rule="evenodd" clip-rule="evenodd" d="M6.79496 2.02102C8.56962 1.86723 10.378 2.55355 11.8058 4.20387L11.9995 4.42775L12.1933 4.20388C13.6213 2.55354 15.4299 1.86724 17.2046 2.02102C19.3116 2.20358 21.2339 3.56245 22.2453 5.58865C23.267 7.63525 23.3492 10.3265 21.8822 13.1855C20.4224 16.0304 17.444 19.0224 12.3686 21.7981L11.9995 22L11.6304 21.7981C6.5554 19.0224 3.57723 16.0304 2.11763 13.1855C0.650774 10.3265 0.733093 7.63524 1.75462 5.58867C2.76598 3.56248 4.68818 2.20359 6.79496 2.02102ZM17.0717 3.54545C15.5799 3.41619 13.9062 4.10479 12.6568 6.17173L11.9994 7.25927L11.3421 6.17169C10.093 4.10475 8.41947 3.41619 6.92787 3.54545C5.39784 3.67804 3.92224 4.68069 3.12877 6.27037C2.3457 7.83919 2.21613 10.0173 3.48413 12.4887C4.71577 14.8892 7.27949 17.5823 11.8733 20.181L11.9995 20.2525L12.1258 20.181C16.72 17.5823 19.284 14.8892 20.5157 12.4886C21.7839 10.0172 21.6543 7.83919 20.8712 6.27038C20.0777 4.68073 18.602 3.67804 17.0717 3.54545Z"/>
</svg>
