<svg width="24" height="24" viewBox="0 0 24 24" fill="none" xmlns="http://www.w3.org/2000/svg">
<path d="M6.79496 2.02102C8.56962 1.86723 10.378 2.55355 11.8058 4.20387L11.9995 4.42775L12.1933 4.20388C13.6213 2.55354 15.4299 1.86724 17.2046 2.02102C19.3116 2.20358 21.2339 3.56245 22.2453 5.58865C23.267 7.63525 23.3492 10.3265 21.8822 13.1855C20.4224 16.0304 17.444 19.0224 12.3686 21.7981L11.9995 22L11.6304 21.7981C6.5554 19.0224 3.57723 16.0304 2.11763 13.1855C0.650774 10.3265 0.733093 7.63524 1.75462 5.58867C2.76598 3.56248 4.68818 2.20359 6.79496 2.02102Z" fill="#FF0000"/>
</svg>
