<svg width="24" height="24" viewBox="0 0 24 24" xmlns="http://www.w3.org/2000/svg"><path fill-rule="evenodd" clip-rule="evenodd" d="M9.337 7.25h2.254v1.5h-1.246l-.329.804 3.88.634.028-.036c.174-.214.428-.508.68-.722.778-.665 1.952-.935 2.8-1.059a12.097 12.097 0 011.592-.121H19.036l-.008.75.008-.75.742.008v2.807l3.75 2.143-1.835 3.496-.4.042-.077-.746.077.746-.03.003-.083.008a88.641 88.641 0 01-1.49.13c-.992.08-2.37.174-3.912.237-3.066.126-6.86.13-9.578-.387-1.181-.225-2.481-.913-3.436-1.495a22.222 22.222 0 01-1.657-1.12l-.026-.02-.007-.005-.003-.003.457-.594-.612-.433.001-.002.004-.005.01-.016.043-.058.154-.21c.131-.175.317-.418.535-.688.427-.53 1.013-1.204 1.576-1.667.75-.616 1.812-1.15 2.64-1.517a23.254 23.254 0 011.494-.6l.024-.009.007-.002.002-.001.247.708-.246-.709.655-.227.488 1.114.787-1.928zM7.252 9.954c-.22.087-.482.195-.764.32-.807.36-1.713.826-2.296 1.305-.439.361-.946.936-1.362 1.451a20.66 20.66 0 00-.244.308c.26.18.589.397.959.623.931.568 2.037 1.131 2.936 1.302 2.533.483 6.176.488 9.235.363a102.117 102.117 0 005.007-.332l.017-.001.788-1.5-3.25-1.858V9.782a10.3 10.3 0 00-.658.074c-.82.119-1.614.348-2.042.714a4.518 4.518 0 00-.491.53 9.305 9.305 0 00-.247.317l-.014.018-.003.005-.271.375-6.985-1.14-.315-.722zM1.528 13.5l-.612-.433-.416.588.57.44.458-.595z"/></svg>