<svg xmlns="http://www.w3.org/2000/svg" viewBox="0 0 32 32"><path fill-rule="evenodd" clip-rule="evenodd" d="M4 15.7c0-4.87 0-7.31 1.24-9.02a6.5 6.5 0 011.44-1.44C8.38 4 10.83 4 15.7 4h.6c4.88 0 7.31 0 9.02 1.24.55.4 1.04.89 1.44 1.44C28 8.38 28 10.83 28 15.7v.6c0 4.88 0 7.31-1.24 9.02a6.5 6.5 0 01-1.44 1.44C23.62 28 21.18 28 16.3 28h-.6c-4.87 0-7.31 0-9.02-1.24a6.5 6.5 0 01-1.44-1.44C4 23.62 4 21.18 4 16.3v-.6zm12-6.05a6.35 6.35 0 100 12.7 6.35 6.35 0 000-12.7zm0 10.32a3.98 3.98 0 11.01-7.95 3.98 3.98 0 01-.01 7.95zm7.68-10.8a.85.85 0 11-1.7 0 .85.85 0 011.7 0z"/></svg>
