<svg width="26" height="26" viewBox="0 0 26 26" xmlns="http://www.w3.org/2000/svg">
<path fill-rule="evenodd" clip-rule="evenodd" d="M8.075 3.5C4.93802 3.5 2.5 5.93141 2.5 9.04428C2.5 10.9567 3.35872 12.7539 5.02488 14.7824C6.6993 16.821 9.1088 18.9998 12.085 21.6883C12.0851 21.6884 12.0852 21.6885 12.0853 21.6886L13.25 22.7397L14.4147 21.6886C14.4148 21.6885 14.4149 21.6884 14.415 21.6883C17.3912 18.9998 19.8007 16.821 21.4751 14.7824C23.1413 12.7539 24 10.9567 24 9.04428C24 5.93141 21.562 3.5 18.425 3.5C16.6495 3.5 14.9345 4.32625 13.8189 5.62483C13.6764 5.79068 13.4687 5.8861 13.25 5.8861C13.0313 5.8861 12.8236 5.79068 12.6811 5.62483C11.5655 4.32625 9.85045 3.5 8.075 3.5ZM1 9.04428C1 5.09611 4.11648 2 8.075 2C10.0166 2 11.8818 2.78152 13.25 4.0556C14.6182 2.78152 16.4834 2 18.425 2C22.3835 2 25.5 5.09611 25.5 9.04428C25.5 11.452 24.4037 13.5802 22.6343 15.7345C20.8822 17.8675 18.3924 20.1167 15.466 22.7603L15.4203 22.8016L15.42 22.8019L13.7525 24.3068C13.467 24.5644 13.033 24.5644 12.7475 24.3068L11.08 22.8019L11.0797 22.8016L11.034 22.7603C8.10761 20.1168 5.61777 17.8675 3.86575 15.7345C2.09628 13.5802 1 11.452 1 9.04428Z" />
</svg>
