<svg width="26" height="26" viewBox="0 0 26 26" xmlns="http://www.w3.org/2000/svg">
<path fill-rule="evenodd" clip-rule="evenodd" d="M1.0408 3.75614C1.14551 3.45159 1.43296 3.24789 1.75501 3.25002L24.7661 3.40228C25.0994 3.40449 25.3905 3.62622 25.4821 3.94539C25.7127 4.18424 25.7592 4.54724 25.5944 4.83697L14.2207 24.8413C14.0616 25.1213 13.7414 25.2684 13.4253 25.2068C13.1092 25.1452 12.8677 24.8886 12.8253 24.5694L11.1818 12.2016L1.29276 4.59446C1.03749 4.3981 0.936085 4.0607 1.0408 3.75614ZM11.7886 10.7759L3.97424 4.76473L21.9938 4.88397L11.7886 10.7759ZM12.7199 12.389L22.9251 6.49702L14.0186 22.162L12.7199 12.389Z" />
</svg>
