<svg width="26" height="26" viewBox="0 0 26 26" xmlns="http://www.w3.org/2000/svg">
<path fill-rule="evenodd" clip-rule="evenodd" d="M13.7524 15.1567L21.2931 22.9613C21.3144 22.9753 21.3285 22.9776 21.3367 22.9787C21.3551 22.981 21.3843 22.9788 21.4175 22.9639C21.4507 22.9489 21.4716 22.9284 21.482 22.9131C21.4884 22.9037 21.5 22.8847 21.5 22.8361V3.5H5.5V22.947C5.5 22.9942 5.51127 23.0134 5.51783 23.0232C5.52823 23.0387 5.54875 23.059 5.58102 23.074C5.61329 23.0891 5.64202 23.0917 5.6606 23.0896C5.66923 23.0887 5.68339 23.0864 5.7047 23.0732L13.7524 15.1567ZM6.69617 24.202C5.62933 25.0996 4 24.3412 4 22.947V3.09345C4 2.48955 4.48955 2 5.09345 2H21.9066C22.5104 2 23 2.48955 23 3.09345V22.8361C23 24.2485 21.3337 25.0004 20.2747 24.066L13.7253 17.2874L6.69617 24.202Z" />
</svg>
