<svg width="26" height="26" viewBox="0 0 26 26" xmlns="http://www.w3.org/2000/svg">
<path fill-rule="evenodd" clip-rule="evenodd" d="M2 13.25C2 7.0368 7.0368 2 13.25 2C19.4632 2 24.5 7.0368 24.5 13.25C24.5 15.3336 23.9329 17.2868 22.9444 18.9613L24.4615 23.5128C24.5513 23.7823 24.4812 24.0794 24.2803 24.2803C24.0795 24.4812 23.7823 24.5513 23.5128 24.4615L18.9614 22.9443C17.2868 23.9329 15.3336 24.5 13.25 24.5C7.0368 24.5 2 19.4632 2 13.25ZM13.25 3.5C7.86522 3.5 3.5 7.86522 3.5 13.25C3.5 18.6348 7.86522 23 13.25 23C15.1698 23 16.9579 22.4459 18.4658 21.4892C18.6562 21.3684 18.8908 21.3397 19.1047 21.411L22.5642 22.5641L21.411 19.1047C21.3397 18.8908 21.3684 18.6561 21.4892 18.4657C22.4459 16.9579 23 15.1698 23 13.25C23 7.86522 18.6348 3.5 13.25 3.5Z" />
</svg>
