<svg width="32" height="32" viewBox="0 0 32 32" xmlns="http://www.w3.org/2000/svg">
<path fill-rule="evenodd" clip-rule="evenodd" d="M12 29.5C17.2467 29.5 21.5 25.2467 21.5 20C21.5 14.7533 17.2467 10.5 12 10.5C6.75329 10.5 2.5 14.7533 2.5 20C2.5 25.2467 6.75329 29.5 12 29.5ZM12 31C18.0751 31 23 26.0751 23 20C23 13.9249 18.0751 9 12 9C5.92487 9 1 13.9249 1 20C1 26.0751 5.92487 31 12 31Z" />
<path fill-rule="evenodd" clip-rule="evenodd" d="M20 21.5C25.2467 21.5 29.5 17.2467 29.5 12C29.5 6.75329 25.2467 2.5 20 2.5C14.7533 2.5 10.5 6.75329 10.5 12C10.5 17.2467 14.7533 21.5 20 21.5ZM20 23C26.0751 23 31 18.0751 31 12C31 5.92487 26.0751 1 20 1C13.9249 1 9 5.92487 9 12C9 18.0751 13.9249 23 20 23Z" />
</svg>
