<svg width="16" height="16" viewBox="0 0 16 16" xmlns="http://www.w3.org/2000/svg">
    <path fill-rule="evenodd" clip-rule="evenodd"
          d="M7.99969 2.49735C6.95349 1.38178 5.62889 0.906476 4.31877 1.01511C2.73681 1.14629 1.30754 2.12006 0.558569 3.55591C-0.20124 5.01253 -0.250732 6.90859 0.815019 8.89627C1.87318 10.8698 4.01445 12.9143 7.61053 14.7964L7.99963 15L8.38873 14.7964C11.9851 12.9143 14.1266 10.8698 15.1849 8.8963C16.2507 6.90861 16.2013 5.01254 15.4414 3.5559C14.6924 2.12003 13.263 1.14629 11.6809 1.01511C10.3707 0.906479 9.04603 1.38177 7.99969 2.49735ZM8.69254 4.19538C9.52391 2.87927 10.6069 2.47537 11.5409 2.5528C12.5151 2.63358 13.4736 3.2481 13.9929 4.24356C14.5014 5.21828 14.6006 6.59667 13.7444 8.19337C12.914 9.74199 11.1708 11.5115 7.99966 13.2356C4.82885 11.5115 3.08582 9.74201 2.25549 8.1934C1.39938 6.5967 1.49866 5.21829 2.00711 4.24354C2.52637 3.24806 3.48481 2.63358 4.45888 2.5528C5.39262 2.47538 6.47548 2.87923 7.30671 4.19534L7.99959 5.29238L8.69254 4.19538Z"/>
</svg>
