<svg width="24" height="24" viewBox="0 0 24 24" xmlns="http://www.w3.org/2000/svg"><path fill-rule="evenodd" clip-rule="evenodd" d="M14.273 3.25a3.25 3.25 0 00-3.043 2.109l-.392 1.045.913 1.369v3.192a.25.25 0 00.111.208l.61.406c.486.325.779.871.779 1.456v5.654l2 2v-4.633a7.75 7.75 0 011.23-4.191l2.222-3.455a3.25 3.25 0 00.236-3.078l-.068-.152a3.25 3.25 0 00-2.97-1.93h-1.628zM9.825 4.832a4.75 4.75 0 014.448-3.082H15.9a4.75 4.75 0 014.34 2.82l.069.153a4.75 4.75 0 01-.345 4.498l-2.222 3.455a6.25 6.25 0 00-.992 3.38v6.194H14.69l-2.94-2.94v-6.275a.25.25 0 00-.11-.208l-.61-.406a1.75 1.75 0 01-.78-1.456V8.634L2.032 7.239l.251-1.478 7.13 1.209-.248-.374.661-1.764z"/></svg>