<svg width="24" height="24" viewBox="0 0 24 24" xmlns="http://www.w3.org/2000/svg"><path fill-rule="evenodd" clip-rule="evenodd" d="M7.555 5l.988 1.129-1.88 1.645 2.684 2.54c.287 0 .561.001.826.003 1.634.012 2.917.022 4.672-.474a15.306 15.306 0 003.886-1.697c.442-.274.776-.517.996-.688a7.05 7.05 0 00.301-.246l.012-.01.509.55.509.551-.002.001-.002.003-.007.006-.023.02-.08.07a8.53 8.53 0 01-.297.24c-.258.2-.635.473-1.126.778a16.804 16.804 0 01-4.268 1.865c-1.276.36-2.359.483-3.411.52 1.352.655 2.874 1.249 4.268 1.738a65.95 65.95 0 004.052 1.274l.06.017.016.004h.003l.001.002-.276 1.469-3.667-.408v1.912H7.05c.165-.56.307-1.087.343-1.671.03-.482.023-1.012-.073-1.397-.427-1.71-1.46-2.412-2.384-2.72a4.685 4.685 0 00-1.775-.22l-.02.003H1.55l3.447-4.57L7.555 5zm1.331 11.314h5.913v-1.647c-2.14-.788-4.553-1.826-6.186-2.992l-.042-.03-2.929-2.772-1.137 1.507c.283.046.59.117.906.223 1.325.442 2.793 1.49 3.366 3.78.153.615.147 1.335.114 1.853l-.005.078z"/><path fill-rule="evenodd" clip-rule="evenodd" d="M3.05 13.016a3.05 3.05 0 100 6.1 3.05 3.05 0 000-6.1zm-1.565 3.05a1.565 1.565 0 113.13 0 1.565 1.565 0 01-3.13 0z"/><path d="M17.65 17.188a3.25 3.25 0 10.55-3.956l1.748.659a1.75 1.75 0 11-.358 3.188L17.55 17c.032.063.065.125.1.187z"/></svg>