<svg width="48" height="48" viewBox="0 0 48 48" xmlns="http://www.w3.org/2000/svg">
<path fill-rule="evenodd" clip-rule="evenodd" d="M39 44V4H18.3284L9 13.3284V44H39ZM7 12.5L17.5 2H41V46H7V12.5Z"/>
<path fill-rule="evenodd" clip-rule="evenodd" d="M13.5 30.4277V38.3005H15.1973V35.7436H16.3888C17.2936 35.7436 18.0073 35.4688 18.4949 34.9776C18.9813 34.4876 19.2101 33.8151 19.2101 33.0821C19.2101 32.3514 18.9833 31.6805 18.498 31.1915C18.0115 30.7014 17.2985 30.4277 16.3923 30.4277H13.5ZM23.6255 30.4277H20.8965V38.3005H23.5509C24.7221 38.3005 25.6822 37.9356 26.3481 37.2361C27.012 36.5386 27.3488 35.5449 27.3488 34.3534C27.3488 33.1669 27.0119 32.1795 26.3584 31.4865C25.7027 30.7913 24.7616 30.4277 23.6255 30.4277ZM29.1133 30.4277V38.3005H30.8106V35.1293H33.9001V33.5882H30.8106V31.9723H34.2232V30.4277H29.1133ZM15.1973 34.2132V31.9688H16.2751C16.7656 31.9688 17.0606 32.1009 17.2343 32.2771C17.4091 32.4544 17.5057 32.7216 17.5057 33.0821C17.5057 33.4429 17.4089 33.7163 17.2334 33.8987C17.0603 34.0787 16.7692 34.2132 16.2893 34.2132H15.1973ZM22.5938 36.7417V31.9865H23.558C24.2924 31.9865 24.8039 32.2042 25.1364 32.5766C25.4742 32.9548 25.6692 33.539 25.6692 34.3534C25.6692 35.1718 25.474 35.7603 25.1291 36.1424C24.789 36.5191 24.2609 36.7417 23.4905 36.7417H22.5938Z" />
</svg>
