<svg width="40" height="40" viewBox="0 0 40 40" xmlns="http://www.w3.org/2000/svg">
<path fill-rule="evenodd" clip-rule="evenodd" d="M19.1893 1.75H33.25V38.25H6.75V14.1893L19.1893 1.75ZM31.75 3.25H20.25V15.25H8.25V36.75H31.75V3.25ZM9.31066 13.75H18.75V4.31066L9.31066 13.75Z"/>
<path d="M13 26.8182H13.8778V24.7727H15.071C16.4205 24.7727 17.0881 23.9574 17.0881 22.8835C17.0881 21.8125 16.4261 21 15.0739 21H13V26.8182ZM13.8778 24.0284V21.7528H14.9801C15.8494 21.7528 16.2045 22.2244 16.2045 22.8835C16.2045 23.5426 15.8494 24.0284 14.9915 24.0284H13.8778Z"/>
<path d="M20.0007 26.8182C21.7734 26.8182 22.799 25.7187 22.799 23.9006C22.799 22.0909 21.7734 21 20.0604 21H18.1172V26.8182H20.0007ZM18.995 26.0511V21.767H20.0064C21.2791 21.767 21.9354 22.5284 21.9354 23.9006C21.9354 25.2784 21.2791 26.0511 19.9524 26.0511H18.995Z"/>
<path d="M23.8906 26.8182H24.7685V24.2812H27.2401V23.5284H24.7685V21.7557H27.4986V21H23.8906V26.8182Z"/>
</svg>