<svg width="16" height="16" viewBox="0 0 16 16" xmlns="http://www.w3.org/2000/svg">
<path fill-rule="evenodd" clip-rule="evenodd" d="M7.0961 7.09593C6.15797 8.03406 4.63695 8.03406 3.69882 7.09593C2.76068 6.15779 2.76068 4.63678 3.69882 3.69864C4.63695 2.76051 6.15797 2.76051 7.0961 3.69864C8.03424 4.63678 8.03424 6.15779 7.0961 7.09593ZM4.3965 6.39825C4.94932 6.95106 5.84561 6.95106 6.39842 6.39825C6.95124 5.84543 6.95124 4.94914 6.39842 4.39632C5.84561 3.84351 4.94932 3.84351 4.3965 4.39632C3.84368 4.94914 3.84368 5.84543 4.3965 6.39825Z"/>
<path fill-rule="evenodd" clip-rule="evenodd" d="M12.3012 12.3015C11.363 13.2396 9.84203 13.2396 8.9039 12.3015C7.96576 11.3634 7.96576 9.84234 8.9039 8.90421C9.84203 7.96607 11.363 7.96607 12.3012 8.90421C13.2393 9.84234 13.2393 11.3634 12.3012 12.3015ZM9.60158 11.6038C10.1544 12.1566 11.0507 12.1566 11.6035 11.6038C12.1563 11.051 12.1563 10.1547 11.6035 9.60189C11.0507 9.04908 10.1544 9.04908 9.60158 9.60189C9.04876 10.1547 9.04876 11.051 9.60158 11.6038Z"/>
<path fill-rule="evenodd" clip-rule="evenodd" d="M3.4469 11.8553L11.4546 3.84766L12.1523 4.54534L4.14458 12.553L3.4469 11.8553Z"/>
</svg>
