<svg width="24" height="24" viewBox="0 0 24 24" xmlns="http://www.w3.org/2000/svg">
<path fill-rule="evenodd" clip-rule="evenodd" d="M12 2.75C7.98874 2.75 4.75 5.96692 4.75 9.91919C4.75 13.033 6.59788 15.9682 8.56194 18.1902C9.53234 19.288 10.5049 20.1822 11.2352 20.8019C11.539 21.0596 11.7998 21.269 12 21.425C12.2002 21.269 12.461 21.0596 12.7648 20.8019C13.4951 20.1822 14.4677 19.288 15.4381 18.1902C17.4021 15.9682 19.25 13.033 19.25 9.91919C19.25 5.96692 16.0113 2.75 12 2.75ZM12 22.3636C11.567 22.976 11.5668 22.9759 11.5666 22.9757L11.566 22.9753L11.5642 22.974L11.5585 22.97L11.5385 22.9556C11.5215 22.9434 11.4971 22.9257 11.4658 22.9027C11.4033 22.8567 11.3132 22.7895 11.1995 22.7022C10.9722 22.5277 10.6501 22.2726 10.2648 21.9456C9.49513 21.2926 8.46766 20.3484 7.43806 19.1836C5.40212 16.8803 3.25 13.5932 3.25 9.91919C3.25 5.12417 7.17471 1.25 12 1.25C16.8253 1.25 20.75 5.12417 20.75 9.91919C20.75 13.5932 18.5979 16.8803 16.5619 19.1836C15.5323 20.3484 14.5049 21.2926 13.7352 21.9456C13.3499 22.2726 13.0278 22.5277 12.8005 22.7022C12.6868 22.7895 12.5967 22.8567 12.5342 22.9027C12.5029 22.9257 12.4785 22.9434 12.4615 22.9556L12.4415 22.97L12.4358 22.974L12.434 22.9753L12.4334 22.9757C12.4332 22.9759 12.433 22.976 12 22.3636ZM12 22.3636L12.433 22.976L12 23.2822L11.567 22.976L12 22.3636ZM12.0001 7.11365C10.406 7.11365 9.11376 8.40592 9.11376 10C9.11376 11.5941 10.406 12.8864 12.0001 12.8864C13.5942 12.8864 14.8865 11.5941 14.8865 10C14.8865 8.40592 13.5942 7.11365 12.0001 7.11365ZM7.61376 10C7.61376 7.57749 9.5776 5.61365 12.0001 5.61365C14.4226 5.61365 16.3865 7.57749 16.3865 10C16.3865 12.4225 14.4226 14.3864 12.0001 14.3864C9.5776 14.3864 7.61376 12.4225 7.61376 10Z"/>
</svg>
