<svg width="24" height="24" viewBox="0 0 24 24" fill="none" xmlns="http://www.w3.org/2000/svg">
    <path fill-rule="evenodd" clip-rule="evenodd" d="M12.0019 1.75C10.207 1.75 8.75193 3.20507 8.75193 5V6.25H15.2519V5C15.2519 3.20507 13.7969 1.75 12.0019 1.75ZM16.7519 6.25V5C16.7519 2.37665 14.6253 0.25 12.0019 0.25C9.37858 0.25 7.25193 2.37665 7.25193 5V6.25H4.33984L2.15234 23.75H21.8515L19.664 6.25H16.7519ZM15.2519 7.75V10C15.2519 10.4142 15.5877 10.75 16.0019 10.75C16.4161 10.75 16.7519 10.4142 16.7519 10V7.75H18.3398L20.1523 22.25H3.85152L5.66402 7.75H7.25193V10C7.25193 10.4142 7.58772 10.75 8.00193 10.75C8.41614 10.75 8.75193 10.4142 8.75193 10V7.75H15.2519Z" fill="black"/>
</svg>
