<svg width="24" height="24" viewBox="0 0 24 24" xmlns="http://www.w3.org/2000/svg"><path fill-rule="evenodd" clip-rule="evenodd" d="M3.5 17.5a2 2 0 100-4 2 2 0 000 4zm0 1.5a3.5 3.5 0 100-7 3.5 3.5 0 000 7z"/><path fill-rule="evenodd" clip-rule="evenodd" d="M1 9.25h3.5c2.9 0 5.25 2.35 5.25 5.25h-1.5a3.75 3.75 0 00-3.75-3.75H1v-1.5zM20.5 17.5a2 2 0 100-4 2 2 0 000 4zm0 1.5a3.5 3.5 0 100-7 3.5 3.5 0 000 7z"/><path fill-rule="evenodd" clip-rule="evenodd" d="M4.914 6.592a6.75 6.75 0 016.309-.527l3.878 1.663 9.02-1.289-4.311 4.31h-.31a3.75 3.75 0 00-3.75 3.75v.75H11.5v-1.5h2.803a5.252 5.252 0 014.876-4.49l.699-.699-4.98.712-4.266-1.828a5.25 5.25 0 00-4.907.41L2 10.247v.502H1L.594 9.369l4.32-2.777z"/><path fill-rule="evenodd" clip-rule="evenodd" d="M7.993 3.25h2.508v1.5H9.009l-.812 2.029-1.392-.558L7.993 3.25z"/></svg>