<svg width="32" height="32" viewBox="0 0 32 32" fill="none" xmlns="http://www.w3.org/2000/svg">
<path fill-rule="evenodd" clip-rule="evenodd" d="M22.4035 26.307C24.5593 26.307 26.307 24.5593 26.307 22.4035C26.307 20.2477 24.5593 18.5 22.4035 18.5C20.2477 18.5 18.5 20.2477 18.5 22.4035C18.5 24.5593 20.2477 26.307 22.4035 26.307ZM22.4035 27.807C25.3878 27.807 27.807 25.3878 27.807 22.4035C27.807 19.4192 25.3878 17 22.4035 17C19.4192 17 17 19.4192 17 22.4035C17 25.3878 19.4192 27.807 22.4035 27.807Z" fill="black"/>
<path fill-rule="evenodd" clip-rule="evenodd" d="M10.673 13.307C12.8289 13.307 14.5765 11.5593 14.5765 9.40349C14.5765 7.24765 12.8289 5.5 10.673 5.5C8.51718 5.5 6.76953 7.24765 6.76953 9.40349C6.76953 11.5593 8.51718 13.307 10.673 13.307ZM10.673 14.807C13.6573 14.807 16.0765 12.3878 16.0765 9.40349C16.0765 6.41923 13.6573 4 10.673 4C7.68876 4 5.26953 6.41923 5.26953 9.40349C5.26953 12.3878 7.68876 14.807 10.673 14.807Z" fill="black"/>
<path fill-rule="evenodd" clip-rule="evenodd" d="M25.5294 7.53039L7.52941 25.5304L6.46875 24.4697L24.4688 6.46973L25.5294 7.53039Z" fill="black"/>
</svg>
