<svg width="24" height="24" viewBox="0 0 24 24" xmlns="http://www.w3.org/2000/svg"><path fill-rule="evenodd" clip-rule="evenodd" d="M7.557 5l.987 1.129-1.88 1.645 2.684 2.54c1.703 1.25 2.496 1.493 2.496 1.493 1.351.654 2.874 1.248 4.268 1.737a65.95 65.95 0 004.051 1.274l.061.017.015.004h.004v.002l-.275 1.469-3.667-.408v1.912H7.05c.167-.56.308-1.087.345-1.671.03-.482.023-1.012-.073-1.397-.428-1.71-1.46-2.412-2.385-2.72a4.685 4.685 0 00-1.774-.22l-.021.003H1.55l3.447-4.57L7.558 5zm1.33 11.314h5.914v-1.647c-2.14-.788-4.553-1.826-6.186-2.992l-.042-.03-2.929-2.772-1.137 1.507c.282.046.589.117.906.223 1.325.442 2.793 1.49 3.365 3.78.154.615.147 1.335.115 1.853l-.005.078z"/><path d="M17.65 17.188a3.25 3.25 0 10.55-3.956l1.748.659a1.75 1.75 0 11-.358 3.188L17.55 17c.032.063.065.125.1.187z"/><path fill-rule="evenodd" clip-rule="evenodd" d="M3.05 13.016a3.05 3.05 0 100 6.1 3.05 3.05 0 000-6.1zm-1.565 3.05a1.565 1.565 0 113.13 0 1.565 1.565 0 01-3.13 0zM18.016 10.668c-1.126-.05-2.462-.046-3.455.137-.816.15-1.856.503-2.72.834a32.936 32.936 0 00-1.373.563l-.082.037-.02.009-.006.002-.31-.683-.308-.684.01-.004.023-.01a16.345 16.345 0 01.417-.181c.277-.118.666-.278 1.112-.45.879-.336 2.027-.733 2.987-.909 1.168-.214 2.644-.21 3.79-.16a34.798 34.798 0 012.011.148l.032.003.009.001h.003l-.085.746-.085.745h-.008l-.027-.004-.11-.011a33.252 33.252 0 00-1.806-.13z"/></svg>