<svg width="24" height="24" viewBox="0 0 24 24" xmlns="http://www.w3.org/2000/svg"><path fill-rule="evenodd" clip-rule="evenodd" d="M16.97 10.992l-.052.195 5.03 5.03a4.054 4.054 0 01-5.733 5.732l-5.03-5.03-.195.051c-.7.187-1.43.295-2.182.295A8.458 8.458 0 01.352 8.951l2.72-2.72 4.15 4.15c.173.172.391.294.629.35l.092.021c1.674.396 3.145-1.176 2.64-2.82a1.288 1.288 0 00-.32-.534l-4.179-4.18L8.951.353a8.459 8.459 0 018.314 8.456c0 .752-.11 1.482-.295 2.184zm.342 9.86a2.503 2.503 0 103.54-3.539l-5.66-5.661.28-1.057c.156-.59.243-1.186.243-1.787A6.91 6.91 0 009.728 1.96l-.171-.023-1.28 1.28 3.082 3.084c.328.328.57.731.707 1.175.855 2.79-1.64 5.454-4.48 4.784l-.091-.022a2.865 2.865 0 01-1.368-.763L3.073 8.422 1.938 9.557l.023.171a6.909 6.909 0 006.847 5.987c.603 0 1.197-.086 1.782-.243l1.059-.282 5.663 5.663z"/></svg>
