<svg width="16" height="16" viewBox="0 0 16 16" xmlns="http://www.w3.org/2000/svg">
<path fill-rule="evenodd" clip-rule="evenodd" d="M12.0386 7.38739C12.1668 6.90299 12.2431 6.39608 12.2431 5.87155C12.2431 2.62948 9.61363 0 6.37155 0L4.22591 2.14564L7.17681 5.09654C7.24913 5.16886 7.30263 5.25781 7.33261 5.35559C7.61607 6.27989 6.7893 7.16294 5.84837 6.94088L5.78724 6.92645C5.67084 6.89898 5.5644 6.83964 5.47983 6.75508L2.54815 3.8234L0.5 5.87155C0.5 9.11363 3.1285 11.7431 6.37155 11.7431C6.89608 11.7431 7.40201 11.6678 7.88641 11.5386L11.1451 14.7973C12.292 15.9442 14.1504 15.9442 15.2973 14.7973C16.4432 13.6504 16.4432 11.792 15.2973 10.6461L12.0386 7.38739ZM14.2366 13.7366C14.7972 13.1751 14.7964 12.2665 14.2366 11.7068L10.3677 7.83786L10.5885 7.00363C10.6881 6.62712 10.7431 6.24975 10.7431 5.87155C10.7431 3.65549 9.09264 1.82362 6.95433 1.53854L6.34723 2.14564L8.23747 4.03588C8.48313 4.28154 8.66484 4.58366 8.7667 4.9158C9.38982 6.9477 7.57232 8.88893 5.50383 8.40077L5.4427 8.38635C5.05516 8.29489 4.70074 8.09731 4.41917 7.81574L2.54815 5.94472L2.03852 6.45435C2.32348 8.59277 4.15474 10.2431 6.37155 10.2431C6.75123 10.2431 7.12692 10.1887 7.49992 10.0892L8.33555 9.86639L12.2058 13.7366C12.7669 14.2978 13.6755 14.2978 14.2366 13.7366Z" />
</svg>
