<svg width="24" height="24" viewBox="0 0 24 24" xmlns="http://www.w3.org/2000/svg"><path fill-rule="evenodd" clip-rule="evenodd" d="M9.797 2.876l-.053-.001-2.39 2.391 3.389 3.39c.103.103.18.23.222.37a1.635 1.635 0 01-1.938 2.07l-.073-.017a.914.914 0 01-.436-.244L5.15 7.468 2.875 9.744v.053a6.807 6.807 0 006.806 6.69c.607 0 1.194-.087 1.757-.237l.084-.022 3.923 3.923a3.327 3.327 0 104.707-4.705l-3.924-3.923.023-.084c.149-.563.237-1.151.237-1.758a6.808 6.808 0 00-6.69-6.805zm-.359 2.39l.88-.88.074.01a5.335 5.335 0 014.621 5.285c0 .463-.067.923-.188 1.38l-.064.242-.175.663 1.44 1.439 3.083 3.084a1.854 1.854 0 01-2.62 2.62l-4.525-4.525-.906.241c-.454.121-.912.188-1.377.188a5.333 5.333 0 01-5.285-4.621l-.01-.074.765-.764 2.324 2.324a2.39 2.39 0 001.14.636l.073.017c2.337.551 4.391-1.642 3.687-3.938a2.368 2.368 0 00-.59-.98L9.439 5.266z"/></svg>
