<svg width="24" height="24" viewBox="0 0 24 24" xmlns="http://www.w3.org/2000/svg"><path fill-rule="evenodd" clip-rule="evenodd" d="M20.5 8l.614.43v.002l-.002.002-.004.006-.014.02a8.671 8.671 0 01-.232.3c-.16.2-.397.48-.715.818a20.564 20.564 0 01-3.001 2.601l.846.186a3.997 3.997 0 00-.785 1.363l-2.005-.44c-.783.362-1.654.68-2.586.925a5.968 5.968 0 003.363 1.038h1.029c.033.535.17 1.042.394 1.5h-1.423a7.468 7.468 0 01-5.25-2.158c-.722.102-1.467.158-2.229.158-1.395 0-2.63-.417-3.502-.82a9.701 9.701 0 01-1.333-.748 4.926 4.926 0 01-.08-.057l-.023-.017-.008-.005-.002-.002H3.55L4 12.5l-.45.6-.378-.284.093-.463c.561-2.808 2.28-3.964 3.4-4.524l.277-.139.294.098h.002l.005.002.023.008a14.197 14.197 0 00.45.14c.305.09.732.212 1.219.334.99.247 2.166.478 3.065.478 2.172 0 4.235-.363 5.762-.73a27.031 27.031 0 001.817-.501 18.651 18.651 0 00.62-.208l.03-.01.007-.003 2.265-.85-1.387 1.982L20.5 8zM4.852 12.163c.464-1.644 1.439-2.417 2.22-2.852l.214.065c.322.097.771.225 1.286.353 1.01.253 2.335.523 3.428.523 2.324 0 4.507-.386 6.104-.769-.479.436-1.057.917-1.74 1.411-.445.323-.976.64-1.579.933a14.489 14.489 0 01-3.908 1.227 14.53 14.53 0 01-2.377.198c-1.105 0-2.12-.334-2.873-.681a8.276 8.276 0 01-.775-.408z"/><path fill-rule="evenodd" clip-rule="evenodd" d="M5.036 15.25l.792-1.586 1.342.67-.457.915h2.286v1.5H3.605a3.75 3.75 0 01-3.12-1.67l-.11-.164 1.248-.832.11.165a2.25 2.25 0 001.872 1.002h1.43z"/><circle cx="21" cy="15" r="2"/></svg>