<svg xmlns="http://www.w3.org/2000/svg" viewBox="0 0 40 40"><path fill-rule="evenodd" clip-rule="evenodd" d="M20 38.5a18.5 18.5 0 100-37 18.5 18.5 0 000 37zm0 1.5a20 20 0 100-40 20 20 0 000 40z"/><path d="M12 16.67h3.83L20 13.33v13.34l-4.17-3.34H12v-6.66z"/><path fill-rule="evenodd" clip-rule="evenodd" d="M21.97 17.2l.53-.53.53-.53.03.03a3.27 3.27 0 01.22.26 5.85 5.85 0 01-.23 7.4l-.01.02v.01h-.01l-.53-.53-.53-.53.02-.02.11-.14a4.35 4.35 0 00-.14-5.45z"/><path fill-rule="evenodd" clip-rule="evenodd" d="M24.49 13.88l.5-.55.52-.54.02.01a2.54 2.54 0 01.13.13c.08.09.2.21.33.38a10.46 10.46 0 01-.46 13.9h-.01l-.52-.54-.51-.55.01-.02a3.2 3.2 0 00.34-.37 8.96 8.96 0 00-.34-11.83l-.01-.02z"/></svg>
