<svg width="24" height="24" viewBox="0 0 24 24" fill="none" xmlns="http://www.w3.org/2000/svg">
    <path fill-rule="evenodd" clip-rule="evenodd" d="M16.3411 11.9204C16.3411 14.3008 14.4114 16.2306 12.031 16.2306C9.65052 16.2306 7.7208 14.3008 7.7208 11.9204C7.7208 9.53996 9.65052 7.61024 12.031 7.61024C14.4114 7.61024 16.3411 9.53996 16.3411 11.9204ZM14.831 11.9204C14.831 13.4668 13.5774 14.7205 12.031 14.7205C10.4845 14.7205 9.23088 13.4668 9.23088 11.9204C9.23088 10.374 10.4845 9.12032 12.031 9.12032C13.5774 9.12032 14.831 10.374 14.831 11.9204Z" fill="black"/>
    <path fill-rule="evenodd" clip-rule="evenodd" d="M3.21902 4.34228C3.39643 4.035 3.76387 3.8927 4.10197 4.00035L6.48756 4.7599L6.66403 4.63014C6.94126 4.42628 7.22963 4.23885 7.52609 4.06911C7.80849 3.9067 8.10046 3.75912 8.40092 3.6274L8.60153 3.53945L9.13654 1.09369C9.21237 0.747064 9.51932 0.5 9.87414 0.5H14.1879C14.5428 0.5 14.8497 0.747064 14.9255 1.09369L15.4605 3.53945L15.6612 3.6274C15.98 3.76716 16.2899 3.9252 16.5883 4.09944C16.8665 4.26117 17.1368 4.43819 17.3978 4.63014L17.5743 4.7599L19.9599 4.00035C20.298 3.8927 20.6654 4.035 20.8428 4.34228L22.9997 8.07814C23.1771 8.38542 23.1166 8.77478 22.8544 9.01376L21.0038 10.7L21.0279 10.9177C21.0649 11.2513 21.0831 11.5863 21.0828 11.9195C21.0832 12.2536 21.065 12.5887 21.0279 12.9231L21.0038 13.1408L22.8544 14.8271C23.1166 15.066 23.1771 15.4554 22.9997 15.7627L20.8428 19.4985C20.6654 19.8058 20.298 19.9481 19.9599 19.8405L17.5743 19.0809L17.3978 19.2107C17.1336 19.405 16.8592 19.5844 16.5774 19.7477C16.2822 19.9196 15.9763 20.0752 15.6612 20.2134L15.4605 20.3013L14.9255 22.7471C14.8497 23.0937 14.5428 23.3408 14.1879 23.3408H9.87414C9.51932 23.3408 9.21237 23.0937 9.13654 22.7471L8.60153 20.3013L8.40092 20.2134C8.10395 20.0832 7.81459 19.9371 7.53525 19.7769C7.23531 19.6057 6.94433 19.4168 6.66403 19.2107L6.48756 19.0809L4.10197 19.8405C3.76387 19.9481 3.39643 19.8058 3.21902 19.4985L1.06212 15.7627C0.88471 15.4554 0.945198 15.066 1.20747 14.8271L3.05806 13.1408L3.03392 12.9231C2.99687 12.5891 2.97871 12.2537 2.97903 11.92C2.97872 11.5863 2.99688 11.2517 3.03392 10.9177L3.05806 10.7L1.20747 9.01376C0.945199 8.77478 0.884711 8.38542 1.06212 8.07814L3.21902 4.34228ZM9.91235 4.61362L9.00722 5.01042C8.7572 5.12002 8.51413 5.24289 8.2789 5.37816L8.27574 5.37998C8.02891 5.52132 7.78921 5.67715 7.55862 5.84671L6.76242 6.43218L4.22292 5.62363L2.67375 8.30687L4.64372 10.1019L4.5348 11.0841C4.50397 11.3621 4.48885 11.6406 4.4891 11.9186L4.48911 11.9222L4.64372 13.739L2.67375 15.5339L4.22292 18.2172L6.76242 17.4086L7.55862 17.9941C7.79186 18.1656 8.0341 18.3229 8.28395 18.4655L8.28712 18.4673L9.91235 19.2272L10.4819 21.8307H13.5802L14.1497 19.2272L15.0549 18.8304C15.3171 18.7154 15.5717 18.5858 15.8177 18.4427L15.8208 18.4408L17.2994 17.4086L19.8389 18.2172L21.3881 15.5339L19.4181 13.739L19.527 12.7567C19.5579 12.4784 19.573 12.1994 19.5727 11.9212L19.5727 11.917C19.5729 11.6396 19.5578 11.3615 19.527 11.0841L19.4181 10.1019L21.3881 8.30687L19.8389 5.62363L17.2994 6.43218L16.5032 5.84671C16.286 5.68699 16.061 5.53961 15.8293 5.4049L15.8258 5.40285C15.5773 5.2578 15.32 5.12665 15.0549 5.01042L14.1497 4.61362L13.5802 2.01008H10.4819L9.91235 4.61362Z" fill="black"/>
</svg>
