<svg width="16" height="16" viewBox="0 0 16 16" xmlns="http://www.w3.org/2000/svg">
    <path d="M7.3883 1.74373C7.6204 1.20847 8.37947 1.20847 8.61157 1.74372L10.0158 4.98201C10.1124 5.20478 10.3225 5.35741 10.5642 5.38045L14.0779 5.71526C14.6587 5.77061 14.8933 6.49252 14.4559 6.87867L11.8101 9.21486C11.6281 9.37557 11.5478 9.62253 11.6006 9.85954L12.368 13.3048C12.4948 13.8742 11.8807 14.3204 11.3783 14.0238L8.33886 12.2293C8.12977 12.1059 7.8701 12.1059 7.66101 12.2293L4.62154 14.0238C4.11915 14.3204 3.50506 13.8742 3.63189 13.3048L4.39926 9.85954C4.45205 9.62253 4.37181 9.37557 4.18979 9.21486L1.54393 6.87867C1.1066 6.49252 1.34116 5.77061 1.92194 5.71526L5.43567 5.38045C5.67739 5.35741 5.88747 5.20478 5.98407 4.98201L7.3883 1.74373Z"/>
</svg>
