<svg width="24" height="24" viewBox="0 0 24 24" xmlns="http://www.w3.org/2000/svg">
<path fill-rule="evenodd" clip-rule="evenodd" d="M10.3945 2.31745C11.0038 0.912413 12.9963 0.912411 13.6056 2.31745L15.7119 7.17488C15.7482 7.25842 15.827 7.31566 15.9176 7.32429L21.1882 7.82652C22.7127 7.9718 23.3285 9.86682 22.1805 10.8805L18.2117 14.3847C18.1434 14.445 18.1133 14.5376 18.1331 14.6265L19.2842 19.7943C19.6171 21.2891 18.0051 22.4603 16.6863 21.6818L12.1271 18.9901C12.0487 18.9438 11.9514 18.9438 11.873 18.9901L7.31375 21.6818C5.99498 22.4603 4.38298 21.2891 4.71593 19.7943L5.86698 14.6265C5.88677 14.5376 5.85668 14.445 5.78843 14.3847L1.81963 10.8805C0.671639 9.86682 1.28737 7.9718 2.81192 7.82652L8.0825 7.32429C8.17315 7.31566 8.25193 7.25842 8.28815 7.17488L10.3945 2.31745ZM12.2294 2.91421C12.1424 2.71349 11.8577 2.71349 11.7707 2.91421L9.66434 7.77164C9.41076 8.35641 8.8593 8.75707 8.22479 8.81753L2.95421 9.31976C2.73641 9.34051 2.64845 9.61123 2.81245 9.75603L6.78124 13.2603C7.25903 13.6822 7.46967 14.3305 7.3311 14.9526L6.18005 20.1204C6.13248 20.334 6.36277 20.5013 6.55117 20.3901L11.1104 17.6984C11.6592 17.3744 12.3409 17.3744 12.8897 17.6984L17.4489 20.3901C17.6373 20.5013 17.8676 20.334 17.8201 20.1204L16.669 14.9526C16.5304 14.3305 16.7411 13.6822 17.2189 13.2603L21.1876 9.75603C21.3516 9.61123 21.2637 9.34051 21.0459 9.31976L15.7753 8.81753C15.1408 8.75707 14.5893 8.35641 14.3358 7.77164L12.2294 2.91421Z" />
</svg>
