<svg width="24" height="24" viewBox="0 0 24 24" xmlns="http://www.w3.org/2000/svg">
<path d="M11.0826 2.61583C11.4307 1.81295 12.5693 1.81295 12.9175 2.61583L15.0238 7.47326C15.1687 7.80741 15.4838 8.03636 15.8464 8.07091L21.117 8.57314C21.9882 8.65615 22.34 9.73902 21.684 10.3182L17.7152 13.8225C17.4422 14.0636 17.3219 14.434 17.401 14.7895L18.5521 19.9574C18.7423 20.8116 17.8212 21.4808 17.0676 21.0359L12.5084 18.3442C12.1948 18.1591 11.8053 18.1591 11.4916 18.3442L6.93244 21.0359C6.17885 21.4808 5.25771 20.8116 5.44796 19.9574L6.59901 14.7895C6.6782 14.434 6.55783 14.0636 6.28481 13.8225L2.31602 10.3182C1.66002 9.73902 2.01187 8.65615 2.88304 8.57314L8.15363 8.07091C8.5162 8.03636 8.83132 7.80742 8.97622 7.47326L11.0826 2.61583Z" />
</svg>
