<svg width="24" height="24" viewBox="0 0 24 24"  xmlns="http://www.w3.org/2000/svg">
<path fill-rule="evenodd" clip-rule="evenodd" d="M6.75057 7.5C6.75057 4.60051 9.10108 2.25 12.0006 2.25C14.9001 2.25 17.2506 4.60051 17.2506 7.5C17.2506 10.3995 14.9001 12.75 12.0006 12.75C9.10108 12.75 6.75057 10.3995 6.75057 7.5ZM12.0006 3.75C9.92951 3.75 8.25057 5.42893 8.25057 7.5C8.25057 9.57107 9.92951 11.25 12.0006 11.25C14.0716 11.25 15.7506 9.57107 15.7506 7.5C15.7506 5.42893 14.0716 3.75 12.0006 3.75Z" />
<path d="M4.5724 18.0266C6.30746 16.5251 8.78851 15.2499 12.0007 15.2499C15.2129 15.2499 17.6939 16.5251 19.429 18.0266C20.7943 19.2082 21.7308 20.5594 22.2045 21.5903L20.7408 22.0085C20.3452 21.2324 19.5907 20.1503 18.4474 19.1609C16.9321 17.8496 14.7881 16.7499 12.0007 16.7499C9.21323 16.7499 7.06924 17.8496 5.55397 19.1609C4.41068 20.1503 3.65618 21.2324 3.26054 22.0085L1.79688 21.5903C2.27055 20.5594 3.20702 19.2082 4.5724 18.0266Z" />
</svg>
