<svg xmlns="http://www.w3.org/2000/svg" viewBox="0 0 32 32"><path d="M26.39 19c-.33-.44-.4-.88-.22-1.33.44-1.2 6.85-8.82 4.18-8.82-1.84.02-4.05 0-5.8 0a.88.88 0 00-.68.6c-1.03 2.37-2.29 5.27-4.13 7.13-.25.2-.4.2-.68.12-1.3-1.36.09-6.04-.7-7.88-.15-.37-.5-.53-.84-.62-1.76-.42-5.78-.17-6.43.67-.19.24-.22.38-.08.4.62.1 1.07.33 1.33.7.49 1.09.85 6.84-.6 6.84-1.44 0-3.77-5.65-4.42-7.21-.17-.48-.6-.75-1.06-.83L2 8.81c-.76 0-1.18.37-.91 1.12 2.23 5.53 7.1 16.24 14.58 15.98.75 0 2.04.28 2.62-.37.8-1.06-.17-2.96 1.2-3.69.35-.18.71-.03 1.01.2 1.54 1.17 2.35 3.22 4.24 3.84.33.11.62.14.87.08l4-.06c.74 0 1.47-.33 1.32-1.22-.58-1.9-2.9-3.86-4.54-5.69z"/></svg>
