<svg width="24" height="24" viewBox="0 0 24 24" xmlns="http://www.w3.org/2000/svg">
<g opacity="0.7">
<path d="M7.8408 22.5308C7.61267 22.3458 7.42809 22.1127 7.3002 21.8483C7.1723 21.5839 7.10422 21.2945 7.1008 21.0008V18.9008H5.5008C5.04902 18.9207 4.59804 18.8463 4.17655 18.6825C3.75505 18.5186 3.37226 18.2689 3.05249 17.9491C2.73272 17.6293 2.48298 17.2465 2.31914 16.8251C2.1553 16.4036 2.08094 15.9526 2.1008 15.5008V6.5008C2.08094 6.04902 2.1553 5.59804 2.31914 5.17655C2.48298 4.75505 2.73272 4.37226 3.05249 4.05249C3.37226 3.73272 3.75505 3.48298 4.17655 3.31914C4.59804 3.1553 5.04902 3.08094 5.5008 3.1008H18.5008C18.9526 3.08094 19.4036 3.1553 19.8251 3.31914C20.2465 3.48298 20.6293 3.73272 20.9491 4.05249C21.2689 4.37226 21.5186 4.75505 21.6825 5.17655C21.8463 5.59804 21.9207 6.04902 21.9008 6.5008V15.5008C21.9207 15.9526 21.8463 16.4036 21.6825 16.8251C21.5186 17.2465 21.2689 17.6293 20.9491 17.9491C20.6293 18.2689 20.2465 18.5186 19.8251 18.6825C19.4036 18.8463 18.9526 18.9207 18.5008 18.9008H13.8408L10.1208 22.1608C9.85866 22.5003 9.47725 22.7274 9.05388 22.7961C8.6305 22.8648 8.19684 22.77 7.8408 22.5308ZM12.7708 17.4408C13.025 17.2166 13.3519 17.0923 13.6908 17.0908H18.5008C18.7159 17.1108 18.9328 17.0832 19.136 17.0099C19.3393 16.9366 19.5238 16.8194 19.6766 16.6666C19.8294 16.5138 19.9466 16.3293 20.0199 16.126C20.0932 15.9228 20.1208 15.7059 20.1008 15.4908V6.4908C20.1208 6.27569 20.0932 6.0588 20.0199 5.85557C19.9466 5.65235 19.8294 5.46779 19.6766 5.31502C19.5238 5.16225 19.3393 5.04503 19.136 4.97171C18.9328 4.89839 18.7159 4.87076 18.5008 4.8908H5.5008C5.28477 4.87053 5.06692 4.89834 4.86291 4.97223C4.65889 5.04612 4.47376 5.16426 4.32081 5.31817C4.16786 5.47208 4.05087 5.65794 3.97826 5.86241C3.90564 6.06688 3.87919 6.2849 3.9008 6.5008V15.5008C3.88076 15.7159 3.90839 15.9328 3.98171 16.136C4.05503 16.3393 4.17225 16.5238 4.32502 16.6766C4.47779 16.8294 4.66235 16.9466 4.86557 17.0199C5.0688 17.0932 5.28569 17.1208 5.5008 17.1008H8.0008C8.7008 17.3008 8.7008 17.3008 8.9008 18.0008V20.8308L12.7708 17.4408Z" />
</g>
</svg>
