<svg width="24" height="24" viewBox="0 0 24 24" xmlns="http://www.w3.org/2000/svg">
<g opacity="0.7">
<path d="M17.0016 2.89844C18.7017 2.90637 20.3295 3.58731 21.5289 4.79231C22.7283 5.99731 23.4016 7.62828 23.4016 9.32844C23.4016 12.8984 21.9716 14.6884 15.9516 19.3284L13.1716 21.4884C12.8383 21.7471 12.4284 21.8875 12.0066 21.8875C11.5847 21.8875 11.1748 21.7471 10.8416 21.4884L8.05156 19.3684C2.00156 14.6884 0.601563 12.8984 0.601563 9.32844C0.601544 7.62828 1.27487 5.99731 2.47425 4.79231C3.67362 3.58731 5.30142 2.90637 7.00156 2.89844C7.97229 2.91885 8.92592 3.15781 9.79157 3.59756C10.6572 4.03731 11.4126 4.66653 12.0016 5.43844C12.5905 4.66653 13.3459 4.03731 14.2116 3.59756C15.0772 3.15781 16.0308 2.91885 17.0016 2.89844ZM7.00156 4.69844C5.77882 4.70636 4.60885 5.19766 3.74703 6.06509C2.88522 6.93253 2.40154 8.10567 2.40156 9.32844C2.40156 12.1484 3.55156 13.5884 9.16156 17.9584L11.9416 20.1184C11.9589 20.1314 11.9799 20.1384 12.0016 20.1384C12.0232 20.1384 12.0443 20.1314 12.0616 20.1184L14.8416 17.9984C20.4516 13.6384 21.6016 12.1984 21.6016 9.36844C21.6068 8.75958 21.492 8.15565 21.2635 7.59125C21.0351 7.02684 20.6975 6.51304 20.2703 6.07925C19.843 5.64547 19.3343 5.30022 18.7734 5.06328C18.2126 4.82634 17.6104 4.70236 17.0016 4.69844C15.4416 4.69844 14.0016 5.57844 12.7716 7.42844L12.0016 8.49844L11.2616 7.42844C10.0016 5.57844 8.58156 4.69844 7.00156 4.69844Z" />
</g>
</svg>
