<svg width="24" height="24" viewBox="0 0 24 24" xmlns="http://www.w3.org/2000/svg">
<g opacity="0.7">
<path d="M12.0985 7.86997V4.39997C12.1004 4.14938 12.1736 3.9045 12.3095 3.69395C12.4454 3.4834 12.6385 3.3159 12.8661 3.21101C13.0937 3.10613 13.3464 3.0682 13.5948 3.10166C13.8431 3.13513 14.0768 3.2386 14.2685 3.39997L23.2085 11C23.475 11.2268 23.6404 11.5501 23.6686 11.8989C23.6967 12.2477 23.5852 12.5934 23.3585 12.86L23.2085 13.01L14.2685 20.61C14.0768 20.7714 13.8431 20.8748 13.5948 20.9083C13.3464 20.9417 13.0937 20.9038 12.8661 20.7989C12.6385 20.6941 12.4454 20.5265 12.3095 20.316C12.1736 20.1055 12.1004 19.8606 12.0985 19.61V16.16C7.41855 16.27 4.09855 17.25 2.20855 19.03C2.0276 19.1975 1.7976 19.3024 1.5525 19.3292C1.30739 19.356 1.06015 19.3034 0.847243 19.179C0.63434 19.0546 0.467052 18.8651 0.370057 18.6384C0.273063 18.4117 0.251499 18.1599 0.308547 17.92C1.83855 11.56 5.81855 8.15997 12.0985 7.86997ZM13.8985 5.44997V9.64997H12.9985C7.69855 9.64997 4.27855 11.9 2.60855 16.51C5.05855 15.06 8.52855 14.35 12.9985 14.35H13.8985V18.55L21.6085 12L13.8985 5.44997Z" />
</g>
</svg>
